<?xml version="1.0" encoding="UTF-8" standalone="no"?>
<!-- Created with Inkscape (http://www.inkscape.org/) -->

<svg
   xmlns:dc="http://purl.org/dc/elements/1.1/"
   xmlns:cc="http://creativecommons.org/ns#"
   xmlns:rdf="http://www.w3.org/1999/02/22-rdf-syntax-ns#"
   xmlns:svg="http://www.w3.org/2000/svg"
   xmlns="http://www.w3.org/2000/svg"
   xmlns:sodipodi="http://sodipodi.sourceforge.net/DTD/sodipodi-0.dtd"
   xmlns:inkscape="http://www.inkscape.org/namespaces/inkscape"
   width="210mm"
   height="297mm"
   viewBox="0 0 210 297"
   version="1.1"
   id="svg6924"
   inkscape:version="0.92.1 r15371"
   sodipodi:docname="orange_guy.svg">
  <defs
     id="defs6918">
    <clipPath
       id="clipPath3943"
       clipPathUnits="userSpaceOnUse">
      <path
         inkscape:connector-curvature="0"
         id="path3945"
         d="M 0,0 H 595.276 V 841.89 H 0 Z" />
    </clipPath>
    <clipPath
       id="clipPath21020-5"
       clipPathUnits="userSpaceOnUse">
      <path
         inkscape:connector-curvature="0"
         id="path21022-5"
         d="M 0,0 H 595.276 V 841.89 H 0 Z" />
    </clipPath>
  </defs>
  <sodipodi:namedview
     id="base"
     pagecolor="#ffffff"
     bordercolor="#666666"
     borderopacity="1.0"
     inkscape:pageopacity="0.0"
     inkscape:pageshadow="2"
     inkscape:zoom="0.35"
     inkscape:cx="400"
     inkscape:cy="560"
     inkscape:document-units="mm"
     inkscape:current-layer="layer1"
     showgrid="false"
     inkscape:window-width="1375"
     inkscape:window-height="876"
     inkscape:window-x="65"
     inkscape:window-y="24"
     inkscape:window-maximized="1" />
  <metadata
     id="metadata6921">
    <rdf:RDF>
      <cc:Work
         rdf:about="">
        <dc:format>image/svg+xml</dc:format>
        <dc:type
           rdf:resource="http://purl.org/dc/dcmitype/StillImage" />
        <dc:title></dc:title>
      </cc:Work>
    </rdf:RDF>
  </metadata>
  <g
     inkscape:label="Ebene 1"
     inkscape:groupmode="layer"
     id="layer1">
    <g
       style="display:inline"
       id="g6629"
       transform="matrix(0.63216437,0,0,0.65527898,-504.37056,-227.59625)">
      <path
         inkscape:connector-curvature="0"
         d="m 978.72581,368.20769 c 0,0 -10.60953,-1.93001 -17.54617,3.9389 -6.93665,5.87074 -7.24302,9.14001 -7.24302,11.89925 0,2.75742 0.30637,8.62815 0.30637,8.62815 v 0.87328 c 0,0 -0.88061,-0.20181 -1.14296,0.21648 -0.26418,0.41829 -0.89895,-0.80906 0,4.50396 0.89713,5.31302 0.16328,2.37031 1.38697,5.80469 1.22368,3.43255 0.32656,2.45103 1.46952,2.94271 1.14296,0.48984 0.57056,0.48984 1.71352,0.40912 1.14296,-0.0826 0.8696,0.22932 0.8696,1.96119 0,1.73003 0.1908,5.24147 0.2385,7.35677 0.0495,2.1153 0.33757,1.442 -0.38343,2.50057 -0.71917,1.05673 -6.7697,8.9437 -7.7769,9.42437 -1.00903,0.48066 -15.69872,5.96247 -16.99395,6.2505 -1.29707,0.28803 -2.20887,0.19263 -3.84167,0.52837 -1.63096,0.33756 -2.92803,0.81823 -3.50409,1.05856 -0.57607,0.24034 -7.31091,7.84845 -10.07566,12.11758 -2.76658,4.26912 -5.31669,11.62589 -8.07043,19.43581 -2.75558,7.81175 -8.07043,25.62394 -8.43368,27.25858 -0.36326,1.63463 -1.66583,3.14451 -2.27858,5.51849 -0.61276,2.37215 -2.43636,8.57128 2.4602,12.87343 4.89657,4.30398 10.0885,6.84675 11.8222,7.11827 1.73371,0.27336 9.30512,1.36311 10.6664,1.36311 1.35944,0 3.15002,0.8164 4.02329,1.22552 0.87327,0.40912 6.3459,22.68307 3.9389,27.99792 -2.40884,5.31302 -1.79608,3.14635 -3.42888,11.64791 -1.6328,8.50157 -1.42732,5.92578 -1.02004,12.66979 0.40912,6.74401 0,48.84088 0,48.84088 l 1.02004,24.80937 c 0,0 0.2862,9.31797 0.65312,12.75052 0.36692,3.43438 -2.28592,49.65911 -2.28592,51.82578 0,2.16483 -0.15043,10.1362 0.13026,12.58723 0.27886,2.45287 1.46218,23.95078 1.99238,28.4052 0.5302,4.45626 1.75572,2.65651 1.14296,5.10938 -0.61276,2.45287 0.20364,3.72425 -0.71366,6.26701 -0.91914,2.54277 -2.18868,4.25812 -2.27858,6.722 -0.0917,2.46204 -0.54488,6.99352 1.45117,8.35479 1.99422,1.36312 4.60119,3.30413 6.03035,3.81415 1.42733,0.51186 7.18615,0.51186 9.20239,0.30821 2.01806,-0.20547 3.52611,-0.39811 4.35352,-2.39599 0.8274,-1.99789 1.54106,-3.838 1.63279,-5.36989 0.0899,-1.53373 0.67881,-3.47475 0.0899,-5.5185 -0.58891,-2.04375 -0.61276,-3.24725 -0.89529,-4.28013 -0.28253,-1.03289 1.89332,-4.60853 3.97926,-7.57142 2.08412,-2.96472 0.36142,-22.07031 1.81259,-24.31954 1.45118,-2.24739 1.36128,-7.89064 1.6328,-9.52527 0.27152,-1.63463 -0.18162,-19.43582 -0.18162,-19.43582 l -0.30638,-20.69619 1.6328,-14.908 c 0,0 1.83644,-11.7158 3.26376,-14.62181 1.42916,-2.90602 1.57593,-7.17515 2.75558,-9.80964 1.17782,-2.63266 2.62899,-5.41576 2.90051,-7.05039 0.27336,-1.63463 1.38329,-3.86001 1.99605,-6.93664 0.61093,-3.07664 0.61093,-5.84689 0.61093,-6.8119 0,-0.965 -0.51002,-2.58863 -0.20365,-3.35916 0.30638,-0.77237 -0.19263,-0.87511 0.77054,-0.77237 0.96317,0.1009 0.477,1.38513 0.96317,2.22538 0.488,0.84025 2.9372,7.44666 2.75558,8.53642 -0.18163,1.08976 3.97742,28.84918 3.87652,29.42708 -0.10274,0.57973 2.01806,35.42257 2.01806,35.42257 l -0.38526,18.98267 c 0,0 -0.34124,2.63266 -0.61276,4.9039 -0.27152,2.27124 1.34843,27.88234 1.54107,28.83633 0.19263,0.954 -0.0899,0.81824 0.49901,2.86199 0.58891,2.04375 1.04206,2.96289 1.13379,4.08567 0.0899,1.12461 0.56689,4.45075 1.45117,5.63224 0.88428,1.17965 2.53909,3.36099 2.72072,4.17739 0.17979,0.81824 -0.54488,1.2035 -0.90813,2.96289 -0.36142,1.75939 7.75304,12.79638 10.0885,13.59076 2.33545,0.79439 5.9166,1.5319 7.34574,1.63464 1.4273,0.10273 4.3297,0.40911 7.5036,0.10273 3.1738,-0.30821 3.4123,-1.57959 3.7169,-2.75924 0.3063,-1.18149 1.2255,-6.81189 0.6127,-7.4485 -0.6127,-0.63478 -2.3354,-4.6544 -3.4692,-5.32403 -1.132,-0.66963 -1.9484,-2.63449 -2.8565,-3.66738 -0.9063,-1.03288 0,-7.80991 -0.3045,-8.35479 -0.3064,-0.54671 1.1209,-21.90153 1.1209,-21.90153 l 0.4091,-30.03983 -0.4091,-20.8448 0.3064,-27.75758 0.3064,-10.76364 c 0,0 0.7485,-8.0374 0.8384,-8.58228 0.092,-0.54488 1.3264,-0.10274 1.7227,-4.803 0.3962,-4.70026 4.9204,-20.4687 6.0762,-21.04843 1.1558,-0.57791 4.5333,-1.64565 5.4396,-3.47291 0.9081,-1.82911 1.7924,-4.37187 2.6308,-6.64128 0.8384,-2.27124 2.5721,-3.33898 2.5721,-5.45061 0,-2.11163 -1.9373,-13.96319 -1.1209,-15.29328 0.8164,-1.32825 1.631,-17.13155 1.631,-17.13155 0,0 3.1628,-10.88655 3.0619,-14.35028 -0.1027,-3.4619 -0.013,-8.05943 -0.976,-9.0813 -0.9632,-1.02188 0.011,-10.40038 -0.2715,-11.24063 -0.2825,-0.84025 -1.1558,-6.60642 -0.488,-8.92353 0.6696,-2.31527 0.3064,-6.63026 0.3064,-8.08327 0,-1.45301 -2.6529,-15.52994 -3.2638,-16.71142 -0.6128,-1.18149 -2.9922,-9.99127 -3.084,-11.44428 -0.09,-1.453 -1.2695,-14.10078 -1.541,-14.81444 -0.2716,-0.7155 -2.6639,-13.02203 -3.3555,-13.61277 -0.6917,-0.59075 -2.4713,-6.08539 -3.2638,-6.35875 -0.7944,-0.27152 -8.9547,-6.81189 -8.9547,-6.81189 l -16.34636,-10.51229 -2.32261,-1.63464 -1.32642,-1.73737 -0.88428,-10.00227 c 0,0 1.29157,-2.83813 2.51708,-5.35888 1.22369,-2.52075 2.44737,-3.13351 2.65101,-4.15539 0.20547,-1.02187 1.17965,-4.08566 1.17965,-4.59752 0,-0.51002 1.88231,-4.1884 2.18685,-7.05039 0.30638,-2.86015 3.07297,-7.19716 2.70971,-9.50142 -0.36325,-2.3061 -0.44214,-5.88175 -1.26954,-7.02838 -0.82741,-1.14663 -5.53134,-8.5034 -6.80089,-8.91251 -1.26955,-0.40912 -2.39232,-3.05279 -7.28889,-3.88203 -4.89656,-0.82924 -2.23271,-0.55588 -2.23271,-0.55588"
         style="fill:#ffffff;fill-opacity:1;fill-rule:nonzero;stroke:none"
         id="path20554" />
      <g
         transform="matrix(1.8346059,0,0,-1.8346059,977.11779,368.01101)"
         id="g20556">
        <path
           id="path20558"
           style="fill:none;stroke:#f5841f;stroke-width:0.25;stroke-linecap:butt;stroke-linejoin:miter;stroke-miterlimit:3;stroke-dasharray:0.756, 0.506;stroke-dashoffset:0;stroke-opacity:1"
           d="M 0,0 C -1.662,0.144 -5.358,0.18 -8.191,-1.866"
           inkscape:connector-curvature="0" />
      </g>
      <g
         transform="matrix(1.8346059,0,0,-1.8346059,959.90605,373.26202)"
         id="g20560">
        <path
           id="path20562"
           style="fill:none;stroke:#f5841f;stroke-width:0.25;stroke-linecap:butt;stroke-linejoin:miter;stroke-miterlimit:3;stroke-dasharray:0.782, 0.532;stroke-dashoffset:0;stroke-opacity:1"
           d="M 0,0 C -2.639,-2.397 -3.143,-3.948 -3.234,-5.222"
           inkscape:connector-curvature="0" />
      </g>
      <g
         transform="matrix(1.8346059,0,0,-1.8346059,953.9566,385.54949)"
         id="g20564">
        <path
           id="path20566"
           style="fill:none;stroke:#f5841f;stroke-width:0.25;stroke-linecap:butt;stroke-linejoin:miter;stroke-miterlimit:3;stroke-dasharray:0.713, 0.463;stroke-dashoffset:0;stroke-opacity:1"
           d="M 0,0 C 0.026,-1.104 0.089,-2.515 0.126,-3.296"
           inkscape:connector-curvature="0" />
      </g>
      <g
         transform="matrix(1.8346059,0,0,-1.8346059,952.66761,395.20428)"
         id="g20568">
        <path
           id="path20570"
           style="fill:none;stroke:#f5841f;stroke-width:0.25;stroke-linecap:butt;stroke-linejoin:miter;stroke-miterlimit:3;stroke-dasharray:0.775, 0.525;stroke-dashoffset:0;stroke-opacity:1"
           d="M 0,0 C 0.021,-0.246 0.062,-0.578 0.132,-1.029"
           inkscape:connector-curvature="0" />
      </g>
      <g
         transform="matrix(1.8346059,0,0,-1.8346059,953.32441,399.63467)"
         id="g20572">
        <path
           id="path20574"
           style="fill:none;stroke:#f5841f;stroke-width:0.25;stroke-linecap:butt;stroke-linejoin:miter;stroke-miterlimit:3;stroke-dasharray:0.67, 0.42;stroke-dashoffset:0;stroke-opacity:1"
           d="M 0,0 C 0.26,-1.631 0.091,-0.971 0.446,-1.907"
           inkscape:connector-curvature="0" />
      </g>
      <g
         transform="matrix(1.8346059,0,0,-1.8346059,954.87061,405.21499)"
         id="g20576">
        <path
           id="path20578"
           style="fill:none;stroke:#f5841f;stroke-width:0.25;stroke-linecap:butt;stroke-linejoin:miter;stroke-miterlimit:3;stroke-dasharray:0.605, 0.355;stroke-dashoffset:0;stroke-opacity:1"
           d="M 0,0 C 0.136,-0.438 0.174,-0.648 0.201,-0.755"
           inkscape:connector-curvature="0" />
      </g>
      <g
         transform="matrix(1.8346059,0,0,-1.8346059,958.57415,411.11068)"
         id="g20580">
        <path
           id="path20582"
           style="fill:none;stroke:#f5841f;stroke-width:0.25;stroke-linecap:butt;stroke-linejoin:miter;stroke-miterlimit:3;stroke-dasharray:0.794, 0.544;stroke-dashoffset:0;stroke-opacity:1"
           d="M 0,0 C 0.024,-0.744 0.065,-1.643 0.092,-2.401"
           inkscape:connector-curvature="0" />
      </g>
      <g
         transform="matrix(1.8346059,0,0,-1.8346059,957.37248,420.62732)"
         id="g20584">
        <path
           id="path20586"
           style="fill:none;stroke:#f5841f;stroke-width:0.25;stroke-linecap:butt;stroke-linejoin:miter;stroke-miterlimit:3;stroke-dasharray:0.792, 0.542;stroke-dashoffset:0;stroke-opacity:1"
           d="M 0,0 C -0.84,-1.109 -2.364,-3.052 -3.19,-3.935"
           inkscape:connector-curvature="0" />
      </g>
      <g
         transform="matrix(1.8346059,0,0,-1.8346059,949.14884,429.2575)"
         id="g20588">
        <path
           id="path20590"
           style="fill:none;stroke:#f5841f;stroke-width:0.25;stroke-linecap:butt;stroke-linejoin:miter;stroke-miterlimit:3;stroke-dasharray:0.742, 0.492;stroke-dashoffset:0;stroke-opacity:1"
           d="M 0,0 C -1.84,-0.713 -6.228,-2.344 -7.874,-2.901"
           inkscape:connector-curvature="0" />
      </g>
      <g
         transform="matrix(1.8346059,0,0,-1.8346059,932.29927,435.12016)"
         id="g20592">
        <path
           id="path20594"
           style="fill:none;stroke:#f5841f;stroke-width:0.25;stroke-linecap:butt;stroke-linejoin:miter;stroke-miterlimit:3;stroke-dasharray:0.654, 0.404;stroke-dashoffset:0;stroke-opacity:1"
           d="M 0,0 C -0.267,-0.027 -0.535,-0.045 -0.851,-0.089"
           inkscape:connector-curvature="0" />
      </g>
      <g
         transform="matrix(1.8346059,0,0,-1.8346059,928.55723,435.73917)"
         id="g20596">
        <path
           id="path20598"
           style="fill:none;stroke:#f5841f;stroke-width:0.25;stroke-linecap:butt;stroke-linejoin:miter;stroke-miterlimit:3;stroke-dasharray:0.625, 0.375;stroke-dashoffset:0;stroke-opacity:1"
           d="M 0,0 C -0.297,-0.081 -0.56,-0.164 -0.775,-0.24"
           inkscape:connector-curvature="0" />
      </g>
      <g
         transform="matrix(1.8346059,0,0,-1.8346059,925.139,437.58991)"
         id="g20600">
        <path
           id="path20602"
           style="fill:none;stroke:#f5841f;stroke-width:0.25;stroke-linecap:butt;stroke-linejoin:miter;stroke-miterlimit:3;stroke-dasharray:0.74, 0.49;stroke-dashoffset:0;stroke-opacity:1"
           d="M 0,0 C -1.078,-1.14 -3.256,-3.682 -4.528,-5.504"
           inkscape:connector-curvature="0" />
      </g>
      <g
         transform="matrix(1.8346059,0,0,-1.8346059,915.35723,450.02982)"
         id="g20604">
        <path
           id="path20606"
           style="fill:none;stroke:#f5841f;stroke-width:0.25;stroke-linecap:butt;stroke-linejoin:miter;stroke-miterlimit:3;stroke-dasharray:0.764, 0.514;stroke-dashoffset:0;stroke-opacity:1"
           d="M 0,0 C -1.263,-2.259 -2.458,-5.628 -3.726,-9.225"
           inkscape:connector-curvature="0" />
      </g>
      <g
         transform="matrix(1.8346059,0,0,-1.8346059,907.58605,469.63552)"
         id="g20608">
        <path
           id="path20610"
           style="fill:none;stroke:#f5841f;stroke-width:0.25;stroke-linecap:butt;stroke-linejoin:miter;stroke-miterlimit:3;stroke-dasharray:0.773, 0.523;stroke-dashoffset:0;stroke-opacity:1"
           d="M 0,0 C -1.367,-4.022 -3.508,-11.137 -4.133,-13.372"
           inkscape:connector-curvature="0" />
      </g>
      <g
         transform="matrix(1.8346059,0,0,-1.8346059,899.23823,496.61689)"
         id="g20612">
        <path
           id="path20614"
           style="fill:none;stroke:#f5841f;stroke-width:0.25;stroke-linecap:butt;stroke-linejoin:miter;stroke-miterlimit:3;stroke-dasharray:0.669, 0.419;stroke-dashoffset:0;stroke-opacity:1"
           d="M 0,0 C -0.242,-0.529 -0.58,-1.085 -0.831,-1.78"
           inkscape:connector-curvature="0" />
      </g>
      <g
         transform="matrix(1.8346059,0,0,-1.8346059,897.02731,502.41131)"
         id="g20616">
        <path
           id="path20618"
           style="fill:none;stroke:#f5841f;stroke-width:0.25;stroke-linecap:butt;stroke-linejoin:miter;stroke-miterlimit:3;stroke-dasharray:0.757, 0.507;stroke-dashoffset:0;stroke-opacity:1"
           d="M 0,0 C -0.33,-1.473 -0.601,-3.839 1.104,-5.715"
           inkscape:connector-curvature="0" />
      </g>
      <g
         transform="matrix(1.8346059,0,0,-1.8346059,901.11941,514.75711)"
         id="g20620">
        <path
           id="path20622"
           style="fill:none;stroke:#f5841f;stroke-width:0.25;stroke-linecap:butt;stroke-linejoin:miter;stroke-miterlimit:3;stroke-dasharray:0.757, 0.507;stroke-dashoffset:0;stroke-opacity:1"
           d="M 0,0 C 2.017,-1.641 4.027,-2.726 5.161,-3.137"
           inkscape:connector-curvature="0" />
      </g>
      <g
         transform="matrix(1.8346059,0,0,-1.8346059,913.18397,521.0498)"
         id="g20624">
        <path
           id="path20626"
           style="fill:none;stroke:#f5841f;stroke-width:0.25;stroke-linecap:butt;stroke-linejoin:miter;stroke-miterlimit:3;stroke-dasharray:0.711, 0.461;stroke-dashoffset:0;stroke-opacity:1"
           d="M 0,0 C 1.245,-0.182 3.337,-0.474 4.421,-0.58"
           inkscape:connector-curvature="0" />
      </g>
      <g
         transform="matrix(1.8346059,0,0,-1.8346059,923.82067,522.41639)"
         id="g20628">
        <path
           id="path20630"
           style="fill:none;stroke:#f5841f;stroke-width:0.25;stroke-linecap:butt;stroke-linejoin:miter;stroke-miterlimit:3;stroke-dasharray:0.702, 0.452;stroke-dashoffset:0;stroke-opacity:1"
           d="M 0,0 C 0.306,-0.083 0.61,-0.198 0.875,-0.309"
           inkscape:connector-curvature="0" />
      </g>
      <g
         transform="matrix(1.8346059,0,0,-1.8346059,927.05177,524.93971)"
         id="g20632">
        <path
           id="path20634"
           style="fill:none;stroke:#f5841f;stroke-width:0.25;stroke-linecap:butt;stroke-linejoin:miter;stroke-miterlimit:3;stroke-dasharray:0.775, 0.525;stroke-dashoffset:0;stroke-opacity:1"
           d="M 0,0 C 0.849,-2.621 2.626,-10.703 1.979,-13.81"
           inkscape:connector-curvature="0" />
      </g>
      <g
         transform="matrix(1.8346059,0,0,-1.8346059,929.61285,552.97285)"
         id="g20636">
        <path
           id="path20638"
           style="fill:none;stroke:#f5841f;stroke-width:0.25;stroke-linecap:butt;stroke-linejoin:miter;stroke-miterlimit:3;stroke-dasharray:0.791, 0.541;stroke-dashoffset:0;stroke-opacity:1"
           d="M 0,0 C -0.812,-1.747 -0.706,-1.44 -1.353,-4.845"
           inkscape:connector-curvature="0" />
      </g>
      <g
         transform="matrix(1.8346059,0,0,-1.8346059,926.61952,564.51877)"
         id="g20640">
        <path
           id="path20642"
           style="fill:none;stroke:#f5841f;stroke-width:0.25;stroke-linecap:butt;stroke-linejoin:miter;stroke-miterlimit:3;stroke-dasharray:0.706, 0.456;stroke-dashoffset:0;stroke-opacity:1"
           d="M 0,0 C -0.678,-3.461 -0.621,-2.77 -0.439,-5.531"
           inkscape:connector-curvature="0" />
      </g>
      <g
         transform="matrix(1.8346059,0,0,-1.8346059,925.94841,577.35918)"
         id="g20644">
        <path
           id="path20646"
           style="fill:none;stroke:#f5841f;stroke-width:0.25;stroke-linecap:butt;stroke-linejoin:miter;stroke-miterlimit:3;stroke-dasharray:0.759, 0.509;stroke-dashoffset:0;stroke-opacity:1"
           d="M 0,0 C 0.143,-4.942 0.001,-21.634 -0.03,-25.101"
           inkscape:connector-curvature="0" />
      </g>
      <g
         transform="matrix(1.8346059,0,0,-1.8346059,925.94696,626.14867)"
         id="g20648">
        <path
           id="path20650"
           style="fill:none;stroke:#f5841f;stroke-width:0.25;stroke-linecap:butt;stroke-linejoin:miter;stroke-miterlimit:3;stroke-dasharray:0.74, 0.49;stroke-dashoffset:0;stroke-opacity:1"
           d="M 0,0 0.495,-12.048"
           inkscape:connector-curvature="0" />
      </g>
      <g
         transform="matrix(1.8346059,0,0,-1.8346059,926.95158,650.86157)"
         id="g20652">
        <path
           id="path20654"
           style="fill:none;stroke:#f5841f;stroke-width:0.25;stroke-linecap:butt;stroke-linejoin:miter;stroke-miterlimit:3;stroke-dasharray:0.705, 0.455;stroke-dashoffset:0;stroke-opacity:1"
           d="M 0,0 C 0.047,-1.329 0.149,-3.988 0.276,-5.566"
           inkscape:connector-curvature="0" />
      </g>
      <g
         transform="matrix(1.8346059,0,0,-1.8346059,927.58839,663.70875)"
         id="g20656">
        <path
           id="path20658"
           style="fill:none;stroke:#f5841f;stroke-width:0.25;stroke-linecap:butt;stroke-linejoin:miter;stroke-miterlimit:3;stroke-dasharray:0.74, 0.49;stroke-dashoffset:0;stroke-opacity:1"
           d="M 0,0 C -0.035,-4.47 -1.079,-23.037 -1.242,-26.775"
           inkscape:connector-curvature="0" />
      </g>
      <g
         transform="matrix(1.8346059,0,0,-1.8346059,925.25769,715.73139)"
         id="g20660">
        <path
           id="path20662"
           style="fill:none;stroke:#f5841f;stroke-width:0.25;stroke-linecap:butt;stroke-linejoin:miter;stroke-miterlimit:3;stroke-dasharray:0.811, 0.561;stroke-dashoffset:0;stroke-opacity:1"
           d="M 0,0 C -0.013,-1.46 -0.037,-3.834 0.027,-5.21"
           inkscape:connector-curvature="0" />
      </g>
      <g
         transform="matrix(1.8346059,0,0,-1.8346059,925.53674,728.20451)"
         id="g20664">
        <path
           id="path20666"
           style="fill:none;stroke:#f5841f;stroke-width:0.25;stroke-linecap:butt;stroke-linejoin:miter;stroke-miterlimit:3;stroke-dasharray:0.772, 0.522;stroke-dashoffset:0;stroke-opacity:1"
           d="M 0,0 C 0.209,-2.878 0.674,-10.993 0.945,-13.935"
           inkscape:connector-curvature="0" />
      </g>
      <g
         transform="matrix(1.8346059,0,0,-1.8346059,927.73497,756.82398)"
         id="g20668">
        <path
           id="path20670"
           style="fill:none;stroke:#f5841f;stroke-width:0.25;stroke-linecap:butt;stroke-linejoin:miter;stroke-miterlimit:3;stroke-dasharray:0.859, 0.609;stroke-dashoffset:0;stroke-opacity:1"
           d="M 0,0 C 0.2,-0.722 0.434,-0.794 0.506,-1.04"
           inkscape:connector-curvature="0" />
      </g>
      <g
         transform="matrix(1.8346059,0,0,-1.8346059,928.30571,761.51085)"
         id="g20672">
        <path
           id="path20674"
           style="fill:none;stroke:#f5841f;stroke-width:0.25;stroke-linecap:butt;stroke-linejoin:miter;stroke-miterlimit:3;stroke-dasharray:0.701, 0.451;stroke-dashoffset:0;stroke-opacity:1"
           d="M 0,0 C -0.05,-0.719 0.068,-1.292 -0.104,-2.072"
           inkscape:connector-curvature="0" />
      </g>
      <g
         transform="matrix(1.8346059,0,0,-1.8346059,927.19174,767.87382)"
         id="g20676">
        <path
           id="path20678"
           style="fill:none;stroke:#f5841f;stroke-width:0.25;stroke-linecap:butt;stroke-linejoin:miter;stroke-miterlimit:3;stroke-dasharray:0.774, 0.524;stroke-dashoffset:0;stroke-opacity:1"
           d="M 0,0 C -0.336,-0.759 -0.676,-1.418 -0.824,-2.176"
           inkscape:connector-curvature="0" />
      </g>
      <g
         transform="matrix(1.8346059,0,0,-1.8346059,925.47289,774.57765)"
         id="g20680">
        <path
           id="path20682"
           style="fill:none;stroke:#f5841f;stroke-width:0.25;stroke-linecap:butt;stroke-linejoin:miter;stroke-miterlimit:3;stroke-dasharray:0.723, 0.473;stroke-dashoffset:0;stroke-opacity:1"
           d="M 0,0 C -0.047,-1.109 -0.057,-2.486 0.427,-3.284"
           inkscape:connector-curvature="0" />
      </g>
      <g
         transform="matrix(1.8346059,0,0,-1.8346059,928.36717,782.35675)"
         id="g20684">
        <path
           id="path20686"
           style="fill:none;stroke:#f5841f;stroke-width:0.25;stroke-linecap:butt;stroke-linejoin:miter;stroke-miterlimit:3;stroke-dasharray:0.774, 0.524;stroke-dashoffset:0;stroke-opacity:1"
           d="M 0,0 C 0.671,-0.468 1.381,-0.961 1.952,-1.28"
           inkscape:connector-curvature="0" />
      </g>
      <g
         transform="matrix(1.8346059,0,0,-1.8346059,934.61363,785.49484)"
         id="g20688">
        <path
           id="path20690"
           style="fill:none;stroke:#f5841f;stroke-width:0.25;stroke-linecap:butt;stroke-linejoin:miter;stroke-miterlimit:3;stroke-dasharray:0.755, 0.505;stroke-dashoffset:0;stroke-opacity:1"
           d="M 0,0 C 1.008,-0.098 2.525,-0.104 3.522,-0.059"
           inkscape:connector-curvature="0" />
      </g>
      <g
         transform="matrix(1.8346059,0,0,-1.8346059,944.07984,785.25396)"
         id="g20692">
        <path
           id="path20694"
           style="fill:none;stroke:#f5841f;stroke-width:0.25;stroke-linecap:butt;stroke-linejoin:miter;stroke-miterlimit:3;stroke-dasharray:0.848, 0.598;stroke-dashoffset:0;stroke-opacity:1"
           d="M 0,0 C 0.389,0.094 0.721,0.249 0.988,0.545"
           inkscape:connector-curvature="0" />
      </g>
      <g
         transform="matrix(1.8346059,0,0,-1.8346059,947.31975,781.27213)"
         id="g20696">
        <path
           id="path20698"
           style="fill:none;stroke:#f5841f;stroke-width:0.25;stroke-linecap:butt;stroke-linejoin:miter;stroke-miterlimit:3;stroke-dasharray:0.893, 0.643;stroke-dashoffset:0;stroke-opacity:1"
           d="M 0,0 C 0.151,0.405 0.279,0.792 0.367,1.157"
           inkscape:connector-curvature="0" />
      </g>
      <g
         transform="matrix(1.8346059,0,0,-1.8346059,948.44546,775.8028)"
         id="g20700">
        <path
           id="path20702"
           style="fill:none;stroke:#f5841f;stroke-width:0.25;stroke-linecap:butt;stroke-linejoin:miter;stroke-miterlimit:3;stroke-dasharray:0.883, 0.633;stroke-dashoffset:0;stroke-opacity:1"
           d="M 0,0 C 0.047,0.378 0.082,0.78 0.052,1.196"
           inkscape:connector-curvature="0" />
      </g>
      <g
         transform="matrix(1.8346059,0,0,-1.8346059,947.93378,770.76093)"
         id="g20704">
        <path
           id="path20706"
           style="fill:none;stroke:#f5841f;stroke-width:0.25;stroke-linecap:butt;stroke-linejoin:miter;stroke-miterlimit:3;stroke-dasharray:0.721, 0.471;stroke-dashoffset:0;stroke-opacity:1"
           d="M 0,0 C -0.077,0.366 -0.122,0.672 -0.167,0.942"
           inkscape:connector-curvature="0" />
      </g>
      <g
         transform="matrix(1.8346059,0,0,-1.8346059,947.71548,766.50666)"
         id="g20708">
        <path
           id="path20710"
           style="fill:none;stroke:#f5841f;stroke-width:0.25;stroke-linecap:butt;stroke-linejoin:miter;stroke-miterlimit:3;stroke-dasharray:0.715, 0.465;stroke-dashoffset:0;stroke-opacity:1"
           d="M 0,0 C 0.309,0.748 0.97,1.83 1.665,2.85"
           inkscape:connector-curvature="0" />
      </g>
      <g
         transform="matrix(1.8346059,0,0,-1.8346059,951.92976,758.93855)"
         id="g20712">
        <path
           id="path20714"
           style="fill:none;stroke:#f5841f;stroke-width:0.25;stroke-linecap:butt;stroke-linejoin:miter;stroke-miterlimit:3;stroke-dasharray:0.733, 0.483;stroke-dashoffset:0;stroke-opacity:1"
           d="M 0,0 C 0.591,2.623 0.113,9.651 0.511,11.888"
           inkscape:connector-curvature="0" />
      </g>
      <g
         transform="matrix(1.8346059,0,0,-1.8346059,953.86452,734.50013)"
         id="g20716">
        <path
           id="path20718"
           style="fill:none;stroke:#f5841f;stroke-width:0.25;stroke-linecap:butt;stroke-linejoin:miter;stroke-miterlimit:3;stroke-dasharray:0.788, 0.538;stroke-dashoffset:0;stroke-opacity:1"
           d="M 0,0 C 0.326,1.128 0.391,2.698 0.461,3.676"
           inkscape:connector-curvature="0" />
      </g>
      <g
         transform="matrix(1.8346059,0,0,-1.8346059,954.90897,724.83983)"
         id="g20720">
        <path
           id="path20722"
           style="fill:none;stroke:#f5841f;stroke-width:0.25;stroke-linecap:butt;stroke-linejoin:miter;stroke-miterlimit:3;stroke-dasharray:0.787, 0.537;stroke-dashoffset:0;stroke-opacity:1"
           d="M 0,0 C 0.031,2.152 -0.082,7.192 -0.125,9.003"
           inkscape:connector-curvature="0" />
      </g>
      <g
         transform="matrix(1.8346059,0,0,-1.8346059,954.62644,705.49868)"
         id="g20724">
        <path
           id="path20726"
           style="fill:none;stroke:#f5841f;stroke-width:0.25;stroke-linecap:butt;stroke-linejoin:miter;stroke-miterlimit:3;stroke-dasharray:0.752, 0.502;stroke-dashoffset:0;stroke-opacity:1"
           d="M 0,0 -0.145,9.777"
           inkscape:connector-curvature="0" />
      </g>
      <g
         transform="matrix(1.8346059,0,0,-1.8346059,954.50664,684.9289)"
         id="g20728">
        <path
           id="path20730"
           style="fill:none;stroke:#f5841f;stroke-width:0.25;stroke-linecap:butt;stroke-linejoin:miter;stroke-miterlimit:3;stroke-dasharray:0.709, 0.459;stroke-dashoffset:0;stroke-opacity:1"
           d="M 0,0 0.738,6.736"
           inkscape:connector-curvature="0" />
      </g>
      <g
         transform="matrix(1.8346059,0,0,-1.8346059,956.21778,670.03154)"
         id="g20732">
        <path
           id="path20734"
           style="fill:none;stroke:#f5841f;stroke-width:0.25;stroke-linecap:butt;stroke-linejoin:miter;stroke-miterlimit:3;stroke-dasharray:0.709, 0.459;stroke-dashoffset:0;stroke-opacity:1"
           d="M 0,0 C 0.262,1.561 0.873,4.994 1.431,6.625"
           inkscape:connector-curvature="0" />
      </g>
      <g
         transform="matrix(1.8346059,0,0,-1.8346059,959.89798,655.20829)"
         id="g20736">
        <path
           id="path20738"
           style="fill:none;stroke:#f5841f;stroke-width:0.25;stroke-linecap:butt;stroke-linejoin:miter;stroke-miterlimit:3;stroke-dasharray:0.821, 0.571;stroke-dashoffset:0;stroke-opacity:1"
           d="M 0,0 C 0.387,1.224 0.556,2.656 0.902,3.782"
           inkscape:connector-curvature="0" />
      </g>
      <g
         transform="matrix(1.8346059,0,0,-1.8346059,962.74419,645.44212)"
         id="g20740">
        <path
           id="path20742"
           style="fill:none;stroke:#f5841f;stroke-width:0.25;stroke-linecap:butt;stroke-linejoin:miter;stroke-miterlimit:3;stroke-dasharray:0.819, 0.569;stroke-dashoffset:0;stroke-opacity:1"
           d="M 0,0 C 0.385,0.828 0.766,1.634 0.992,2.285"
           inkscape:connector-curvature="0" />
      </g>
      <g
         transform="matrix(1.8346059,0,0,-1.8346059,965.33081,638.39009)"
         id="g20744">
        <path
           id="path20746"
           style="fill:none;stroke:#f5841f;stroke-width:0.25;stroke-linecap:butt;stroke-linejoin:miter;stroke-miterlimit:3;stroke-dasharray:0.781, 0.531;stroke-dashoffset:0;stroke-opacity:1"
           d="M 0,0 C 0.203,0.624 0.483,1.365 0.706,2.251"
           inkscape:connector-curvature="0" />
      </g>
      <g
         transform="matrix(1.8346059,0,0,-1.8346059,967.1599,631.51142)"
         id="g20748">
        <path
           id="path20750"
           style="fill:none;stroke:#f5841f;stroke-width:0.25;stroke-linecap:butt;stroke-linejoin:miter;stroke-miterlimit:3;stroke-dasharray:0.747, 0.497;stroke-dashoffset:0;stroke-opacity:1"
           d="M 0,0 C 0.126,0.887 0.168,1.678 0.181,2.232"
           inkscape:connector-curvature="0" />
      </g>
      <g
         transform="matrix(1.8346059,0,0,-1.8346059,969.66011,625.8113)"
         id="g20752">
        <path
           id="path20754"
           style="fill:none;stroke:#f5841f;stroke-width:0.25;stroke-linecap:butt;stroke-linejoin:miter;stroke-miterlimit:3;stroke-dasharray:0.739, 0.489;stroke-dashoffset:0;stroke-opacity:1"
           d="M 0,0 C 0.364,-0.925 0.882,-2.399 1.082,-3.261"
           inkscape:connector-curvature="0" />
      </g>
      <g
         transform="matrix(1.8346059,0,0,-1.8346059,971.91173,634.49686)"
         id="g20756">
        <path
           id="path20758"
           style="fill:none;stroke:#f5841f;stroke-width:0.25;stroke-linecap:butt;stroke-linejoin:miter;stroke-miterlimit:3;stroke-dasharray:0.747, 0.497;stroke-dashoffset:0;stroke-opacity:1"
           d="M 0,0 C 0.324,-2.901 1.676,-12.073 1.984,-14.554"
           inkscape:connector-curvature="0" />
      </g>
      <g
         transform="matrix(1.8346059,0,0,-1.8346059,975.72129,663.99037)"
         id="g20760">
        <path
           id="path20762"
           style="fill:none;stroke:#f5841f;stroke-width:0.25;stroke-linecap:butt;stroke-linejoin:miter;stroke-miterlimit:3;stroke-dasharray:0.77, 0.52;stroke-dashoffset:0;stroke-opacity:1"
           d="M 0,0 C 0.159,-3.34 0.857,-14.901 1.03,-17.76"
           inkscape:connector-curvature="0" />
      </g>
      <g
         transform="matrix(1.8346059,0,0,-1.8346059,977.64926,699.41879)"
         id="g20764">
        <path
           id="path20766"
           style="fill:none;stroke:#f5841f;stroke-width:0.25;stroke-linecap:butt;stroke-linejoin:miter;stroke-miterlimit:3;stroke-dasharray:0.772, 0.522;stroke-dashoffset:0;stroke-opacity:1"
           d="M 0,0 -0.179,-8.793"
           inkscape:connector-curvature="0" />
      </g>
      <g
         transform="matrix(1.8346059,0,0,-1.8346059,977.07797,718.46109)"
         id="g20768">
        <path
           id="path20770"
           style="fill:none;stroke:#f5841f;stroke-width:0.25;stroke-linecap:butt;stroke-linejoin:miter;stroke-miterlimit:3;stroke-dasharray:0.799, 0.549;stroke-dashoffset:0;stroke-opacity:1"
           d="M 0,0 C -0.04,-0.317 -0.086,-0.687 -0.133,-1.065"
           inkscape:connector-curvature="0" />
      </g>
      <g
         transform="matrix(1.8346059,0,0,-1.8346059,976.66022,723.19162)"
         id="g20772">
        <path
           id="path20774"
           style="fill:none;stroke:#f5841f;stroke-width:0.25;stroke-linecap:butt;stroke-linejoin:miter;stroke-miterlimit:3;stroke-dasharray:0.731, 0.481;stroke-dashoffset:0;stroke-opacity:1"
           d="M 0,0 C 0.046,-2.921 0.599,-11.839 0.795,-14.27"
           inkscape:connector-curvature="0" />
      </g>
      <g
         transform="matrix(1.8346059,0,0,-1.8346059,979.16172,754.75179)"
         id="g20776">
        <path
           id="path20778"
           style="fill:none;stroke:#f5841f;stroke-width:0.25;stroke-linecap:butt;stroke-linejoin:miter;stroke-miterlimit:3;stroke-dasharray:0.704, 0.454;stroke-dashoffset:0;stroke-opacity:1"
           d="M 0,0 C 0.115,-0.352 0.21,-0.631 0.278,-0.888"
           inkscape:connector-curvature="0" />
      </g>
      <g
         transform="matrix(1.8346059,0,0,-1.8346059,980.02269,758.76683)"
         id="g20780">
        <path
           id="path20782"
           style="fill:none;stroke:#f5841f;stroke-width:0.25;stroke-linecap:butt;stroke-linejoin:miter;stroke-miterlimit:3;stroke-dasharray:0.658, 0.408;stroke-dashoffset:0;stroke-opacity:1"
           d="M 0,0 C 0.089,-0.587 0.24,-1.332 0.454,-1.868"
           inkscape:connector-curvature="0" />
      </g>
      <g
         transform="matrix(1.8346059,0,0,-1.8346059,982.35979,764.47171)"
         id="g20784">
        <path
           id="path20786"
           style="fill:none;stroke:#f5841f;stroke-width:0.25;stroke-linecap:butt;stroke-linejoin:miter;stroke-miterlimit:3;stroke-dasharray:0.807, 0.557;stroke-dashoffset:0;stroke-opacity:1"
           d="M 0,0 C 0.219,-0.303 0.441,-0.62 0.611,-0.896"
           inkscape:connector-curvature="0" />
      </g>
      <g
         transform="matrix(1.8346059,0,0,-1.8346059,983.61724,771.83143)"
         id="g20788">
        <path
           id="path20790"
           style="fill:none;stroke:#f5841f;stroke-width:0.25;stroke-linecap:butt;stroke-linejoin:miter;stroke-miterlimit:3;stroke-dasharray:0.794, 0.544;stroke-dashoffset:0;stroke-opacity:1"
           d="M 0,0 C 0.828,-1.697 3.318,-5.026 4.67,-6.156"
           inkscape:connector-curvature="0" />
      </g>
      <g
         transform="matrix(1.8346059,0,0,-1.8346059,994.90556,784.29979)"
         id="g20792">
        <path
           id="path20794"
           style="fill:none;stroke:#f5841f;stroke-width:0.25;stroke-linecap:butt;stroke-linejoin:miter;stroke-miterlimit:3;stroke-dasharray:0.81, 0.56;stroke-dashoffset:0;stroke-opacity:1"
           d="M 0,0 C 0.823,-0.224 1.729,-0.418 2.401,-0.526"
           inkscape:connector-curvature="0" />
      </g>
      <g
         transform="matrix(1.8346059,0,0,-1.8346059,1002.3163,785.55484)"
         id="g20796">
        <path
           id="path20798"
           style="fill:none;stroke:#f5841f;stroke-width:0.25;stroke-linecap:butt;stroke-linejoin:miter;stroke-miterlimit:3;stroke-dasharray:0.808, 0.558;stroke-dashoffset:0;stroke-opacity:1"
           d="M 0,0 C 0.672,-0.045 1.526,-0.081 2.45,-0.034"
           inkscape:connector-curvature="0" />
      </g>
      <g
         transform="matrix(1.8346059,0,0,-1.8346059,1009.8132,785.17563)"
         id="g20800">
        <path
           id="path20802"
           style="fill:none;stroke:#f5841f;stroke-width:0.25;stroke-linecap:butt;stroke-linejoin:miter;stroke-miterlimit:3;stroke-dasharray:0.818, 0.568;stroke-dashoffset:0;stroke-opacity:1"
           d="M 0,0 C 0.466,0.162 0.705,0.398 0.848,0.66"
           inkscape:connector-curvature="0" />
      </g>
      <g
         transform="matrix(1.8346059,0,0,-1.8346059,1012.1175,781.02685)"
         id="g20804">
        <path
           id="path20806"
           style="fill:none;stroke:#f5841f;stroke-width:0.25;stroke-linecap:butt;stroke-linejoin:miter;stroke-miterlimit:3;stroke-dasharray:0.811, 0.561;stroke-dashoffset:0;stroke-opacity:1"
           d="M 0,0 C 0.127,0.767 0.259,1.78 0.261,2.446"
           inkscape:connector-curvature="0" />
      </g>
      <g
         transform="matrix(1.8346059,0,0,-1.8346059,1011.6107,774.05975)"
         id="g20808">
        <path
           id="path20810"
           style="fill:none;stroke:#f5841f;stroke-width:0.25;stroke-linecap:butt;stroke-linejoin:miter;stroke-miterlimit:3;stroke-dasharray:0.706, 0.456;stroke-dashoffset:0;stroke-opacity:1"
           d="M 0,0 C -0.308,0.563 -0.702,1.323 -1.061,1.804"
           inkscape:connector-curvature="0" />
      </g>
      <g
         transform="matrix(1.8346059,0,0,-1.8346059,1007.777,768.83551)"
         id="g20812">
        <path
           id="path20814"
           style="fill:none;stroke:#f5841f;stroke-width:0.25;stroke-linecap:butt;stroke-linejoin:miter;stroke-miterlimit:3;stroke-dasharray:0.763, 0.513;stroke-dashoffset:0;stroke-opacity:1"
           d="M 0,0 C -0.195,0.269 -0.376,0.575 -0.557,0.853"
           inkscape:connector-curvature="0" />
      </g>
      <g
         transform="matrix(1.8346059,0,0,-1.8346059,1005.6974,764.92596)"
         id="g20816">
        <path
           id="path20818"
           style="fill:none;stroke:#f5841f;stroke-width:0.25;stroke-linecap:butt;stroke-linejoin:miter;stroke-miterlimit:3;stroke-dasharray:0.7, 0.45;stroke-dashoffset:0;stroke-opacity:1"
           d="M 0,0 C -0.078,0.929 0.046,2.405 0.067,3.22"
           inkscape:connector-curvature="0" />
      </g>
      <g
         transform="matrix(1.8346059,0,0,-1.8346059,1005.7288,756.44385)"
         id="g20820">
        <path
           id="path20822"
           style="fill:none;stroke:#f5841f;stroke-width:0.25;stroke-linecap:butt;stroke-linejoin:miter;stroke-miterlimit:3;stroke-dasharray:0.723, 0.473;stroke-dashoffset:0;stroke-opacity:1"
           d="M 0,0 C 0.057,2.278 0.46,8.545 0.589,10.508"
           inkscape:connector-curvature="0" />
      </g>
      <g
         transform="matrix(1.8346059,0,0,-1.8346059,1006.8929,734.46583)"
         id="g20824">
        <path
           id="path20826"
           style="fill:none;stroke:#f5841f;stroke-width:0.25;stroke-linecap:butt;stroke-linejoin:miter;stroke-miterlimit:3;stroke-dasharray:0.75, 0.5;stroke-dashoffset:0;stroke-opacity:1"
           d="M 0,0 0.323,47.233"
           inkscape:connector-curvature="0" />
      </g>
      <g
         transform="matrix(1.8346059,0,0,-1.8346059,1007.6341,645.16914)"
         id="g20828">
        <path
           id="path20830"
           style="fill:none;stroke:#f5841f;stroke-width:0.25;stroke-linecap:butt;stroke-linejoin:miter;stroke-miterlimit:3;stroke-dasharray:0.713, 0.463;stroke-dashoffset:0;stroke-opacity:1"
           d="M 0,0 C 0.088,0.935 0.231,2.446 0.316,3.279"
           inkscape:connector-curvature="0" />
      </g>
      <g
         transform="matrix(1.8346059,0,0,-1.8346059,1009.4089,636.60538)"
         id="g20832">
        <path
           id="path20834"
           style="fill:none;stroke:#f5841f;stroke-width:0.25;stroke-linecap:butt;stroke-linejoin:miter;stroke-miterlimit:3;stroke-dasharray:0.841, 0.591;stroke-dashoffset:0;stroke-opacity:1"
           d="M 0,0 C 0.101,0.249 0.197,0.599 0.272,1.101"
           inkscape:connector-curvature="0" />
      </g>
      <g
         transform="matrix(1.8346059,0,0,-1.8346059,1010.2583,631.75708)"
         id="g20836">
        <path
           id="path20838"
           style="fill:none;stroke:#f5841f;stroke-width:0.25;stroke-linecap:butt;stroke-linejoin:miter;stroke-miterlimit:3;stroke-dasharray:0.725, 0.475;stroke-dashoffset:0;stroke-opacity:1"
           d="M 0,0 C 0.46,2.763 2.07,8.425 2.878,10.145"
           inkscape:connector-curvature="0" />
      </g>
      <g
         transform="matrix(1.8346059,0,0,-1.8346059,1017.5316,611.61971)"
         id="g20840">
        <path
           id="path20842"
           style="fill:none;stroke:#f5841f;stroke-width:0.25;stroke-linecap:butt;stroke-linejoin:miter;stroke-miterlimit:3;stroke-dasharray:0.722, 0.472;stroke-dashoffset:0;stroke-opacity:1"
           d="M 0,0 C 0.608,0.261 1.363,0.615 1.845,1.086"
           inkscape:connector-curvature="0" />
      </g>
      <g
         transform="matrix(1.8346059,0,0,-1.8346059,1022.2617,607.2339)"
         id="g20844">
        <path
           id="path20846"
           style="fill:none;stroke:#f5841f;stroke-width:0.25;stroke-linecap:butt;stroke-linejoin:miter;stroke-miterlimit:3;stroke-dasharray:0.774, 0.524;stroke-dashoffset:0;stroke-opacity:1"
           d="M 0,0 C 0.284,0.677 0.563,1.439 0.834,2.181"
           inkscape:connector-curvature="0" />
      </g>
      <g
         transform="matrix(1.8346059,0,0,-1.8346059,1024.8118,600.84471)"
         id="g20848">
        <path
           id="path20850"
           style="fill:none;stroke:#f5841f;stroke-width:0.25;stroke-linecap:butt;stroke-linejoin:miter;stroke-miterlimit:3;stroke-dasharray:0.68, 0.43;stroke-dashoffset:0;stroke-opacity:1"
           d="M 0,0 C 0.372,0.635 0.819,1.113 0.994,1.73"
           inkscape:connector-curvature="0" />
      </g>
      <g
         transform="matrix(1.8346059,0,0,-1.8346059,1026.6609,595.13669)"
         id="g20852">
        <path
           id="path20854"
           style="fill:none;stroke:#f5841f;stroke-width:0.25;stroke-linecap:butt;stroke-linejoin:miter;stroke-miterlimit:3;stroke-dasharray:0.724, 0.474;stroke-dashoffset:0;stroke-opacity:1"
           d="M 0,0 C -0.185,1.78 -0.714,5.431 -0.654,6.917"
           inkscape:connector-curvature="0" />
      </g>
      <g
         transform="matrix(1.8346059,0,0,-1.8346059,1026.0139,579.92176)"
         id="g20856">
        <path
           id="path20858"
           style="fill:none;stroke:#f5841f;stroke-width:0.25;stroke-linecap:butt;stroke-linejoin:miter;stroke-miterlimit:3;stroke-dasharray:0.712, 0.462;stroke-dashoffset:0;stroke-opacity:1"
           d="M 0,0 C 0.301,1.873 0.571,6.353 0.661,7.961"
           inkscape:connector-curvature="0" />
      </g>
      <g
         transform="matrix(1.8346059,0,0,-1.8346059,1027.7511,562.58235)"
         id="g20860">
        <path
           id="path20862"
           style="fill:none;stroke:#f5841f;stroke-width:0.25;stroke-linecap:butt;stroke-linejoin:miter;stroke-miterlimit:3;stroke-dasharray:0.793, 0.543;stroke-dashoffset:0;stroke-opacity:1"
           d="M 0,0 C 0.415,1.51 1.21,4.545 1.382,6.251"
           inkscape:connector-curvature="0" />
      </g>
      <g
         transform="matrix(1.8346059,0,0,-1.8346059,1030.3083,548.27662)"
         id="g20864">
        <path
           id="path20866"
           style="fill:none;stroke:#f5841f;stroke-width:0.25;stroke-linecap:butt;stroke-linejoin:miter;stroke-miterlimit:3;stroke-dasharray:0.753, 0.503;stroke-dashoffset:0;stroke-opacity:1"
           d="M 0,0 C -0.025,1.3 -0.049,2.698 -0.255,3.503"
           inkscape:connector-curvature="0" />
      </g>
      <g
         transform="matrix(1.8346059,0,0,-1.8346059,1028.9964,539.29129)"
         id="g20868">
        <path
           id="path20870"
           style="fill:none;stroke:#f5841f;stroke-width:0.25;stroke-linecap:butt;stroke-linejoin:miter;stroke-miterlimit:3;stroke-dasharray:0.742, 0.492;stroke-dashoffset:0;stroke-opacity:1"
           d="M 0,0 C -0.104,1.263 0.063,3.564 0.083,4.685"
           inkscape:connector-curvature="0" />
      </g>
      <g
         transform="matrix(1.8346059,0,0,-1.8346059,1028.7902,528.02847)"
         id="g20872">
        <path
           id="path20874"
           style="fill:none;stroke:#f5841f;stroke-width:0.25;stroke-linecap:butt;stroke-linejoin:miter;stroke-miterlimit:3;stroke-dasharray:0.738, 0.488;stroke-dashoffset:0;stroke-opacity:1"
           d="M 0,0 C -0.146,0.936 -0.298,2.407 -0.202,3.421"
           inkscape:connector-curvature="0" />
      </g>
      <g
         transform="matrix(1.8346059,0,0,-1.8346059,1028.8759,519.26492)"
         id="g20876">
        <path
           id="path20878"
           style="fill:none;stroke:#f5841f;stroke-width:0.25;stroke-linecap:butt;stroke-linejoin:miter;stroke-miterlimit:3;stroke-dasharray:0.678, 0.428;stroke-dashoffset:0;stroke-opacity:1"
           d="M 0,0 C 0.123,1.012 0.067,2.285 0.037,3.101"
           inkscape:connector-curvature="0" />
      </g>
      <g
         transform="matrix(1.8346059,0,0,-1.8346059,1028.7122,510.86407)"
         id="g20880">
        <path
           id="path20882"
           style="fill:none;stroke:#f5841f;stroke-width:0.25;stroke-linecap:butt;stroke-linejoin:miter;stroke-miterlimit:3;stroke-dasharray:0.789, 0.539;stroke-dashoffset:0;stroke-opacity:1"
           d="M 0,0 C -0.288,1.885 -1.062,5.942 -1.472,7.55"
           inkscape:connector-curvature="0" />
      </g>
      <g
         transform="matrix(1.8346059,0,0,-1.8346059,1025.0865,494.28566)"
         id="g20884">
        <path
           id="path20886"
           style="fill:none;stroke:#f5841f;stroke-width:0.25;stroke-linecap:butt;stroke-linejoin:miter;stroke-miterlimit:3;stroke-dasharray:0.772, 0.522;stroke-dashoffset:0;stroke-opacity:1"
           d="M 0,0 C -0.406,1.28 -1.018,3.568 -1.265,4.747"
           inkscape:connector-curvature="0" />
      </g>
      <g
         transform="matrix(1.8346059,0,0,-1.8346059,1022.4261,482.66488)"
         id="g20888">
        <path
           id="path20890"
           style="fill:none;stroke:#f5841f;stroke-width:0.25;stroke-linecap:butt;stroke-linejoin:miter;stroke-miterlimit:3;stroke-dasharray:0.802, 0.552;stroke-dashoffset:0;stroke-opacity:1"
           d="M 0,0 C -0.149,1.691 -0.469,5.023 -0.653,6.459"
           inkscape:connector-curvature="0" />
      </g>
      <g
         transform="matrix(1.8346059,0,0,-1.8346059,1020.6493,467.99483)"
         id="g20892">
        <path
           id="path20894"
           style="fill:none;stroke:#f5841f;stroke-width:0.25;stroke-linecap:butt;stroke-linejoin:miter;stroke-miterlimit:3;stroke-dasharray:0.763, 0.513;stroke-dashoffset:0;stroke-opacity:1"
           d="M 0,0 C -0.337,1.537 -0.982,4.656 -1.381,5.964"
           inkscape:connector-curvature="0" />
      </g>
      <g
         transform="matrix(1.8346059,0,0,-1.8346059,1016.8632,454.50994)"
         id="g20896">
        <path
           id="path20898"
           style="fill:none;stroke:#f5841f;stroke-width:0.25;stroke-linecap:butt;stroke-linejoin:miter;stroke-miterlimit:3;stroke-dasharray:0.779, 0.529;stroke-dashoffset:0;stroke-opacity:1"
           d="M 0,0 C -0.297,0.666 -0.655,1.581 -0.953,2.149"
           inkscape:connector-curvature="0" />
      </g>
      <g
         transform="matrix(1.8346059,0,0,-1.8346059,1013.0979,448.75331)"
         id="g20900">
        <path
           id="path20902"
           style="fill:none;stroke:#f5841f;stroke-width:0.25;stroke-linecap:butt;stroke-linejoin:miter;stroke-miterlimit:3;stroke-dasharray:0.739, 0.489;stroke-dashoffset:0;stroke-opacity:1"
           d="M 0,0 C -1.023,0.746 -2.828,2.174 -3.687,2.857"
           inkscape:connector-curvature="0" />
      </g>
      <g
         transform="matrix(1.8346059,0,0,-1.8346059,1004.1496,441.96031)"
         id="g20904">
        <path
           id="path20906"
           style="fill:none;stroke:#f5841f;stroke-width:0.25;stroke-linecap:butt;stroke-linejoin:miter;stroke-miterlimit:3;stroke-dasharray:0.732, 0.482;stroke-dashoffset:0;stroke-opacity:1"
           d="M 0,0 -8.956,5.828"
           inkscape:connector-curvature="0" />
      </g>
      <g
         transform="matrix(1.8346059,0,0,-1.8346059,985.30306,427.16275)"
         id="g20908">
        <path
           id="path20910"
           style="fill:none;stroke:#f5841f;stroke-width:0.25;stroke-linecap:butt;stroke-linejoin:miter;stroke-miterlimit:3;stroke-dasharray:0.809, 0.559;stroke-dashoffset:0;stroke-opacity:1"
           d="M 0,0 -0.337,3.81"
           inkscape:connector-curvature="0" />
      </g>
      <g
         transform="matrix(1.8346059,0,0,-1.8346059,985.1449,417.68151)"
         id="g20912">
        <path
           id="path20914"
           style="fill:none;stroke:#f5841f;stroke-width:0.25;stroke-linecap:butt;stroke-linejoin:miter;stroke-miterlimit:3;stroke-dasharray:0.663, 0.413;stroke-dashoffset:0;stroke-opacity:1"
           d="M 0,0 C 0.214,0.463 0.515,1.109 0.827,1.76"
           inkscape:connector-curvature="0" />
      </g>
      <g
         transform="matrix(1.8346059,0,0,-1.8346059,987.95553,412.05037)"
         id="g20916">
        <path
           id="path20918"
           style="fill:none;stroke:#f5841f;stroke-width:0.25;stroke-linecap:butt;stroke-linejoin:miter;stroke-miterlimit:3;stroke-dasharray:0.8, 0.55;stroke-dashoffset:0;stroke-opacity:1"
           d="M 0,0 C 0.25,0.373 0.479,0.632 0.654,0.853"
           inkscape:connector-curvature="0" />
      </g>
      <g
         transform="matrix(1.8346059,0,0,-1.8346059,990.16218,407.79535)"
         id="g20920">
        <path
           id="path20922"
           style="fill:none;stroke:#f5841f;stroke-width:0.25;stroke-linecap:butt;stroke-linejoin:miter;stroke-miterlimit:3;stroke-dasharray:0.772, 0.522;stroke-dashoffset:0;stroke-opacity:1"
           d="M 0,0 C 0.094,0.335 0.197,0.696 0.277,0.996"
           inkscape:connector-curvature="0" />
      </g>
      <g
         transform="matrix(1.8346059,0,0,-1.8346059,991.50622,403.1784)"
         id="g20924">
        <path
           id="path20926"
           style="fill:none;stroke:#f5841f;stroke-width:0.25;stroke-linecap:butt;stroke-linejoin:miter;stroke-miterlimit:3;stroke-dasharray:0.798, 0.548;stroke-dashoffset:0;stroke-opacity:1"
           d="M 0,0 C 0.248,0.622 0.579,1.474 0.762,2.291"
           inkscape:connector-curvature="0" />
      </g>
      <g
         transform="matrix(1.8346059,0,0,-1.8346059,993.49329,396.05444)"
         id="g20928">
        <path
           id="path20930"
           style="fill:none;stroke:#f5841f;stroke-width:0.25;stroke-linecap:butt;stroke-linejoin:miter;stroke-miterlimit:3;stroke-dasharray:0.803, 0.553;stroke-dashoffset:0;stroke-opacity:1"
           d="M 0,0 C 0.366,1.177 1.07,2.55 1.245,3.576"
           inkscape:connector-curvature="0" />
      </g>
      <g
         transform="matrix(1.8346059,0,0,-1.8346059,995.60949,386.58915)"
         id="g20932">
        <path
           id="path20934"
           style="fill:none;stroke:#f5841f;stroke-width:0.25;stroke-linecap:butt;stroke-linejoin:miter;stroke-miterlimit:3;stroke-dasharray:0.778, 0.528;stroke-dashoffset:0;stroke-opacity:1"
           d="M 0,0 C -0.087,0.812 -0.165,1.701 -0.329,2.322"
           inkscape:connector-curvature="0" />
      </g>
      <g
         transform="matrix(1.8346059,0,0,-1.8346059,993.66371,379.92771)"
         id="g20936">
        <path
           id="path20938"
           style="fill:none;stroke:#f5841f;stroke-width:0.25;stroke-linecap:butt;stroke-linejoin:miter;stroke-miterlimit:3;stroke-dasharray:0.739, 0.489;stroke-dashoffset:0;stroke-opacity:1"
           d="M 0,0 C -0.722,1.074 -1.985,2.952 -2.751,3.765"
           inkscape:connector-curvature="0" />
      </g>
      <g
         transform="matrix(1.8346059,0,0,-1.8346059,986.56618,371.47897)"
         id="g20940">
        <path
           id="path20942"
           style="fill:none;stroke:#f5841f;stroke-width:0.25;stroke-linecap:butt;stroke-linejoin:miter;stroke-miterlimit:3;stroke-dasharray:0.697, 0.447;stroke-dashoffset:0;stroke-opacity:1"
           d="M 0,0 C -0.524,0.473 -1.267,1.173 -2.768,1.544"
           inkscape:connector-curvature="0" />
      </g>
      <g
         transform="matrix(1.8346059,0,0,-1.8346059,979.18813,368.21429)"
         id="g20944">
        <path
           id="path20946"
           style="fill:none;stroke:#f5841f;stroke-width:0.25;stroke-linecap:butt;stroke-linejoin:miter;stroke-miterlimit:3;stroke-dasharray:0.636, 0.386;stroke-dashoffset:0;stroke-opacity:1"
           d="M 0,0 C -0.442,0.079 -0.689,0.129 -0.813,0.16"
           inkscape:connector-curvature="0" />
      </g>
      <path
         inkscape:connector-curvature="0"
         d="m 978.72581,368.20769 c 0,0 -0.24584,-0.044 -0.68614,-0.0991 m -16.32066,3.60317 c -0.18346,0.13943 -0.36325,0.2862 -0.53937,0.4348 -0.18713,0.15777 -0.36692,0.31372 -0.54488,0.46782 m -6.68714,10.7141 c -0.009,0.244 -0.011,0.4825 -0.011,0.71733 0,0.20181 0.002,0.42196 0.004,0.65312 m 0.26969,7.32191 c 0.0202,0.40912 0.033,0.65312 0.033,0.65312 v 0.87328 c 0,0 -0.88061,-0.20181 -1.14296,0.21648 -0.13759,0.21832 -0.37792,-0.0128 -0.4458,0.47883 m 0.33022,3.32431 c 0.0349,0.22015 0.0734,0.45315 0.11558,0.70082 0.0367,0.21648 0.0697,0.41829 0.10091,0.60725 m 1.07691,4.61954 c 0.0624,0.16878 0.13209,0.36142 0.20915,0.5779 0.066,0.18713 0.12658,0.36142 0.18162,0.5247 m 0.7632,2.23822 c 0.0972,0.0293 0.25317,0.0624 0.5247,0.17979 0.23299,0.0991 0.39444,0.17979 0.51369,0.24217 m 0.63293,0.20547 c 0.12292,-0.006 0.29721,-0.0202 0.5669,-0.0385 0.40545,-0.0294 0.6311,-0.009 0.75586,0.1064 m 0.12842,1.07325 c -0.007,0.22015 -0.0147,0.47883 -0.0147,0.78154 0,0.21648 0.002,0.46232 0.007,0.72834 m 0.21098,5.90009 c 0.009,0.25685 0.0165,0.50085 0.0202,0.72834 0.007,0.31555 0.0202,0.56873 0.0349,0.7742 m 0.011,1.08059 c -0.0624,0.13576 -0.1908,0.29537 -0.4293,0.64578 -0.0807,0.11741 -0.22749,0.32105 -0.42563,0.58891 m -6.79355,8.37314 c -0.24583,0.24216 -0.43847,0.40544 -0.55772,0.46232 -0.0954,0.0459 -0.31188,0.13576 -0.62927,0.26051 m -15.7134,5.79552 c -0.31188,0.1009 -0.5357,0.16879 -0.65128,0.19447 -0.20548,0.0459 -0.39995,0.0807 -0.58891,0.11191 m -2.66201,0.30821 c -0.18713,0.0312 -0.38344,0.066 -0.59075,0.10825 -0.1908,0.0404 -0.37793,0.0807 -0.55955,0.12475 m -2.41067,0.72467 c -0.21649,0.0807 -0.39628,0.15227 -0.53387,0.20914 -0.0752,0.0312 -0.25318,0.1853 -0.51186,0.44214 m -9.1877,11.11038 c -0.1321,0.19263 -0.25868,0.3816 -0.3761,0.56506 -0.12475,0.19079 -0.24767,0.38893 -0.37242,0.59257 m -7.46502,18.18278 c -0.0789,0.22016 -0.15594,0.44031 -0.23299,0.66046 -0.077,0.21648 -0.15411,0.43847 -0.23483,0.66963 m -8.0209,25.9028 c -0.0881,0.32289 -0.1486,0.55589 -0.17795,0.68615 -0.044,0.19813 -0.10091,0.39444 -0.17062,0.5889 m -1.93735,4.34068 c -0.0605,0.18897 -0.11741,0.38527 -0.17061,0.58891 -0.0514,0.19814 -0.11008,0.42379 -0.17429,0.67147 m 2.12814,11.7268 c 0.15961,0.16144 0.3284,0.31922 0.50635,0.47516 0.17429,0.15411 0.34858,0.30454 0.5247,0.45498 m 10.6242,6.49818 c 0.26052,0.0807 0.48617,0.13576 0.6733,0.16511 0.16512,0.0257 0.38344,0.0605 0.64395,0.0991 m 9.37117,1.22735 c 0.28069,0.0239 0.50268,0.0367 0.65128,0.0367 0.20548,0 0.42013,0.0183 0.64028,0.0514 m 2.79777,0.9063 c 0.22199,0.0991 0.42013,0.1908 0.58524,0.26785 0.0789,0.0367 0.19447,0.25134 0.3394,0.61643 m 3.838,26.71186 c -0.0697,0.24584 -0.1486,0.46966 -0.2385,0.66963 -0.10641,0.23299 -0.20731,0.45315 -0.30087,0.65862 m -2.99225,10.27747 c -0.0422,0.22749 -0.0881,0.46599 -0.13576,0.71182 -0.0422,0.21832 -0.0826,0.43114 -0.12292,0.63661 m -0.93748,11.38557 c 0.0128,0.20547 0.0275,0.42195 0.0404,0.64761 0.0128,0.20181 0.0239,0.43297 0.0349,0.69532 m -0.0275,47.45024 c -0.005,0.45132 -0.007,0.69532 -0.007,0.69532 l 0.0275,0.6788 m 0.965,23.45177 0.0275,0.6788 c 0,0 0.007,0.23483 0.022,0.64579 m 0.56873,11.46078 c 0.0202,0.23299 0.0422,0.44764 0.0624,0.64395 0.0165,0.1486 0.0257,0.37792 0.0312,0.6788 m -2.29509,50.46817 c -0.0147,0.33574 -0.022,0.5669 -0.022,0.67881 0,0.19997 0,0.45131 -0.002,0.74301 m 0.0697,11.10304 c 0.0165,0.28253 0.0385,0.53203 0.0624,0.74118 0.0165,0.15961 0.0385,0.39811 0.0642,0.70632 m 1.85295,26.99623 c 0.0257,0.26602 0.0514,0.50268 0.0752,0.70265 0.0349,0.2862 0.0716,0.54488 0.11008,0.78154 m 1.18515,3.55547 c -0.022,0.19997 -0.0716,0.44948 -0.15227,0.77237 -0.055,0.21832 -0.0972,0.42746 -0.13209,0.62927 m -0.3871,5.02498 c -0.0532,0.19631 -0.11925,0.39995 -0.19447,0.61276 -0.0826,0.22749 -0.16695,0.44765 -0.25501,0.6623 m -1.96486,5.35154 c -0.0294,0.22933 -0.0495,0.46416 -0.0587,0.70816 -0.007,0.20731 -0.0183,0.4293 -0.0294,0.66229 m 0.99252,7.24486 c 0.1431,0.17245 0.30454,0.32289 0.488,0.44764 0.18897,0.13026 0.38527,0.26419 0.58341,0.40362 m 4.79566,3.12617 c 0.23666,0.11741 0.45498,0.21465 0.65128,0.28436 0.16695,0.0605 0.39628,0.11375 0.67147,0.16145 m 7.8411,0.19997 c 0.26052,-0.0165 0.49351,-0.0349 0.68982,-0.0532 0.26785,-0.0275 0.52469,-0.055 0.7742,-0.0862 m 3.2234,-1.61996 c 0.13026,-0.20181 0.24767,-0.43113 0.35592,-0.68981 0.1064,-0.25501 0.20914,-0.50819 0.31004,-0.75769 m 1.22369,-3.79947 c 0.0495,-0.2807 0.0826,-0.55038 0.0991,-0.81273 0.0147,-0.25868 0.044,-0.52653 0.0789,-0.80539 m 0.1853,-3.92239 c -0.0404,-0.26052 -0.0972,-0.5247 -0.17429,-0.79072 -0.0642,-0.22198 -0.12108,-0.4348 -0.17245,-0.63844 m -0.5779,-2.99591 c -0.0422,-0.22566 -0.0881,-0.43847 -0.14494,-0.64578 -0.044,-0.15961 -0.0294,-0.37977 0.0349,-0.64762 m 3.56831,-6.38626 c 0.12475,-0.18163 0.25134,-0.36142 0.37609,-0.53754 0.11008,-0.15778 0.20915,-0.35958 0.29904,-0.59992 m 1.27322,-23.09402 c 0.0697,-0.27152 0.1486,-0.4825 0.24033,-0.6256 0.12292,-0.18896 0.23483,-0.40361 0.33757,-0.63844 m 1.21268,-8.16767 c 0.0238,-0.28619 0.0514,-0.52836 0.0825,-0.71916 0.022,-0.13576 0.0404,-0.3816 0.0532,-0.71917 m -0.21649,-17.99381 c -0.011,-0.46232 -0.0183,-0.72284 -0.0183,-0.72284 l -0.011,-0.68981 m -0.28436,-19.31656 -0.011,-0.68982 0.0716,-0.64761 m 1.4897,-13.61278 0.0716,-0.64761 c 0,0 0.0367,-0.233 0.10273,-0.64211 m 2.90602,-13.38162 c 0.0862,-0.22749 0.17245,-0.42746 0.25501,-0.59808 0.11008,-0.22199 0.21098,-0.45131 0.30638,-0.68798 m 2.17034,-8.42084 c 0.0862,-0.244 0.17796,-0.47883 0.27886,-0.70082 0.1009,-0.22749 0.20547,-0.45498 0.31005,-0.68431 m 2.41801,-5.63591 c 0.077,-0.26235 0.13576,-0.50635 0.17245,-0.73017 0.0367,-0.22199 0.0899,-0.45498 0.15411,-0.69898 m 1.68967,-5.53685 c 0.0532,-0.22749 0.10457,-0.46232 0.15227,-0.70081 0.044,-0.22566 0.0862,-0.45132 0.12476,-0.67331 m 0.4825,-5.45244 c 0.004,-0.2807 0.004,-0.51186 0.004,-0.68615 0,-0.27702 -0.0422,-0.60725 -0.0936,-0.95583 m -0.1963,-1.453 c -0.0257,-0.37059 -0.011,-0.70449 0.0862,-0.95033 0.0752,-0.18713 0.10091,-0.33573 0.11375,-0.45131 m 0.19263,-0.35408 c 0.0954,-0.004 0.24034,0.009 0.46416,0.033 0.32289,0.033 0.4825,0.19997 0.5724,0.43847 m 0.16511,1.05857 c 0.0367,0.25318 0.0972,0.50635 0.22566,0.72834 0.066,0.11007 0.16511,0.32472 0.28803,0.61276 m 2.41618,7.25036 c 0.0532,0.30087 0.0752,0.53387 0.0514,0.6733 -0.0147,0.0826 -0.004,0.31922 0.0294,0.68431 m 3.78846,28.06029 c 0.0459,0.39628 0.0661,0.63478 0.0587,0.68248 -0.007,0.044 -0.004,0.28987 0.0128,0.70632 m 1.96119,34.01176 c 0.0275,0.45498 0.044,0.70449 0.044,0.70449 l -0.0147,0.70816 m -0.35775,17.56635 -0.0128,0.70816 c 0,0 -0.0367,0.27519 -0.0936,0.7265 m -0.43113,3.45089 c -0.0293,0.24401 -0.0587,0.48617 -0.0881,0.72651 -0.0165,0.13943 -0.0257,0.36508 -0.0294,0.66963 m 1.49888,27.50074 c 0.033,0.36142 0.0569,0.59074 0.0716,0.66596 0.0789,0.38527 0.0789,0.59258 0.0899,0.83658 m 0.1908,1.21084 c 0.055,0.22566 0.12659,0.49351 0.21832,0.81457 0.0624,0.21832 0.12475,0.42379 0.18346,0.61826 m 0.8586,2.82896 c 0.0422,0.21282 0.0734,0.42196 0.0917,0.63845 0.0128,0.16144 0.033,0.36508 0.0624,0.60175 m 1.08242,4.51129 c 0.0972,0.19997 0.19814,0.37426 0.30638,0.5192 0.13209,0.17795 0.28253,0.37792 0.44214,0.59257 m 1.98688,2.90785 c 0.1486,0.27153 0.25317,0.50452 0.2917,0.67697 0.0697,0.32106 0.002,0.57607 -0.13026,0.87328 m -0.53937,1.22368 c -0.0881,0.24767 -0.16878,0.53203 -0.2385,0.86593 -0.033,0.16328 0.005,0.40728 0.10641,0.71366 m 9.34915,12.52119 c 0.24033,0.17245 0.45315,0.29354 0.63294,0.35591 0.22565,0.0752 0.46232,0.15227 0.70632,0.22749 m 5.90009,1.32459 c 0.28428,0.0404 0.53378,0.0679 0.73928,0.0826 0.2147,0.0147 0.4623,0.0349 0.7375,0.0569 m 6.0267,0.10641 c 0.244,-0.0165 0.4917,-0.0367 0.7394,-0.0606 0.2678,-0.0275 0.5155,-0.0587 0.743,-0.0991 m 2.7721,-1.93918 c 0.081,-0.2385 0.1394,-0.4825 0.2018,-0.721 0.044,-0.16512 0.097,-0.41462 0.1577,-0.72651 m 0.644,-6.01384 c -0.026,-0.34857 -0.086,-0.59991 -0.189,-0.70815 -0.097,-0.10091 -0.222,-0.2862 -0.3687,-0.5302 m -2.6198,-4.36453 c -0.167,-0.1908 -0.3284,-0.3394 -0.4807,-0.4293 -0.189,-0.11191 -0.3706,-0.26051 -0.5449,-0.4348 m -1.8841,-2.67853 c -0.1413,-0.2018 -0.2826,-0.38893 -0.4275,-0.55405 -0.1064,-0.12108 -0.1871,-0.32289 -0.2495,-0.58524 m 0.011,-7.13661 c 0,-0.32656 -0.02,-0.55222 -0.066,-0.63294 -0.029,-0.0514 -0.042,-0.28253 -0.044,-0.66046 m 1.121,-20.57877 c 0.029,-0.42563 0.044,-0.6623 0.044,-0.6623 l 0.01,-0.68797 m 0.6018,-88.0299 0.01,-0.68798 c 0,0 0.022,-0.244 0.061,-0.64945 m 0.7027,-7.28338 c 0.037,-0.3394 0.062,-0.57056 0.075,-0.64945 0.035,-0.21282 0.2477,-0.27519 0.5155,-0.55589 m 1.1301,-3.47841 c 0.029,-0.24033 0.055,-0.49534 0.077,-0.7687 0.017,-0.19997 0.042,-0.42196 0.073,-0.66046 m 5.6047,-19.86328 c 0.1578,-0.28987 0.2917,-0.47149 0.3981,-0.52469 0.1614,-0.0807 0.3669,-0.17062 0.6036,-0.27153 m 4.4746,-2.64917 c 0.1449,-0.17612 0.266,-0.35958 0.3614,-0.55221 0.1027,-0.20548 0.2036,-0.42013 0.3064,-0.64212 m 2.0786,-5.3332 c 0.083,-0.22382 0.1652,-0.44764 0.2459,-0.66596 0.073,-0.2018 0.1541,-0.3926 0.2403,-0.57606 m 2.2805,-4.25445 c 0.033,-0.19631 0.051,-0.40362 0.051,-0.6201 0,-0.16512 -0.011,-0.38894 -0.033,-0.66229 m -1.2494,-13.99071 c 0.031,-0.29537 0.084,-0.51369 0.1615,-0.64028 0.068,-0.11007 0.1358,-0.32289 0.2036,-0.61826 m 1.3925,-15.86017 c 0.024,-0.41645 0.035,-0.65312 0.035,-0.65312 0,0 0.075,-0.25501 0.1999,-0.69898 m 2.8437,-12.92296 c 0.018,-0.26969 0.024,-0.51186 0.018,-0.72834 -0.01,-0.22566 -0.013,-0.45682 -0.018,-0.68981 m -0.622,-7.79341 c -0.093,-0.25685 -0.2054,-0.46049 -0.3357,-0.59808 -0.1064,-0.11375 -0.1891,-0.3284 -0.2533,-0.62377 m 0.035,-9.93989 c 0,-0.33574 -0.018,-0.5724 -0.053,-0.67697 -0.042,-0.12292 -0.095,-0.35041 -0.156,-0.65863 m -0.4695,-7.6026 c 0.035,-0.24217 0.081,-0.46416 0.1376,-0.6623 0.055,-0.18896 0.1026,-0.39077 0.1449,-0.60358 m 0.1742,-6.85776 c -0.01,-0.24033 -0.013,-0.45131 -0.013,-0.62193 0,-0.13576 -0.024,-0.38343 -0.066,-0.71916 m -2.9665,-15.30796 c -0.094,-0.33389 -0.1725,-0.57056 -0.2312,-0.6843 -0.068,-0.1321 -0.1578,-0.35775 -0.2643,-0.65679 m -2.717,-10.08667 c -0.057,-0.30638 -0.094,-0.54487 -0.1028,-0.70082 -0.01,-0.1431 -0.028,-0.39444 -0.057,-0.732 m -1.3521,-13.3596 c -0.055,-0.38527 -0.099,-0.63845 -0.132,-0.72284 -0.031,-0.0844 -0.092,-0.32105 -0.1743,-0.6788 m -2.8822,-12.30654 c -0.1192,-0.3394 -0.2202,-0.55955 -0.299,-0.62743 -0.1064,-0.0917 -0.2404,-0.30271 -0.3926,-0.59258 m -2.4015,-5.24147 c -0.178,-0.28803 -0.3376,-0.47883 -0.4697,-0.5247 -0.095,-0.033 -0.299,-0.15594 -0.5797,-0.34857 m -7.8467,-6.03953 c -0.3338,-0.26601 -0.5283,-0.42379 -0.5283,-0.42379 l -0.5632,-0.36509 m -17.54249,-11.41675 -0.56323,-0.36509 -0.40177,-0.52653 m -0.52287,-0.68614 -0.40178,-0.5247 -0.066,-0.73934 m -0.75219,-8.52358 -0.0661,-0.73935 c 0,0 0.0936,-0.20364 0.25318,-0.55222 m 1.99789,-4.25812 c 0.0899,-0.18346 0.17795,-0.36692 0.26601,-0.54854 0.11191,-0.233 0.22566,-0.44948 0.33757,-0.65129 m 2.02357,-2.83446 c 0.1431,-0.22016 0.244,-0.43297 0.28987,-0.66964 0.0367,-0.17612 0.0936,-0.41278 0.16695,-0.68797 m 0.88061,-3.21423 c 0.0807,-0.3284 0.13209,-0.5779 0.13209,-0.69532 0,-0.1064 0.0826,-0.35041 0.21465,-0.69715 m 1.86763,-5.62857 c 0.044,-0.24584 0.0807,-0.488 0.10457,-0.72467 0.0257,-0.23299 0.0661,-0.47516 0.12108,-0.7265 m 2.61065,-8.04108 c 0.0183,-0.26235 0.0147,-0.50819 -0.022,-0.73384 -0.0349,-0.22566 -0.0679,-0.46232 -0.0991,-0.70633 m -0.85492,-5.6836 c -0.0917,-0.25685 -0.1963,-0.47333 -0.31555,-0.63845 -0.0881,-0.12108 -0.21832,-0.31188 -0.38527,-0.55772 m -5.8634,-7.96769 c -0.22199,-0.20548 -0.40912,-0.34124 -0.55222,-0.3871 -0.18529,-0.0587 -0.36692,-0.16695 -0.55772,-0.30822 m -6.1019,-3.45456 c -0.20364,-0.0422 -0.41278,-0.0826 -0.62927,-0.11925 -0.20364,-0.0349 -0.39627,-0.0679 -0.57423,-0.0991 m -2.24005,-0.50084 c 0.21098,0.006 0.58157,0.044 0.58157,0.044"
         style="fill:none;stroke:#f5841f;stroke-width:0.45865148;stroke-linecap:butt;stroke-linejoin:miter;stroke-miterlimit:3;stroke-dasharray:none;stroke-opacity:1"
         id="path20950" />
      <g
         transform="matrix(1.8346059,0,0,-1.8346059,994.0378,435.87914)"
         id="g20952">
        <path
           id="path20954"
           style="fill:#f5841f;fill-opacity:1;fill-rule:nonzero;stroke:none"
           d="m 0,0 -0.594,-5.895 -5.705,4.363 -6.419,-6.279 -8.082,5.747 -7.012,-0.532 3.328,5.533 3.684,4.257 c 0,0 -0.309,-3.618 1.688,-6.385 1.997,-2.767 5.705,-6.087 5.705,-6.087 l 7.702,6.895 1.188,1.703 z"
           inkscape:connector-curvature="0" />
      </g>
      <g
         transform="matrix(1.8346059,0,0,-1.8346059,994.0378,435.87914)"
         id="g20956">
        <path
           id="path20958"
           style="fill:none;stroke:#f5841f;stroke-width:1;stroke-linecap:butt;stroke-linejoin:miter;stroke-miterlimit:4;stroke-dasharray:none;stroke-opacity:1"
           d="m 0,0 -0.594,-5.895 -5.705,4.363 -6.419,-6.279 -8.082,5.747 -7.012,-0.532 3.328,5.533 3.684,4.257 c 0,0 -0.309,-3.618 1.688,-6.385 1.997,-2.767 5.705,-6.087 5.705,-6.087 l 7.702,6.895 1.188,1.703 z"
           inkscape:connector-curvature="0" />
      </g>
      <g
         transform="matrix(1.8346059,0,0,-1.8346059,922.79584,495.62493)"
         id="g20960">
        <path
           id="path20962"
           style="fill:none;stroke:#f5841f;stroke-width:0.25;stroke-linecap:butt;stroke-linejoin:miter;stroke-miterlimit:3;stroke-dasharray:0.74, 0.49;stroke-dashoffset:0;stroke-opacity:1"
           d="M 0,0 2.081,23.035"
           inkscape:connector-curvature="0" />
      </g>
      <g
         transform="matrix(1.8346059,0,0,-1.8346059,928.23288,452.77861)"
         id="g20964">
        <path
           id="path20966"
           style="fill:none;stroke:#f5841f;stroke-width:0.25;stroke-linecap:butt;stroke-linejoin:miter;stroke-miterlimit:3;stroke-dasharray:0.752, 0.502;stroke-dashoffset:0;stroke-opacity:1"
           d="M 0,0 19.839,-7.037"
           inkscape:connector-curvature="0" />
      </g>
      <g
         transform="matrix(1.8346059,0,0,-1.8346059,965.50455,467.72571)"
         id="g20968">
        <path
           id="path20970"
           style="fill:none;stroke:#f5841f;stroke-width:0.25;stroke-linecap:butt;stroke-linejoin:miter;stroke-miterlimit:3;stroke-dasharray:0.772, 0.522;stroke-dashoffset:0;stroke-opacity:1"
           d="M 0,0 C -0.356,-2.816 -1.438,-11.414 -1.707,-13.868"
           inkscape:connector-curvature="0" />
      </g>
      <g
         transform="matrix(1.8346059,0,0,-1.8346059,966.14997,496.41197)"
         id="g20972">
        <path
           id="path20974"
           style="fill:none;stroke:#f5841f;stroke-width:0.25;stroke-linecap:butt;stroke-linejoin:miter;stroke-miterlimit:3;stroke-dasharray:0.812, 0.562;stroke-dashoffset:0;stroke-opacity:1"
           d="M 0,0 C 0.464,-0.205 0.722,-0.39 0.855,-0.646"
           inkscape:connector-curvature="0" />
      </g>
      <g
         transform="matrix(1.8346059,0,0,-1.8346059,968.05188,500.08833)"
         id="g20976">
        <path
           id="path20978"
           style="fill:none;stroke:#f5841f;stroke-width:0.25;stroke-linecap:butt;stroke-linejoin:miter;stroke-miterlimit:3;stroke-dasharray:0.628, 0.378;stroke-dashoffset:0;stroke-opacity:1"
           d="M 0,0 C 0.045,-0.308 0.098,-0.576 0.09,-0.811"
           inkscape:connector-curvature="0" />
      </g>
      <g
         transform="matrix(1.8346059,0,0,-1.8346059,965.8577,509.29511)"
         id="g20980">
        <path
           id="path20982"
           style="fill:none;stroke:#f5841f;stroke-width:0.25;stroke-linecap:butt;stroke-linejoin:miter;stroke-miterlimit:3;stroke-dasharray:0.816, 0.566;stroke-dashoffset:0;stroke-opacity:1"
           d="M 0,0 C -0.211,-0.779 -0.492,-1.632 -1.072,-2.204"
           inkscape:connector-curvature="0" />
      </g>
      <g
         transform="matrix(1.8346059,0,0,-1.8346059,961.81018,514.68409)"
         id="g20984">
        <path
           id="path20986"
           style="fill:none;stroke:#f5841f;stroke-width:0.25;stroke-linecap:butt;stroke-linejoin:miter;stroke-miterlimit:3;stroke-dasharray:0.61, 0.36;stroke-dashoffset:0;stroke-opacity:1"
           d="M 0,0 C -0.326,-0.212 -0.489,-0.377 -0.607,-0.502"
           inkscape:connector-curvature="0" />
      </g>
      <g
         transform="matrix(1.8346059,0,0,-1.8346059,959.59125,517.73834)"
         id="g20988">
        <path
           id="path20990"
           style="fill:none;stroke:#f5841f;stroke-width:0.25;stroke-linecap:butt;stroke-linejoin:miter;stroke-miterlimit:3;stroke-dasharray:0.782, 0.532;stroke-dashoffset:0;stroke-opacity:1"
           d="M 0,0 C -0.308,-2.264 -0.626,-8.225 -0.727,-10.212"
           inkscape:connector-curvature="0" />
      </g>
      <g
         transform="matrix(1.8346059,0,0,-1.8346059,956.74394,537.00005)"
         id="g20992">
        <path
           id="path20994"
           style="fill:none;stroke:#f5841f;stroke-width:0.25;stroke-linecap:butt;stroke-linejoin:miter;stroke-miterlimit:3;stroke-dasharray:0.75, 0.5;stroke-dashoffset:0;stroke-opacity:1"
           d="M 0,0 -15.63,7.277"
           inkscape:connector-curvature="0" />
      </g>
      <g
         transform="matrix(1.8346059,0,0,-1.8346059,922.65382,497.19662)"
         id="g20996">
        <path
           id="path20998"
           style="fill:none;stroke:#f5841f;stroke-width:0.25;stroke-linecap:butt;stroke-linejoin:miter;stroke-miterlimit:3;stroke-dasharray:none;stroke-opacity:1"
           d="m 0,0 0.033,0.369 m 2.148,23.767 0.033,0.368 0.354,-0.125 m 20.549,-7.289 0.354,-0.125 c 0,0 -0.018,-0.137 -0.049,-0.383 M 21.622,1.937 C 21.6,1.729 21.589,1.596 21.589,1.552 21.589,1.236 21.48,1.208 21.676,1.14 m 0.677,-0.208 c 0.13,-0.043 0.28,-0.094 0.453,-0.156 0.137,-0.049 0.264,-0.095 0.382,-0.139 m 1.467,-1.12 c 0.024,-0.119 0.034,-0.251 0.034,-0.404 0,-0.109 0.005,-0.213 0.013,-0.314 m 0.111,-1.374 C 24.792,-2.676 24.752,-2.771 24.689,-2.861 24.614,-2.966 24.541,-3.086 24.474,-3.21 m -0.25,-0.513 c -0.096,-0.219 -0.155,-0.38 -0.155,-0.38 0,0 0.02,-0.139 -0.02,-0.456 M 23.924,-5.213 C 23.891,-5.347 23.851,-5.494 23.803,-5.655 23.766,-5.778 23.73,-5.91 23.694,-6.048 m -1.429,-2.937 c -0.106,-0.082 -0.22,-0.155 -0.344,-0.218 -0.098,-0.05 -0.187,-0.098 -0.269,-0.144 m -1.041,-0.817 c -0.072,-0.068 -0.145,-0.117 -0.262,-0.148 -0.043,-0.011 -0.086,-0.139 -0.131,-0.36 m -0.824,-11.003 c -0.013,-0.25 -0.02,-0.39 -0.02,-0.39 l -0.339,0.158 m -16.31,7.593 -0.34,0.158"
           inkscape:connector-curvature="0" />
      </g>
      <g
         transform="matrix(1.8346059,0,0,-1.8346059,962.429,493.34175)"
         id="g21000">
        <path
           id="path21002"
           style="fill:#ffffff;fill-opacity:1;fill-rule:nonzero;stroke:#f5841f;stroke-width:0.25;stroke-linecap:butt;stroke-linejoin:miter;stroke-miterlimit:3;stroke-dasharray:none;stroke-opacity:1"
           d="m 0,0 c -0.327,0.431 -0.044,1.637 -1.003,1.723 -0.96,0.086 -0.96,0.172 -2.051,0.172 -1.091,0 -1.745,1.12 -2.618,-0.172 -0.872,-1.292 -4.69,-3.661 -6.326,-3.877 -1.636,-0.215 -2.137,-0.108 -3.381,-0.215 -1.243,-0.108 -2.945,-0.108 -3.708,-0.108 -0.764,0 -2.334,-0.323 -2.596,0.539"
           inkscape:connector-curvature="0" />
      </g>
      <g
         transform="matrix(1.8346059,0,0,-1.8346059,959.68168,517.18869)"
         id="g21004">
        <path
           id="path21006"
           style="fill:#ffffff;fill-opacity:1;fill-rule:nonzero;stroke:#f5841f;stroke-width:1;stroke-linecap:butt;stroke-linejoin:miter;stroke-miterlimit:4;stroke-dasharray:none;stroke-opacity:1"
           d="m 0,0 c -2.116,0 -1.598,-0.083 -3.291,0.083 -1.693,0.167 -1.646,0.146 -3.056,0.355 -1.41,0.208 -0.47,0.416 -2.116,0.208 -1.645,-0.208 -1.786,0.187 -2.82,-0.479 -1.035,-0.667 0,-0.042 -2.704,-1.5 -2.703,-1.459 -1.763,-1.584 -3.761,-1.834"
           inkscape:connector-curvature="0" />
      </g>
      <g
         transform="matrix(1.8346059,0,0,-1.8346059,966.16005,465.81477)"
         id="g21008">
        <path
           id="path21010"
           style="fill:#f5841f;fill-opacity:1;fill-rule:nonzero;stroke:none"
           d="m 0,0 -21.6,7.517 -2.279,-24.586 c 0,0 -0.331,-0.55 1.133,-0.601 1.464,-0.05 9.126,0.19 9.661,0.601 0.535,0.411 1.967,0.86 2.138,1.17 0.172,0.309 1.477,0.935 1.63,1.277 0.152,0.341 0.089,-0.544 1.12,0.695 1.031,1.239 0.509,0.841 0.713,1.125 0.203,0.285 0.833,0.285 1.12,0.285 0.286,0 0.725,-0.399 1.203,-0.449 0.477,-0.051 1.355,-0.101 1.832,-0.152 0.478,-0.05 1.292,-0.367 1.292,-0.367 l 0.153,-0.493 z"
           inkscape:connector-curvature="0" />
      </g>
      <g
         transform="matrix(1.8346059,0,0,-1.8346059,962.30846,491.98064)"
         id="g21012">
        <path
           id="path21014"
           style="fill:#f5841f;fill-opacity:1;fill-rule:nonzero;stroke:none"
           d="m 0,0 0.178,0.905 -0.52,0.058 z"
           inkscape:connector-curvature="0" />
      </g>
      <g
         transform="matrix(1.8346059,0,0,-1.8346059,700.18916,1173.3208)"
         id="g21016">
        <g
           clip-path="url(#clipPath21020-5)"
           id="g21018">
          <g
             transform="translate(141.6662,357.9368)"
             id="g21024">
            <path
               id="path21026"
               style="fill:#f5841f;fill-opacity:1;fill-rule:nonzero;stroke:none"
               d="m 0,0 -0.894,-11.817 -17.043,8.216 0.914,0.28 c 0,0 2.086,1.51 2.314,1.596 0.229,0.086 2.935,2.07 2.973,1.811 0.038,-0.258 0.343,0.582 1.371,0.582 1.029,0 2.28,0.238 2.571,0.198 C -7.503,0.827 -4.573,0.259 -4.23,0.216 -3.887,0.173 -0.977,0.043 -0.769,0.043 -0.561,0.043 0,0 0,0"
               inkscape:connector-curvature="0" />
          </g>
          <g
             transform="translate(166.9729,337.4296)"
             id="g21028">
            <path
               id="path21030"
               style="fill:none;stroke:#f5841f;stroke-width:1;stroke-linecap:butt;stroke-linejoin:miter;stroke-miterlimit:4;stroke-dasharray:none;stroke-opacity:1"
               d="m 0,0 -0.022,5.303 c 0,0 -20.208,-10.627 -40.701,0.313"
               inkscape:connector-curvature="0" />
          </g>
          <g
             transform="translate(167.307,337.4991)"
             id="g21032">
            <path
               id="path21034"
               style="fill:none;stroke:#f5841f;stroke-width:1;stroke-linecap:butt;stroke-linejoin:miter;stroke-miterlimit:4;stroke-dasharray:none;stroke-opacity:1"
               d="M 0,0 C 0,0 -20.688,-10.614 -41.666,0.313"
               inkscape:connector-curvature="0" />
          </g>
          <g
             transform="translate(167.1948,343.1047)"
             id="g21036">
            <path
               id="path21038"
               style="fill:#f5841f;fill-opacity:1;fill-rule:nonzero;stroke:none"
               d="m 0,0 c 0,0 -6.679,-3.253 -10.123,-3.777 -3.445,-0.524 -7.442,-1.158 -11.018,-1.185 -3.576,-0.028 -4.233,0.11 -7.52,0.634 -3.287,0.523 -5.68,1.461 -6.811,2.012 -1.13,0.552 -5.311,2.454 -5.364,2.564 -0.052,0.11 -0.552,0.414 -0.552,0.414 l 0.053,-4.329 -0.5,-1.213 -0.026,-0.386 c 0,0 6.757,-3.336 8.02,-3.473 1.262,-0.138 5.048,-1.655 7.494,-1.627 2.445,0.028 3.707,-0.303 3.707,-0.303 l 4.47,0.11 6.469,0.772 6.705,1.902 5.049,2.233 z"
               inkscape:connector-curvature="0" />
          </g>
        </g>
      </g>
      <path
         id="path21040"
         style="fill:#ffffff;fill-opacity:1;fill-rule:nonzero;stroke:#f5841f;stroke-width:0.91730291;stroke-linecap:butt;stroke-linejoin:miter;stroke-miterlimit:4;stroke-dasharray:none;stroke-opacity:1"
         d="m 977.53202,550.51797 h -8.32542 v 13.17614 h 8.32542 z"
         inkscape:connector-curvature="0" />
      <g
         transform="matrix(1.8346059,0,0,-1.8346059,992.99848,545.23999)"
         id="g21042">
        <path
           id="path21044"
           style="fill:#ffffff;fill-opacity:1;fill-rule:nonzero;stroke:none"
           d="m 0,0 -1.204,-0.674 0.223,-8.764 1.159,1.011 z"
           inkscape:connector-curvature="0" />
      </g>
      <g
         transform="matrix(1.8346059,0,0,-1.8346059,953.25542,547.47601)"
         id="g21046">
        <path
           id="path21048"
           style="fill:#ffffff;fill-opacity:1;fill-rule:nonzero;stroke:none"
           d="M 0,0 1.204,-0.718 0.981,-10.057 -0.178,-8.98 Z"
           inkscape:connector-curvature="0" />
      </g>
    </g>
  </g>
</svg>
