<?xml version="1.0" encoding="UTF-8" standalone="no"?>
<!-- Created with Inkscape (http://www.inkscape.org/) -->

<svg
   xmlns:dc="http://purl.org/dc/elements/1.1/"
   xmlns:cc="http://creativecommons.org/ns#"
   xmlns:rdf="http://www.w3.org/1999/02/22-rdf-syntax-ns#"
   xmlns:svg="http://www.w3.org/2000/svg"
   xmlns="http://www.w3.org/2000/svg"
   xmlns:sodipodi="http://sodipodi.sourceforge.net/DTD/sodipodi-0.dtd"
   xmlns:inkscape="http://www.inkscape.org/namespaces/inkscape"
   width="210mm"
   height="297mm"
   viewBox="0 0 210 297"
   version="1.1"
   id="svg6924"
   inkscape:version="0.92.1 r15371"
   sodipodi:docname="green_guy.svg">
  <defs
     id="defs6918" />
  <sodipodi:namedview
     id="base"
     pagecolor="#ffffff"
     bordercolor="#666666"
     borderopacity="1.0"
     inkscape:pageopacity="0.0"
     inkscape:pageshadow="2"
     inkscape:zoom="0.35"
     inkscape:cx="400"
     inkscape:cy="560"
     inkscape:document-units="mm"
     inkscape:current-layer="layer1"
     showgrid="false"
     inkscape:window-width="1375"
     inkscape:window-height="876"
     inkscape:window-x="65"
     inkscape:window-y="24"
     inkscape:window-maximized="1" />
  <metadata
     id="metadata6921">
    <rdf:RDF>
      <cc:Work
         rdf:about="">
        <dc:format>image/svg+xml</dc:format>
        <dc:type
           rdf:resource="http://purl.org/dc/dcmitype/StillImage" />
        <dc:title></dc:title>
      </cc:Work>
    </rdf:RDF>
  </metadata>
  <g
     inkscape:label="Ebene 1"
     inkscape:groupmode="layer"
     id="layer1">
    <g
       style="display:inline"
       id="g19996"
       transform="matrix(0.54283485,0,0,0.55364,-52.308437,-171.34475)">
      <path
         inkscape:connector-curvature="0"
         d="m 232.274,319.1051 -6.25474,1.21517 c 0,0 -1.89594,0.40428 -2.46518,0.81089 -0.56693,0.40428 -4.73753,3.03675 -4.73753,3.03675 l -3.0321,2.43266 -1.70542,1.61944 -1.89594,2.63248 c 0,0 -0.56925,1.62177 -0.75744,2.22819 -0.19053,0.60875 -1.3267,3.03908 -1.3267,3.03908 l -0.75744,2.22819 -0.94797,2.83694 -0.19053,2.43033 -0.56924,3.03908 v 2.02373 2.02605 2.02605 1.01303 l -0.75745,1.01303 c 0,0 -0.56692,0.60642 -0.56692,1.4173 v 2.02606 2.22819 c 0,0 -0.19052,1.21517 0,2.02373 0.1882,0.81088 0.56692,1.62177 0.56692,1.62177 l 0.37872,1.21517 0.56925,1.01302 0.94797,1.41731 0.75745,0.81088 c 0,0 -0.1882,0.60643 0.75744,0.60643 h 0.94797 l 1.13849,0.60874 0.56693,0.81089 v 1.0107 l 0.95029,4.45638 0.56692,2.2282 c 0,0 0.1882,1.41963 0.1882,2.02605 v 2.63247 2.02606 c 0,0 -1.32437,1.21516 -1.51489,1.82391 -0.19052,0.60642 -0.56925,2.63247 -0.56925,2.63247 l -1.13616,3.6455 -2.27467,2.43033 c 0,0 -1.70541,2.6348 -2.46518,3.24122 -0.75745,0.60875 -3.22263,2.2282 -3.22263,2.2282 l -3.02979,2.63479 c 0,0 -2.84391,2.02373 -3.98007,2.63248 -1.1385,0.60874 -6.06654,2.63247 -6.63579,3.44336 -0.56692,0.81088 -5.68549,2.63247 -5.68549,2.63247 l -2.27467,1.41963 c 0,0 -2.84158,2.63247 -3.22263,3.2389 -0.37872,0.60874 -0.75744,0.81088 -1.51489,1.82391 -0.75744,1.01302 -0.56924,1.62177 -1.70541,2.6348 -1.1385,1.0107 -0.94797,1.61944 -1.51722,2.43033 -0.56925,0.80856 -0.37872,0.80856 -1.13617,2.22587 -0.75977,1.41963 -1.32901,2.02605 -2.08646,3.03908 -0.75745,1.01302 -1.51489,3.24121 -1.51489,3.24121 0,0 -0.38105,1.01303 -0.56925,1.62178 -0.19052,0.60642 -1.32669,7.69528 -1.32669,7.69528 l -1.51489,2.83693 -0.56925,4.65853 -0.19052,3.6455 -0.19053,4.45639 -0.1882,4.04978 c 0,0 0.1882,2.63479 0,3.24122 -0.19052,0.60874 -0.37872,1.62177 -0.56924,2.83693 -0.1882,1.21517 -0.37873,2.43034 -0.56925,3.03908 -0.1882,0.60642 -1.32669,5.67155 -1.32669,5.67155 l -0.94797,3.6455 -0.56692,2.83462 -0.56925,15.39521 c 0,0 0.19052,2.63247 0.19052,3.44336 0,0.81088 1.13617,5.67155 1.13617,6.88672 v 6.48243 6.88672 c 0,0 0.37872,3.03908 0.37872,4.04978 0,1.01303 -0.18819,4.66085 -0.18819,4.66085 v 4.86067 5.46941 c 0,1.41731 0.18819,1.82159 0,4.25192 -0.19053,2.43034 -0.19053,4.45639 0,7.49547 0.18819,3.03907 0.37872,4.86066 0.37872,5.87369 0,1.01302 0.3764,3.03908 0.1882,5.26727 -0.1882,2.22819 -0.37873,2.83461 1.13849,4.25424 1.51489,1.41731 0.1882,0.20214 1.51489,1.41731 1.3267,1.21517 2.27466,2.02605 2.84391,2.63248 0.56925,0.60874 1.51722,1.41963 1.51722,2.02605 0,0.60874 0.3764,2.63247 0.75744,3.6455 0.37873,1.01302 1.70542,4.45871 1.70542,5.26727 0,0.81088 0.37872,2.63247 0.37872,2.63247 l 1.13849,2.2282 c 0,0 0.94797,1.4173 1.13617,3.24121 0.19053,1.82392 0.56925,3.24122 0.37873,4.25425 -0.1882,1.01303 -0.1882,3.03675 -0.1882,4.45638 v 5.06281 3.84997 c 0,0.81088 0.56924,3.24121 0.56924,3.24121 l 1.13617,2.63248 c 0,0 1.51722,1.21516 1.89362,1.82391 0.38104,0.60642 1.89594,1.61945 1.89594,1.61945 0,0 1.13849,0.80856 1.70541,1.41963 0.56925,0.60642 1.32902,1.41731 1.70774,2.02373 0.37872,0.60642 1.70542,1.82391 1.70542,1.82391 0,0 1.51489,0.60642 1.51489,1.21517 0,0.60642 0.75977,16.81251 0.75977,16.81251 0,0 0.75744,8.91045 0.94797,10.12794 0.1882,1.21517 0.56692,5.06281 0.75744,6.27797 0.19053,1.21517 0.75745,9.11491 0.94797,9.9258 0.1882,0.81089 1.1385,5.06513 1.1385,5.67155 0,0.60642 0.1882,6.68458 0.1882,7.49314 0,0.81089 1.13849,8.9151 1.13849,8.9151 l 1.51489,15.19074 -0.37872,13.5713 v 9.72365 c 0,0.60643 0.37872,13.97558 0.37872,13.97558 l 0.37872,6.88672 0.75745,22.88835 c 0,0 0.75977,10.53222 0.94797,11.3431 0.19052,0.81089 0.75744,4.86067 1.13849,6.68458 0.37872,1.82159 2.65339,7.49547 2.65339,7.49547 l 2.27233,2.22819 c 0,0 1.3267,1.01303 1.3267,1.61945 0,0.60874 0.57157,1.82159 0.57157,2.43033 0,0.60875 0.37872,3.44336 0.37872,4.04978 0,0.60875 0.56692,2.6348 0.56692,2.6348 0,0 -0.19052,0.4066 0.19053,1.21517 0.37872,0.81088 1.70541,-1.82159 1.89593,2.63479 0.1882,4.45639 0.75745,7.291 0.75745,7.89975 0,0.60642 -0.37872,1.4173 0,3.03675 0.37872,1.62177 1.13617,5.06513 1.13617,5.06513 l 2.08646,3.24122 c 0,0 1.70542,0.80856 2.65339,1.21517 0.94564,0.40428 2.27234,0.80856 2.84158,1.21517 0.56925,0.40428 3.41316,1.82158 3.41316,1.82158 h 2.08413 c 0.75745,0 3.22264,0.20447 4.35881,0 1.13849,-0.20214 1.89593,0 3.41315,-0.60642 1.51489,-0.60642 2.27234,-0.20214 2.65338,-0.81088 0.37873,-0.60643 0.94565,-1.01303 1.13617,-1.82392 0.19053,-0.81088 0.56925,-2.02372 0.19053,-3.23889 -0.38105,-1.21517 -0.75977,-1.82391 -1.1385,-3.6455 -0.37872,-1.82391 0,-2.23052 -0.37872,-3.24354 -0.37872,-1.01071 -0.37872,-2.02606 -0.56692,-2.83462 -0.19052,-0.81088 -0.56925,-2.02605 -0.75977,-3.03908 -0.19052,-1.0107 -0.19052,-2.83461 -0.37872,-3.6455 -0.19053,-0.81088 -0.19053,-1.82158 -0.56925,-3.03907 -0.37872,-1.21517 -0.37872,-1.61945 -0.37872,-3.03676 0,-1.41731 0.37872,-3.24122 0.94797,-4.86067 0.56924,-1.61944 0.75744,-1.61944 1.32669,-3.44568 0.56924,-1.82159 1.13617,-3.6455 1.13617,-3.6455 l 0.37872,-4.86066 c 0,0 0.19052,-1.41731 -0.1882,-2.2282 -0.37872,-0.81088 -2.46518,-2.43033 -2.46518,-2.43033 0,0 0,0.40428 -0.75745,-0.81089 -0.75745,-1.21516 -0.37872,1.21517 -1.51489,-1.82158 -1.1385,-3.03908 -0.75977,-4.25657 -0.75977,-5.06514 0,-0.81088 0.37872,-3.03907 0.37872,-3.03907 v -9.5192 l -0.94565,-14.38218 -1.51721,-10.53222 -0.56925,-11.95185 v -8.7083 l -0.1882,-7.69761 v -11.14096 c 0,-1.01303 0.37873,-7.49547 0.37873,-7.49547 0,0 0,-1.82158 0.94797,-3.84764 0.94796,-2.02605 1.89361,-1.82158 2.08413,-5.46941 0.19053,-3.6455 0.56925,-6.88672 0.56925,-8.71063 0,-1.82159 -0.19052,-8.50616 -0.19052,-8.50616 0,0 -0.1882,-1.82392 0,-3.6455 0.19052,-1.82392 3.03443,-6.48244 3.41083,-7.49547 0.38104,-1.01302 1.32669,-4.45638 1.32669,-4.45638 l 0.56925,-4.65853 c 0,0 0.56924,-2.02605 0.56924,-3.84764 v -6.07816 c 0,-0.60642 0.37873,-4.45406 0.37873,-4.45406 l 0.75744,-3.24122 1.89594,-1.62177 2.08414,-0.60642 1.32669,0.40428 c 0,0 1.13849,3.44336 1.32902,4.45639 0.1882,1.0107 0.94564,3.6455 1.13617,5.46708 0.1882,1.82392 1.32669,5.46942 1.51721,6.07816 0.1882,0.60642 2.65339,3.24122 2.84159,4.65853 0.19052,1.4173 0.75977,5.87369 0.94797,6.68458 0.19052,0.81088 3.79187,9.51919 3.79187,9.51919 l 1.3267,2.43265 c 0,0 0.1882,2.02373 0.75744,2.63248 0.56925,0.60642 1.3267,1.41731 1.89594,3.44336 0.56692,2.02605 1.32669,6.07815 1.32669,6.68458 0,0.60642 0.56925,3.6455 0.75745,4.86066 0.19052,1.21517 0.75745,3.84997 0.75745,4.65853 0,0.81088 0.38104,4.33324 0.56924,6.2803 0.1882,1.94705 0.37873,5.87369 0.37873,5.87369 l 0.56924,6.68458 c 0,0 0,4.04978 0.19053,4.65852 0.1882,0.60875 1.13616,2.83694 1.32669,4.04978 0.1882,1.21749 0.94564,6.48476 0.94564,6.48476 v 4.25193 c 0,1.4173 0.56925,7.89974 0.94797,8.71063 0.37873,0.81088 0.56925,1.21516 0.56925,2.83461 0,1.62177 0.56925,4.86299 0.75745,6.07816 0.19052,1.21516 1.13849,3.84764 1.13849,4.45406 0,0.60874 0.56692,-0.20214 0.1882,4.25657 -0.37872,4.45406 -0.56925,7.89742 -0.37872,8.91045 0.19052,1.01302 1.51721,6.48243 1.51721,6.48243 v 3.24122 c 0,1.01303 0.37872,3.44104 0.37872,4.65853 0,1.21516 -0.37872,3.03908 0.37873,4.45638 0.75744,1.41731 3.0321,4.86067 3.22263,5.46942 0.1882,0.60642 1.89594,1.82158 2.46286,2.43033 0.56925,0.60642 1.32669,1.41731 1.89594,2.43033 0.56924,1.01303 1.32669,3.03908 1.51489,4.25425 0.19052,1.21284 0.19052,3.44336 0.19052,4.25192 0,0.81088 1.1385,5.06513 1.1385,5.06513 0,0 0.37872,1.21517 0.56692,1.82159 0.19052,0.60874 1.51722,1.41963 1.70774,2.02605 0.1882,0.60874 1.13617,4.0521 1.32669,4.65853 0.1882,0.60874 0.37872,2.63479 0.37872,3.24121 0,0.60643 0.1882,1.82392 0.1882,3.24122 0,1.41731 1.51722,3.84997 2.84391,3.84997 1.32669,0 4.16828,1.4173 4.54933,2.02373 0.37872,0.60642 0.56692,1.01302 2.08413,1.82391 1.51722,0.80856 -0.19052,-0.81089 2.84391,1.62177 3.03211,2.43033 4.547,3.44103 5.30677,3.84764 0.75745,0.40428 0.75745,1.21517 3.60136,2.02605 2.84158,0.80856 6.06421,2.02373 7.3909,2.02373 h 4.92805 4.3588 c 0.94797,0 2.08414,0.20214 3.41316,-0.40428 1.32669,-0.60642 2.65338,-0.81089 2.84158,-1.61945 0.19052,-0.81088 0.37872,-2.22819 0.19052,-3.03908 -0.19052,-0.81088 -0.56924,-2.63479 -2.08413,-4.25424 -1.51722,-1.61945 -3.41316,-5.67155 -4.36113,-7.08886 -0.94797,-1.41731 -2.65338,-4.45639 -3.41083,-5.06513 -0.75745,-0.60642 -0.19052,-0.81089 -3.03211,-2.63248 -2.84391,-1.82391 -3.03443,2.2282 -3.41315,-3.24121 -0.37872,-5.46942 -0.56692,-6.27798 -0.56692,-7.69761 0,-1.41731 -0.19053,-3.03675 -0.19053,-3.6455 0,-0.60642 -1.13617,-12.35613 -1.13617,-12.35613 v -6.68458 c 0,-1.21516 -1.13849,-5.87369 -1.13849,-5.87369 0,0 -1.89594,-6.48244 -2.08414,-7.89974 -0.1882,-1.41731 -0.94797,-8.91278 -0.94797,-8.91278 l -0.19052,-7.49546 -0.75745,-6.27797 -2.27466,-15.59503 c 0,0 -0.75744,-5.26727 -0.75744,-5.87602 0,-0.60642 -0.94797,-6.07815 -0.94797,-6.68457 v -4.45639 c 0,-1.21517 0.19052,-6.07583 0,-7.08886 -0.19053,-1.01302 -0.37873,-3.6455 -0.37873,-3.6455 0,0 -0.56924,-2.22819 -1.13849,-3.44336 -0.56692,-1.21516 -1.13617,-3.03908 -1.13617,-3.03908 l -1.51721,-3.03675 c 0,0 0,-3.0414 -0.94797,-4.05211 -0.94565,-1.01302 -1.3267,-8.10188 -1.3267,-8.10188 l -0.75744,-18.22982 c 0,0 1.13849,-8.10189 0.56924,-8.50617 -0.56924,-0.4066 -1.70541,-12.15631 -1.70541,-12.15631 v -4.45407 l -0.94797,-3.64782 -0.56925,-4.65852 -0.37872,-6.88672 -2.08414,-28.15562 0.1882,-7.291 c 0,0 -0.56692,-5.06281 -0.56692,-5.8737 v -5.0628 c 0,-1.01535 -0.19053,-1.82624 0.75744,-3.44569 0.94797,-1.61944 1.13617,-2.02605 1.5149,-2.63247 0.37872,-0.60875 1.51721,-4.86299 1.51721,-4.86299 0,0 0,-0.40428 0.19053,-1.21517 0.18819,-0.80856 0.75744,-3.6455 0.94564,-4.65852 0.19052,-1.01071 -0.56692,-1.21517 0.56925,-3.03676 1.13849,-1.82391 1.13849,-2.02605 2.84391,-3.84996 1.70541,-1.82159 0.75744,-0.40428 2.65338,-2.63248 1.89594,-2.22819 6.06422,-27.34473 5.87602,-27.95347 -0.19053,-0.60643 -0.94797,-2.83462 -0.94797,-3.44336 0,-0.60643 -0.56925,-3.6455 0,-5.8737 0.56692,-2.22819 -5.4973,-42.53548 -5.4973,-42.53548 l -2.8439,-7.89974 -0.56693,-12.55827 c 0,0 -0.94797,-3.03908 -1.32669,-4.25425 -0.37872,-1.21516 -1.89594,-7.29332 -1.89594,-7.29332 l -2.27466,-5.46941 -2.65338,-6.27798 c 0,0 -2.27467,-4.86066 -2.84391,-5.46941 -0.56693,-0.60642 -4.92573,-4.45638 -4.92573,-4.45638 l -7.39323,-6.07584 -2.27466,-1.01302 c 0,0 -6.82166,-3.03908 -7.58143,-3.6455 -0.75745,-0.60875 -0.56925,-1.21517 -2.65339,-2.02605 -2.08414,-0.81089 -4.3588,-1.82392 -5.87601,-2.6348 -1.51489,-0.80856 -3.22031,-1.82159 -3.98008,-2.22587 -0.75745,-0.40661 -0.37872,0 -1.70542,-1.21749 -1.32669,-1.21517 -1.70541,-2.02373 -1.70541,-2.02373 l 0.1882,-5.67155 c 0,0 -0.1882,-3.03908 -0.1882,-3.64782 v -2.43034 c 0,-0.80856 -0.56925,-1.21516 0,-2.22819 0.56925,-1.01303 0,-0.40428 0.94797,-1.82159 0.94797,-1.41731 2.08414,-1.82391 2.08414,-1.82391 l 2.84391,-6.48012 0.56692,-3.44335 1.13849,-2.43266 c 0,0 0.1882,-1.41731 0.37872,-2.43033 0.19053,-1.01303 0.37873,-1.41731 0.37873,-2.43034 0,-1.01302 0.19052,-4.45638 0.19052,-4.45638 l 0.1882,-4.86067 c 0,0 0.38105,-0.81089 0.94797,-3.6455 0.56925,-2.83694 0.75745,-3.24122 0.75745,-3.84996 0,-0.60643 -0.1882,-3.84764 -0.1882,-3.84764 l -1.3267,-3.24122 -1.13617,-2.2282 -3.22263,-4.45638 -3.41315,-3.6455 -4.547,-4.65853 -3.9824,-1.01302 -3.03211,-0.20214 -3.03211,-0.002 z"
         style="fill:#ffffff;fill-opacity:1;fill-rule:nonzero;stroke:none"
         id="path16286" />
      <path
         inkscape:connector-curvature="0"
         d="m 322.82156,839.2136 -0.0186,-0.64127 c 0.65521,-0.0186 1.21052,-0.13476 1.74956,-0.36943 l 0.25325,0.59015 c -0.61339,0.26488 -1.24537,0.39964 -1.98423,0.42055 m -1.92846,-0.0279 h -1.9215 v -0.64128 h 1.9215 z m -3.843,0 h -1.92149 v -0.64128 h 1.86805 l 0.0535,0.64128 z m -3.84067,0 h -1.14081 c -0.22538,0 -0.49954,-0.0303 -0.83412,-0.0929 l 0.11617,-0.62966 c 0.29276,0.0534 0.5344,0.0812 0.71795,0.0812 h 1.14081 v 0.64127 z m -3.87087,-0.57622 c -0.57622,-0.1697 -1.1989,-0.3671 -1.8425,-0.57157 l 0.19285,-0.60874 c 0.63895,0.20214 1.25931,0.39731 1.83088,0.56692 z m 17.24932,-0.5251 -0.24396,-0.59248 c 0.61804,-0.25326 0.89453,-0.46469 0.95494,-0.72492 0.0255,-0.10929 0.0511,-0.2277 0.0743,-0.35549 l 0.62966,0.11841 c -0.0256,0.13717 -0.0535,0.26487 -0.0812,0.38104 -0.14182,0.60642 -0.72492,0.92241 -1.33366,1.17335 m -101.65578,-0.0232 c -0.30205,0 -0.61571,-0.007 -0.92009,-0.0167 l 0.0208,-0.64127 c 0.65289,0.021 1.34296,0.0279 1.88432,-0.0186 l 0.0535,0.63895 c -0.29044,0.0232 -0.62966,0.0372 -1.03859,0.0372 m -2.83926,-0.0905 h -1.91685 v -0.64128 h 1.93544 l -0.0186,0.64128 z m 5.78773,-0.14406 -0.0558,-0.63662 c 0.48096,-0.0418 1.02697,-0.12082 1.77744,-0.40893 l 0.23003,0.59713 c -0.82251,0.31831 -1.42428,0.40428 -1.9517,0.44842 m 77.78228,-0.36013 c -0.36014,-0.11153 -0.72027,-0.21841 -1.07344,-0.31832 -0.28578,-0.0814 -0.54136,-0.16264 -0.77371,-0.24396 l 0.20911,-0.60642 c 0.22073,0.079 0.46702,0.15576 0.73886,0.23234 0.36014,0.10224 0.72259,0.21144 1.0897,0.32529 z m -87.37583,-0.3067 c -0.80624,-0.41822 -1.38245,-0.73189 -1.71006,-0.92938 l 0.33225,-0.54834 c 0.31135,0.1882 0.88989,0.50187 1.67289,0.90847 z m 13.32966,-0.20679 -0.0766,-0.6343 c 0.4066,-0.0489 0.54833,-0.0905 0.65289,-0.25558 0.13699,-0.22073 0.29275,-0.41125 0.44146,-0.5948 l 0.12788,-0.15577 0.49954,0.39964 -0.13011,0.16022 c -0.14406,0.17658 -0.28114,0.34387 -0.39499,0.52975 -0.28346,0.45075 -0.72724,0.50419 -1.1199,0.55066 m 70.39834,-0.93635 c -0.26255,-0.19285 -0.44378,-0.36943 -0.60178,-0.52511 -0.17193,-0.16728 -0.30669,-0.2974 -0.48792,-0.39498 -0.11394,-0.0604 -0.24629,-0.13699 -0.39963,-0.2277 l 0.32993,-0.54834 c 0.14182,0.0837 0.26487,0.15335 0.37175,0.21144 0.26023,0.13941 0.44145,0.31366 0.63198,0.50186 0.15093,0.14871 0.30902,0.29973 0.53439,0.46469 z m -87.11328,-0.59249 -0.30437,-0.11394 c -0.35549,-0.13699 -0.70865,-0.26952 -1.02464,-0.40428 -0.14164,-0.0604 -0.30205,-0.13011 -0.47166,-0.20679 l 0.26022,-0.58551 c 0.16506,0.0743 0.32296,0.14406 0.46237,0.20447 0.30902,0.13011 0.65522,0.26022 1.00141,0.39266 l 0.30437,0.11394 z m 112.65501,-0.85735 c -0.002,-0.27649 -0.0256,-0.50884 -0.0697,-0.69471 l -0.021,-0.0952 c -0.0604,-0.25791 -0.13941,-0.6041 -0.26488,-0.99909 l 0.61107,-0.19052 c 0.13253,0.41357 0.21376,0.77371 0.27649,1.04555 l 0.0232,0.0952 c 0.0535,0.23002 0.0812,0.50884 0.0859,0.82948 l -0.64127,0.009 z m -116.20989,-0.6738 -0.52045,-0.24629 -0.82948,-1.28952 0.53904,-0.34619 0.72957,1.13617 0.35316,0.16506 -0.27184,0.58086 z m 22.72106,-0.0535 -0.62501,-0.14164 c 0.0883,-0.38337 0.19052,-0.88756 0.19052,-1.41034 0,-0.13011 -0.007,-0.26023 -0.021,-0.39034 l 0.63663,-0.0651 c 0.0167,0.15094 0.0232,0.30438 0.0232,0.4554 0,0.58783 -0.10929,1.13849 -0.20446,1.55207 m 64.84296,-0.0558 c -0.44145,-0.31832 -0.95261,-0.69936 -1.54742,-1.15708 l 0.39034,-0.50652 c 0.58784,0.45075 1.09435,0.82948 1.53116,1.14314 z m -3.06231,-2.34437 -0.23932,-0.19052 c -0.59015,-0.47166 -0.98049,-0.77836 -1.26396,-0.99212 l 0.38105,-0.51116 c 0.28811,0.21376 0.68542,0.5251 1.24305,0.96888 l 0.27649,0.22073 z m 30.61616,-0.35316 c -0.27882,-0.47864 -0.61107,-0.92242 -0.98282,-1.31973 -0.0465,-0.0511 -0.0952,-0.10446 -0.14406,-0.16022 l 0.4856,-0.41822 c 0.0418,0.0489 0.0837,0.0952 0.12547,0.1394 0.4066,0.43449 0.76674,0.91544 1.06879,1.4359 l -0.55298,0.32296 z m -117.50638,-0.34388 -0.36479,-0.56692 0.0301,-0.0628 c -0.0442,-0.20446 -0.15094,-0.68774 -0.28579,-1.28951 l 0.62733,-0.13699 c 0.16506,0.7435 0.24861,1.12223 0.28579,1.32437 l 0.24628,0.38569 -0.53904,0.34619 z m 24.12907,-0.60177 c -0.21841,-0.58783 -0.40196,-1.09667 -0.59248,-1.86573 l 0.62268,-0.15335 c 0.1975,0.7923 0.39499,1.32437 0.57157,1.7937 z m 59.58266,-0.56925 c -0.80856,-0.44145 -1.29881,-0.79927 -1.63339,-1.19658 l 0.48793,-0.41357 c 0.28114,0.33458 0.71795,0.64824 1.45216,1.04788 z m 31.51301,-1.55904 c -0.30204,-0.47398 -0.62733,-1.01999 -0.99211,-1.66591 l 0.55763,-0.31599 c 0.36013,0.63662 0.67845,1.17334 0.97585,1.63803 z m -34.39641,-0.91544 c -0.48561,-0.29043 -1.099,-0.58783 -1.68218,-0.81785 l 0.23466,-0.59713 c 0.61572,0.24396 1.26164,0.55763 1.77512,0.86433 z m -81.86692,-0.15111 c -0.1487,-0.66219 -0.29508,-1.30114 -0.4066,-1.78209 l -0.0232,-0.0976 0.62501,-0.13476 0.021,0.0861 c 0.11152,0.48328 0.2579,1.12223 0.40892,1.78906 l -0.62501,0.13941 z m 24.24292,-0.61572 c -0.0186,-0.28114 -0.0186,-0.51813 -0.0186,-0.73189 0,-0.4066 0,-0.69936 -0.13012,-1.09434 l 0.60875,-0.19982 c 0.16041,0.49257 0.16041,0.862 0.16041,1.29416 0,0.20214 0,0.42287 0.0186,0.69007 l -0.63895,0.0418 z m 54.1969,-0.51348 h -0.0673 c -0.73188,0 -1.37316,-0.55531 -1.78441,-1.02 l 0.47863,-0.42519 c 0.45772,0.51813 0.92241,0.80391 1.30578,0.80391 l 0.0837,0.002 -0.0167,0.63895 z m 35.89737,-1.15708 c -0.35316,-0.63895 -0.67148,-1.21982 -0.93867,-1.6636 l 0.54833,-0.32993 c 0.26952,0.44843 0.59481,1.03859 0.95029,1.68683 z m -114.24425,-1.53116 -0.63895,-0.0721 c 0.0208,-0.17658 0.0465,-0.33458 0.0697,-0.48095 0.0325,-0.20214 0.0604,-0.3764 0.0604,-0.52278 0,-0.14406 -0.0442,-0.48793 -0.0907,-0.82715 l 0.63662,-0.0859 c 0.0626,0.47399 0.0954,0.74583 0.0954,0.91312 0,0.19517 -0.0325,0.39499 -0.0697,0.62501 -0.021,0.13718 -0.0442,0.28579 -0.0626,0.45075 m 75.43792,-0.058 c -0.21144,-0.51813 -0.32296,-1.01071 -0.32296,-1.42428 0,-0.19285 -0.002,-0.38105 -0.009,-0.56692 l 0.64127,-0.0208 c 0.004,0.19285 0.009,0.38802 0.009,0.58783 0,0.32529 0.0976,0.74583 0.27417,1.18264 l -0.59248,0.24164 z m -51.88506,-0.48793 -0.0167,-0.13234 c -0.0465,-0.33458 -0.0907,-0.64825 -0.15576,-0.93171 -0.0535,-0.23002 -0.12305,-0.49489 -0.19982,-0.78068 l 0.61804,-0.16506 c 0.079,0.29044 0.15112,0.56228 0.20446,0.79927 0.0744,0.31367 0.11841,0.64128 0.16729,0.98979 l 0.0167,0.13235 -0.6343,0.0883 z m 88.72343,-1.20819 -0.25093,-0.40429 c -0.24861,-0.4066 -0.50652,-0.82482 -0.7621,-1.22678 l 0.54137,-0.34387 c 0.25558,0.40428 0.5158,0.82715 0.76674,1.23375 l 0.24861,0.40428 z m -113.12435,-2.05858 c -0.0673,-0.5646 -0.13699,-1.20588 -0.20214,-1.91918 l 0.63663,-0.0604 c 0.065,0.70866 0.13476,1.34296 0.20214,1.90291 l -0.63663,0.0768 z m 75.81896,-0.13477 c -0.0256,-0.31366 -0.0442,-0.57621 -0.0442,-0.77371 0,-0.22305 -0.0279,-0.66218 -0.0743,-1.14546 l 0.63895,-0.058 c 0.0465,0.50883 0.0744,0.95726 0.0744,1.20355 0,0.18587 0.0186,0.42751 0.0442,0.71562 l -0.63895,0.058 z m -52.27075,-0.31831 c -0.0301,-0.13476 -0.0558,-0.2672 -0.0812,-0.39731 -0.0744,-0.40428 -0.12082,-0.91312 -0.16728,-1.55439 l 0.63895,-0.0465 c 0.0396,0.53672 0.0836,1.08505 0.15799,1.48469 0.0232,0.12323 0.0489,0.24861 0.0766,0.3764 l -0.62501,0.13699 z m 87.50362,-0.69006 c -0.24629,-0.32296 -0.39267,-0.4647 -0.47166,-0.52975 -0.27417,-0.21841 -0.39964,-0.39499 -0.53208,-0.58087 -0.0673,-0.0929 -0.1394,-0.19749 -0.24163,-0.31599 l 0.48327,-0.42054 c 0.12082,0.13941 0.20447,0.2579 0.28114,0.36478 0.11841,0.16952 0.20447,0.29043 0.40893,0.45308 0.15799,0.12546 0.34852,0.3369 0.58086,0.64127 z m -2.65803,-2.5953 c -0.23467,-0.16506 -0.50652,-0.3462 -0.82018,-0.54601 -0.26255,-0.16952 -0.51581,-0.29276 -0.75048,-0.36711 l 0.19285,-0.61107 c 0.29043,0.0907 0.5948,0.23932 0.90382,0.43913 0.32064,0.20447 0.59713,0.39034 0.84109,0.55763 z m -108.74464,-0.10688 c -0.0255,-0.4159 -0.0489,-0.85271 -0.0673,-1.30346 -0.009,-0.22073 -0.021,-0.42287 -0.0372,-0.61107 l 0.63895,-0.0489 c 0.0167,0.19284 0.0279,0.40428 0.0372,0.6343 0.0186,0.4461 0.0418,0.87594 0.0673,1.28952 l -0.63895,0.0396 z m 75.79805,-0.0697 c -0.0111,-0.0535 -0.0256,-0.1 -0.0372,-0.1394 -0.0743,-0.24164 -0.26952,-0.92474 -0.48793,-1.70077 l 0.61804,-0.17194 c 0.21608,0.76674 0.4066,1.44519 0.48096,1.68218 0.0167,0.0511 0.0325,0.11376 0.0487,0.18123 l -0.62269,0.1487 z m -52.31722,-0.37407 c -0.0111,-0.0697 -0.0232,-0.13253 -0.0372,-0.19052 -0.0768,-0.32529 -0.12323,-0.67613 -0.17193,-1.04788 -0.0279,-0.21144 -0.058,-0.43217 -0.0954,-0.66219 l 0.63431,-0.1 c 0.0372,0.23467 0.0673,0.46237 0.0953,0.67845 0.0465,0.35316 0.0905,0.69007 0.16023,0.98282 0.0167,0.0697 0.0325,0.1487 0.0465,0.23235 l -0.63198,0.10688 z m 81.86924,-0.18346 c -0.63663,0 -0.75977,-0.77836 -0.87594,-1.961 l 0.63895,-0.0626 c 0.10464,1.09203 0.21375,1.34296 0.26719,1.3964 l 0.0535,0.62268 -0.0837,0.006 z m -106.75808,-2.83462 c -0.23235,0 -0.41823,-0.12546 -0.5251,-0.35316 -0.0558,-0.11859 -0.10001,-0.2277 -0.13476,-0.33225 l 0.60409,-0.20912 c 0.0279,0.0766 0.0604,0.158 0.0998,0.24397 0.0489,-0.0149 0.12324,-0.0442 0.17658,-0.0651 0.158,-0.0651 0.35084,-0.14405 0.56228,-0.14405 0.25558,0 0.48328,0.11859 0.65289,0.34154 l -0.51116,0.38802 c -0.0675,-0.0883 -0.11153,-0.0883 -0.14182,-0.0883 -0.0859,0 -0.20447,0.0489 -0.32064,0.0952 -0.14647,0.0604 -0.29973,0.12305 -0.46237,0.12305 m 76.16051,-0.29973 c -0.14628,-0.5158 -0.26487,-0.9317 -0.31831,-1.10596 -0.0348,-0.11153 -0.158,-0.27649 -0.36478,-0.48793 l 0.45772,-0.44842 c 0.29043,0.2974 0.45075,0.52742 0.51813,0.74583 0.0558,0.17899 0.17658,0.59945 0.32528,1.12222 l -0.61804,0.17417 z m -52.02447,-0.41357 c -0.19749,-0.72724 -0.23234,-1.1989 -0.23931,-1.97726 l 0.64127,-0.007 c 0.004,0.73886 0.0372,1.15476 0.21608,1.81927 l -0.61804,0.16506 z m 81.5974,-0.33923 c -0.0511,-0.72027 -0.0976,-1.35225 -0.14182,-1.90988 l 0.63662,-0.0511 c 0.0442,0.55995 0.0929,1.19425 0.14406,1.91685 l -0.63895,0.0441 z M 204.4183,809.42153 c -0.21608,-0.86897 -0.32528,-1.45913 -0.32528,-1.75188 0,-0.0489 -0.004,-0.11617 -0.009,-0.19749 l 0.63895,-0.0396 c 0.007,0.0952 0.009,0.17659 0.009,0.23467 0,0.13941 0.0418,0.5251 0.3067,1.60086 l -0.62037,0.15335 z m 75.11728,-0.862 -0.56227,-1.80765 0.2974,-0.12788 0.30902,-0.0836 -0.30902,0.0836 0.31599,-0.0534 0.56227,1.79836 -0.61339,0.19052 z m -49.51049,-1.12455 -0.6343,-0.079 c 0.0744,-0.61107 0.19749,-1.25931 0.36246,-1.92614 l 0.62269,0.15576 c -0.16042,0.64128 -0.2765,1.26396 -0.35085,1.84947 m 80.81439,-0.30205 -0.0744,-0.83412 c -0.0372,-0.42519 -0.0673,-0.77371 -0.0929,-1.0804 l 0.63895,-0.0489 c 0.0232,0.30437 0.0558,0.65057 0.0929,1.07344 l 0.0721,0.83412 -0.63662,0.0558 z M 203.8932,805.57166 c -0.10223,-0.92473 -0.17881,-1.65662 -0.17881,-1.9517 h 0.63895 c 0,0.28346 0.0976,1.1687 0.17658,1.87968 l -0.63662,0.0719 z m 74.58753,-0.73653 c -0.15576,-0.62269 -0.31831,-1.30346 -0.44145,-1.88432 l 0.62733,-0.13476 c 0.12305,0.57621 0.28114,1.24769 0.43449,1.86573 z m -47.55646,-1.05717 -0.6041,-0.21609 c 0.2277,-0.62965 0.39034,-0.99908 0.55066,-1.35922 0.0626,-0.14163 0.12305,-0.27881 0.18588,-0.42984 l 0.59015,0.24861 c -0.0651,0.15335 -0.12769,0.29741 -0.19052,0.44146 -0.15335,0.34852 -0.31366,0.70633 -0.53207,1.31508 m 79.67822,-0.49025 c -0.0186,-0.63663 -0.0628,-1.26396 -0.11152,-1.90524 l 0.64127,-0.0465 c 0.0465,0.64824 0.0929,1.28254 0.11152,1.93311 l -0.64127,0.0186 z m -107.35288,-1.44752 c -0.0721,-0.27649 -0.10465,-0.48095 -0.10465,-0.65289 0,-0.0255 -0.0186,-0.27881 -0.62734,-0.86664 l 0.44378,-0.46005 c 0.55299,0.5344 0.82251,0.96888 0.82251,1.32669 0,0.11376 0.0279,0.27417 0.0836,0.49258 l -0.61804,0.16041 z m 74.57126,-0.86432 c -0.004,-0.52975 -0.0149,-1.22678 -0.0442,-1.90988 l 0.64128,-0.0279 c 0.0301,0.69239 0.0396,1.39639 0.0418,1.93311 l -0.63895,0.006 z m -45.52809,-0.7923 -0.61339,-0.19284 0.5739,-1.83553 0.61106,0.19052 z m 78.07737,-0.72259 c -0.0396,-0.47399 -0.0976,-1.14082 -0.16729,-1.91918 l 0.63662,-0.0558 c 0.0719,0.77836 0.13012,1.44751 0.16971,1.9215 l -0.63895,0.0533 z m -109.26277,-0.45308 -1.37084,-1.34295 0.44843,-0.45772 1.37084,1.34295 z m 76.49509,-1.80997 c -0.0929,-0.48792 -0.27417,-1.12687 -0.51348,-1.80067 l 0.60409,-0.21376 c 0.17659,0.49954 0.41125,1.23143 0.53904,1.89594 l -0.62965,0.11859 z m -44.22463,-0.77138 -0.63895,-0.0511 0.1487,-1.91685 0.63895,0.0511 z m -34.46845,-0.64128 c -0.20678,-0.53672 -0.44378,-1.16172 -0.68309,-1.80532 l 0.60177,-0.22073 c 0.23699,0.63895 0.47399,1.26164 0.68077,1.79603 z m 111.11688,-0.16022 -0.18122,-1.91685 0.63662,-0.0628 0.18123,1.9215 -0.63663,0.058 z m -33.65523,-1.97029 c -0.0743,-0.15093 -0.14406,-0.28811 -0.21376,-0.41125 -0.21376,-0.37873 -0.46701,-0.75513 -0.77836,-1.15011 l 0.50187,-0.39731 c 0.33225,0.42054 0.60642,0.82482 0.83412,1.23375 0.0743,0.13234 0.15093,0.28114 0.23002,0.44378 z m -42.6958,-1.06182 -0.63663,-0.0489 0.0535,-0.69703 c 0.002,-0.021 0.0465,-0.36014 0.0465,-0.78533 0,-0.12305 -0.002,-0.25326 -0.0112,-0.38802 l 0.63663,-0.0441 c 0.0112,0.1487 0.0167,0.29508 0.0167,0.43216 0,0.47166 -0.0489,0.83645 -0.0511,0.85271 l -0.0535,0.67845 z m -36.09951,-0.42984 c -0.2672,-0.77371 -0.46469,-1.40104 -0.58551,-1.86109 l 0.61804,-0.16264 c 0.11859,0.4461 0.31134,1.05485 0.57157,1.81462 z m 112.08809,-0.37408 -0.18346,-1.91917 0.63895,-0.0604 0.18123,1.91917 -0.63663,0.0604 z m -35.53492,-1.0897 c -0.1882,-0.17658 -0.42983,-0.38337 -0.68541,-0.59945 -0.25326,-0.21608 -0.52046,-0.44145 -0.7621,-0.66451 l 0.43216,-0.47166 c 0.23467,0.21376 0.49722,0.43681 0.74583,0.64825 0.26255,0.22537 0.51349,0.43681 0.70633,0.61804 z m -41.67115,-1.54277 c -0.41822,-0.45075 -0.98514,-0.94332 -1.3871,-1.27558 l 0.41125,-0.49257 c 0.4159,0.3462 1.00373,0.85736 1.44519,1.33134 z m -35.84393,-0.76906 c -0.10223,-0.6041 -0.20911,-1.26164 -0.31134,-1.90291 l 0.6343,-0.1 c 0.1,0.63895 0.20679,1.29416 0.30902,1.89361 z m 112.68057,-0.43914 c -0.007,-0.0836 -0.009,-0.12788 -0.009,-0.12788 v -1.8332 h 0.63895 l 0.009,1.90058 -0.63895,0.0604 z m -37.77937,-0.1394 c -0.23699,-0.42287 -0.59248,-1.00838 -0.98282,-1.64269 l 0.54601,-0.33457 c 0.39499,0.64127 0.75512,1.23607 0.99444,1.66359 z m -41.79662,-1.25467 c -0.0441,-0.0673 -0.079,-0.11617 -0.10465,-0.1487 -0.0766,0.058 -0.16729,0.10688 -0.28811,0.10688 -0.33458,0 -0.54833,-0.35781 -0.84341,-1.06182 l 0.59015,-0.24861 c 0.13476,0.31831 0.22538,0.49257 0.28347,0.59016 0.0697,-0.0441 0.15576,-0.0812 0.26255,-0.0812 0.28346,0 0.48327,0.25326 0.63895,0.50187 l -0.53905,0.34154 z m -33.71797,-1.97029 c -0.0744,-0.45539 -0.17882,-1.0897 -0.23932,-1.34992 -0.021,-0.0883 -0.0489,-0.28579 -0.0814,-0.56693 l 0.63662,-0.0719 c 0.0279,0.24628 0.0511,0.41822 0.0673,0.49257 0.0511,0.21608 0.12788,0.64592 0.24861,1.39407 l -0.63198,0.10224 z m 73.52106,-0.0533 c -0.46469,-0.76442 -0.75744,-1.26396 -0.95029,-1.62178 l -0.0325,-0.0651 0.57157,-0.28579 -0.28578,0.14183 0.30902,-0.10001 c 0.19052,0.35317 0.47631,0.84342 0.93635,1.59622 l -0.54834,0.33458 z m 40.40255,-0.46702 h -0.64127 v -1.92614 h 0.64127 z m -82.10855,-0.45075 c -0.21144,-0.69936 -0.3462,-1.33134 -0.4159,-1.93079 l 0.6343,-0.0744 c 0.0673,0.56228 0.19517,1.15708 0.39499,1.81926 l -0.61339,0.18588 z m 40.25385,-2.75562 c -0.007,-0.13476 -0.009,-0.26952 -0.009,-0.40428 0,-0.42751 0.0279,-0.84806 0.0535,-1.2384 l 0.0186,-0.31134 0.64127,0.0396 -0.0208,0.31367 c -0.0257,0.37872 -0.0511,0.783 -0.0511,1.19658 0,0.12546 0.002,0.25093 0.007,0.3764 l -0.63895,0.0279 z m -72.5731,-0.11617 c -0.0511,-0.58783 -0.10465,-1.24305 -0.16041,-1.9215 l 0.63895,-0.0511 c 0.0535,0.67612 0.10929,1.33134 0.16041,1.91685 l -0.63895,0.0558 z m 113.69824,-0.47863 c -0.0719,-0.47398 -0.19053,-1.10596 -0.34852,-1.87503 l 0.62733,-0.13011 c 0.16264,0.7923 0.27882,1.41498 0.35317,1.90988 l -0.63198,0.0952 z m -81.15594,-0.51581 -0.63895,-0.0349 c 0.002,-0.0697 0.004,-0.13476 0.004,-0.1975 0,-0.33457 0.0604,-0.92241 0.17658,-1.74723 l 0.6343,0.0907 c -0.11152,0.78301 -0.1697,1.3569 -0.1697,1.65895 0,0.0743 -0.002,0.1487 -0.007,0.23002 m 40.04009,-2.71379 c -0.0348,-0.39267 -0.079,-0.81089 -0.12305,-1.21982 l -0.0719,-0.69006 0.63662,-0.0651 0.0719,0.68774 c 0.0442,0.41126 0.0883,0.8318 0.12547,1.22911 l -0.63895,0.058 z m -72.89606,-0.13476 -0.14647,-1.9215 0.63895,-0.0487 0.14871,1.9215 -0.64128,0.0489 z m 113.24982,-0.3857 c -0.12305,-0.53439 -0.22073,-0.94099 -0.26023,-1.10131 -0.002,-0.021 -0.009,-0.0396 -0.0111,-0.0604 v 0 l -0.20214,-0.69239 0.61571,-0.17658 0.24629,0.85038 -0.004,0.007 c 0.0465,0.19517 0.13476,0.56693 0.24164,1.0293 l -0.62501,0.14405 z m -80.00815,-0.60874 h -0.64128 v -1.9215 h 0.64128 z m 39.99129,-2.73238 h -0.64127 v -1.92615 h 0.64127 z m -73.52106,-0.11859 -0.11395,-1.93776 0.64128,-0.0232 0.0232,0.71563 0.0883,1.1989 -0.63895,0.0465 z m 112.53651,-0.24861 c -0.16487,-0.59016 -0.34155,-1.22911 -0.51348,-1.85877 l 0.61803,-0.16728 c 0.17194,0.62733 0.34852,1.26628 0.51349,1.85411 z m -79.00674,-0.74351 h -0.64128 v -1.92149 h 0.64128 z m 39.10606,-2.63712 c -0.12547,-0.52277 -0.28579,-1.18728 -0.44843,-1.87503 l 0.62269,-0.1487 c 0.16487,0.68775 0.32296,1.35225 0.44842,1.87271 l -0.62268,0.15093 z m -72.81242,-0.23002 -0.0626,-1.91917 0.63895,-0.0232 0.0626,1.9215 -0.63895,0.021 z m 111.70937,-0.11859 c -0.20214,-0.81088 -0.32064,-1.3569 -0.36246,-1.67056 l -0.0325,-0.25558 0.63663,-0.0766 0.0301,0.24628 c 0.0396,0.28811 0.15576,0.82715 0.35084,1.60319 l -0.62269,0.15334 z m -78.00301,-0.85735 h -0.64128 v -1.25932 l -0.0418,-0.63895 0.63895,-0.0442 0.0442,0.66218 v 1.28022 z m 38.21617,-2.54651 c -0.17881,-0.76906 -0.32296,-1.40801 -0.37407,-1.6938 -0.013,-0.0697 -0.0232,-0.14405 -0.0348,-0.22537 l 0.63663,-0.0743 c 0.009,0.0697 0.0186,0.13011 0.0279,0.18587 0.0511,0.27649 0.19284,0.90615 0.36943,1.6636 l -0.62501,0.14405 z m -72.05032,-0.31831 -0.0628,-1.91918 0.63895,-0.0232 0.0628,1.9215 -0.63895,0.021 z m 111.22841,-0.12324 -0.20446,-1.91685 0.63662,-0.0673 0.20447,1.91685 z m -78.20283,-0.82947 -0.12769,-1.91685 0.64127,-0.0418 0.12547,1.91685 -0.63895,0.0418 z m 39.21991,-2.5953 -0.63895,-0.0186 c 0.013,-0.56227 0.0441,-1.21052 0.0836,-1.92847 l 0.63895,0.035 c -0.0394,0.7133 -0.0673,1.35457 -0.0837,1.9122 m -72.37328,-0.29275 -0.0626,-1.9215 0.64128,-0.021 0.0626,1.91917 -0.64128,0.0232 z m 110.95192,-0.11618 -0.19749,-1.91452 0.63895,-0.0651 0.19517,1.91685 -0.63663,0.0626 z m -78.0518,-0.82947 -0.12547,-1.91685 0.63895,-0.044 0.12547,1.91917 -0.63895,0.0418 z m 39.68227,-2.586 -0.63894,-0.0441 c 0.044,-0.61106 0.0929,-1.25234 0.1487,-1.92149 l 0.63662,0.0535 c -0.0535,0.66683 -0.10223,1.30578 -0.14628,1.9122 m -72.70786,-0.30902 -0.0651,-1.92149 0.64128,-0.0208 0.0626,1.91917 -0.63895,0.0232 z m 110.75442,-0.13717 -0.0489,-1.9215 0.64127,-0.0167 0.0489,1.9215 -0.64128,0.0167 z m -77.9821,-0.8016 -0.12546,-1.91917 0.63895,-0.0418 0.12546,1.91685 -0.63895,0.044 z m 40.23759,-2.586 -0.63895,-0.0441 c 0.0396,-0.61339 0.0604,-1.1385 0.0604,-1.55439 0,-0.12082 -0.002,-0.23003 -0.004,-0.33226 l 0.64127,-0.0186 c 0.002,0.10688 0.004,0.22306 0.004,0.35085 0,0.43216 -0.0208,0.96888 -0.0626,1.59853 m -73.1377,-0.31599 -0.0626,-1.92149 0.63895,-0.021 0.0626,1.91918 -0.63895,0.0232 z m 110.78463,-0.13717 -0.0487,-1.9215 0.64127,-0.0167 0.0489,1.9215 -0.64127,0.0167 z m -78.13777,-0.79695 -0.0186,-0.29972 -0.2277,-1.57995 0.63431,-0.0929 0.25325,1.93079 -0.64127,0.0418 z m 39.54055,-2.48145 c -0.0859,-0.39499 -0.26023,-0.98747 -0.44378,-1.61248 l -0.0651,-0.22072 0.61572,-0.179 0.0651,0.22073 c 0.18588,0.63662 0.36479,1.2384 0.45308,1.65662 l -0.62501,0.13476 z m -72.3152,-0.42751 -0.0814,-1.91221 0.63895,-0.0348 0.0836,1.92615 -0.64127,0.021 z m 110.7126,-0.10001 -0.23002,-1.90755 0.63663,-0.0743 0.23002,1.90755 z m -78.4584,-0.77371 -0.27417,-1.90058 0.6343,-0.0929 0.27417,1.90291 -0.6343,0.0907 z m 39.04565,-2.41406 c -0.0257,-0.12789 -0.0489,-0.24629 -0.0651,-0.35317 l -0.25093,-1.55904 0.6343,-0.1 0.24861,1.55904 c 0.0167,0.0976 0.0372,0.20679 0.0604,0.32528 l -0.62733,0.12789 z m -71.48805,-0.54369 -0.10465,-1.91918 0.63895,-0.0349 0.10465,1.91917 -0.63895,0.0348 z m 110.44076,-0.0837 -0.24396,-1.89826 0.6343,-0.0905 0.0814,0.54601 0.16265,1.36619 -0.63431,0.0766 z m -78.5467,-0.76209 -0.27417,-1.90291 0.63431,-0.0905 0.27416,1.90291 -0.6343,0.0907 z m 38.99918,-2.43498 c -0.10223,-0.76209 -0.1697,-1.41266 -0.20446,-1.93311 l 0.63895,-0.0418 c 0.0325,0.50652 0.0998,1.14314 0.19982,1.8913 l -0.63431,0.0836 z m -71.10467,-0.55763 -0.013,-0.2579 -0.0489,-1.67986 0.64128,-0.0186 0.0604,1.9215 -0.63895,0.0348 z m 110.13174,-0.0442 -0.27649,-1.90058 0.6343,-0.0929 0.27649,1.90058 z m -78.52114,-0.80391 -0.0905,-1.91918 0.63895,-0.0279 0.0929,1.91685 -0.64127,0.0303 z m 39.20829,-2.43034 c -0.0766,-0.64592 -0.23002,-0.97585 -0.4856,-1.52186 -0.0279,-0.058 -0.058,-0.14182 -0.0859,-0.24861 l 0.61572,-0.17193 c 0.0186,0.0628 0.0348,0.11617 0.0511,0.15111 0.26255,0.55996 0.45308,0.96656 0.54137,1.71704 l -0.63663,0.0743 z m 38.75754,-0.56924 -0.27649,-1.90059 0.6343,-0.0929 0.27649,1.90059 z m -109.6926,-0.0167 -0.0535,-1.92615 0.64128,-0.0186 0.0535,1.92614 -0.64127,0.0186 z m 31.54321,-0.8225 -0.0907,-1.91918 0.64127,-0.0303 0.0907,1.91918 -0.64128,0.0303 z m 38.49035,-2.30487 c -0.0743,-0.58784 -0.1487,-1.25002 -0.21608,-1.9215 l 0.63662,-0.065 c 0.0673,0.66683 0.13941,1.32204 0.21376,1.90523 l -0.6343,0.0814 z m 39.10374,-0.65986 -0.2765,-1.89826 0.63431,-0.0929 0.27649,1.90058 -0.6343,0.0905 z m -109.24418,-0.0651 -0.0535,-1.92614 0.64128,-0.0186 0.0535,1.92614 -0.64127,0.0186 z m 31.46886,-0.80856 -0.0929,-1.91917 0.64127,-0.0303 0.0907,1.91917 -0.63895,0.0301 z m 38.27891,-2.31416 c -0.0604,-0.72724 -0.10929,-1.40104 -0.13717,-1.92847 l 0.63895,-0.0349 c 0.0279,0.52277 0.0768,1.18961 0.13476,1.9122 l -0.63663,0.0511 z m 38.94342,-0.61339 -0.27649,-1.90524 0.6343,-0.0907 0.2765,1.90291 -0.63431,0.0929 z m -108.79575,-0.11618 -0.0511,-1.92846 0.64127,-0.0167 0.0511,1.92614 -0.64128,0.0186 z m 32.03811,-0.81088 h -0.64127 v -1.9215 h 0.64127 z m 38.28589,-2.33043 h -0.64128 v -1.92614 h 0.64128 z m 37.92574,-0.55763 c -0.0861,-0.62036 -0.17881,-1.30113 -0.2579,-1.9122 l 0.63662,-0.0812 c 0.079,0.60875 0.16971,1.2872 0.25558,1.90524 l -0.6343,0.0883 z M 193.92726,726.878 h -0.64128 v -1.92615 h 0.64128 z m 31.46421,-0.78301 h -0.64127 v -1.92149 h 0.64127 z m 37.554,-2.2886 -0.27649,-1.90523 0.6343,-0.0929 0.27649,1.90523 z m 38.18829,-0.61571 c -0.009,-0.27882 -0.19284,-1.47772 -0.25093,-1.87271 l 0.63198,-0.0952 c 0.17417,1.14547 0.25093,1.72633 0.2579,1.94938 l -0.63895,0.0186 z m -107.2065,-0.16729 h -0.64128 v -1.92615 h 0.64128 z m 31.46421,-0.77139 h -0.64127 l -0.0257,-1.9122 0.64127,-0.0167 0.0257,1.92847 z m 36.99869,-2.25607 c -0.11394,-0.79927 -0.2184,-1.50328 -0.28114,-1.90524 l 0.63431,-0.0952 c 0.0604,0.40195 0.16487,1.10828 0.28113,1.90755 l -0.6343,0.0929 z m 38.19527,-0.57854 c -0.1093,-0.70633 -0.21376,-1.38478 -0.28811,-1.90988 l 0.6343,-0.0883 c 0.0744,0.52045 0.17882,1.19657 0.28811,1.89826 l -0.6343,0.0998 z M 193.92726,719.1711 h -0.63895 l 0.0303,-1.93776 0.64128,0.0186 -0.0325,1.91917 z m 30.75091,-0.7528 -0.0489,-1.9215 0.64127,-0.0167 0.0465,1.92149 -0.63895,0.0167 z m 36.94293,-2.12596 c -0.18123,-0.5251 -0.37872,-1.04788 -0.53904,-1.47307 l -0.12324,-0.32296 0.60178,-0.22537 0.12082,0.32063 c 0.16264,0.42984 0.36245,0.95959 0.54601,1.49398 l -0.60642,0.20679 z m 39.20597,-0.75048 h -0.64128 v -1.92382 h 0.64128 z m -106.81385,-0.21143 -0.64127,-0.0186 0.0533,-1.91917 0.64127,0.0167 -0.0535,1.9215 z m 30.56969,-0.75512 -0.0208,-1.93544 h 0.63895 l 0.0232,1.9215 -0.64127,0.0149 z m 36.05072,-2.06788 c -0.0279,-0.61804 -0.0418,-1.33134 -0.0511,-1.93311 l 0.64128,-0.009 c 0.007,0.59712 0.0232,1.30345 0.0489,1.91452 l -0.63895,0.0279 z m 40.19576,-0.80856 -0.64127,-0.009 c 0.004,-0.32064 0.0167,-0.74351 0.0279,-1.22446 l 0.013,-0.69936 0.64127,0.0149 -0.0167,0.70168 c -0.0112,0.47631 -0.021,0.89685 -0.0257,1.21749 m -106.70929,-0.21143 -0.64127,-0.0167 0.0535,-1.9215 0.64128,0.0186 -0.0535,1.91917 z m 31.08085,-0.77604 h -0.64127 v -1.92614 h 0.64127 z m 35.32348,-2.03999 -0.16264,-1.91453 0.63895,-0.0533 0.16264,1.91452 -0.63895,0.0534 z m 40.38164,-0.82018 -0.64128,-0.007 c 0.002,-0.29276 0.004,-0.57855 0.004,-0.85271 0,-0.3857 -0.002,-0.74351 -0.0111,-1.05485 l 0.63895,-0.0186 c 0.009,0.31599 0.0149,0.68077 0.0149,1.07344 0,0.27649 -0.002,0.5646 -0.004,0.85968 m -106.67908,-0.20447 -0.64128,-0.0167 0.0558,-1.92149 0.63895,0.0167 -0.0535,1.9215 z m 30.97397,-0.78765 h -0.64128 v -1.92614 h 0.64128 z m 34.99819,-2.01676 -0.16264,-1.91452 0.63663,-0.0535 0.16505,1.91453 -0.63895,0.0535 z m 39.85421,-0.78997 c -0.0743,-0.64128 -0.1394,-1.38246 -0.18587,-1.92615 l 0.63895,-0.0511 c 0.0441,0.53672 0.10929,1.27093 0.18346,1.90523 l -0.63663,0.0719 z m -106.48159,-0.21841 -0.19052,-1.91452 0.63663,-0.0628 0.19052,1.9122 -0.63663,0.0651 z m 31.62919,-0.82947 h -0.63895 v -0.46004 c 0,-0.24164 0.0208,-0.78998 0.0533,-1.48237 l 0.63895,0.0303 c -0.0325,0.67845 -0.0533,1.21517 -0.0533,1.45216 v 0.46004 z m 34.7217,-2.00746 c -0.0301,-0.5739 -0.0697,-1.24538 -0.11394,-1.91918 l 0.63895,-0.0418 c 0.044,0.67612 0.0836,1.34993 0.11394,1.92382 l -0.63895,0.0372 z m 39.58934,-0.69007 c -0.20911,-0.70168 -0.4159,-1.32205 -0.6041,-1.79603 l 0.59713,-0.23467 c 0.19517,0.49722 0.40428,1.1199 0.62036,1.84947 z m -106.32127,-0.2974 -0.19053,-1.91221 0.63663,-0.0628 0.19052,1.90988 -0.63662,0.065 z m 32.16125,-0.84109 -0.63895,-0.0325 0.10465,-1.92382 0.63895,0.0348 -0.10465,1.92149 z m 34.31742,-2.00514 -0.1882,-1.90988 0.63895,-0.0626 0.18588,1.91917 -0.63663,0.0533 z m 38.49732,-0.43217 c -0.34852,-0.92241 -0.61804,-1.78209 -0.62036,-1.78906 l 0.57157,-0.28346 0.0394,0.0929 c 0.002,0.007 0.2672,0.84806 0.60642,1.75421 l -0.59712,0.22537 z m -105.35704,-0.54601 -0.19285,-1.9122 0.63895,-0.0628 0.19053,1.90988 -0.63663,0.0651 z m 32.45169,-0.81553 v -0.0651 l -0.33458,-0.0186 c 0.004,-0.0859 0.009,-0.16505 0.0186,-0.23699 h -0.004 c 0,-0.0301 0.002,-0.71795 0.21841,-1.72168 l 0.62733,0.13718 c -0.20214,0.92938 -0.20447,1.57762 -0.20447,1.58459 l -0.002,0.32064 h -0.31832 z m 34.02931,-2.0307 c -0.0697,-0.7133 -0.13234,-1.38478 -0.17417,-1.9215 l 0.63895,-0.0511 c 0.0418,0.53439 0.10465,1.20355 0.17194,1.90988 l -0.63663,0.0626 z m 37.396,-0.11376 -0.67148,-1.34063 v -0.0766 c 0,-0.002 0,-0.19052 -0.013,-0.48328 l 0.63895,-0.0325 c 0.0111,0.19982 0.013,0.35317 0.0167,0.43913 l 0.60177,1.2082 -0.57157,0.28579 z m -104.26037,-0.86432 -0.19052,-1.9122 0.63895,-0.0628 0.19052,1.90988 -0.63895,0.0651 z m 33.91546,-0.67148 -0.59015,-0.24861 c 0.0535,-0.12305 0.10688,-0.24861 0.16729,-0.3764 0.27881,-0.5948 0.55995,-1.0107 0.80391,-1.35457 l 0.52278,0.37175 c -0.23699,0.33225 -0.49025,0.70633 -0.74815,1.25466 -0.0535,0.11859 -0.10688,0.237 -0.15577,0.35317 m 32.62362,-2.16778 c -0.0814,-0.54834 -0.20446,-1.22679 -0.3276,-1.88432 l 0.62965,-0.11618 c 0.12305,0.66219 0.24861,1.35225 0.33226,1.90756 l -0.63431,0.0929 z m 36.80817,-0.0533 c -0.15093,-0.70401 -0.36478,-1.21981 -0.61804,-1.49166 -0.0372,-0.0396 -0.0697,-0.0814 -0.10223,-0.12788 l 0.5251,-0.36478 c 0.0167,0.021 0.0301,0.0396 0.0442,0.0558 0.33922,0.36014 0.59945,0.96423 0.77835,1.79371 l -0.62733,0.13476 z m -103.77012,-0.92009 -0.26023,-1.90988 0.63431,-0.0859 0.26022,1.90755 -0.6343,0.0883 z m 36.21104,-0.22305 -0.60875,-0.19749 c 0.15576,-0.47631 0.26255,-1.07112 0.32761,-1.8123 l 0.63662,0.0558 c -0.0675,0.79229 -0.18587,1.43124 -0.35548,1.95402 m 66.20683,-2.42336 c -0.10223,-0.5344 -0.20214,-1.18264 -0.2974,-1.92382 l 0.63662,-0.0814 c 0.0905,0.72957 0.19053,1.36155 0.29043,1.882 l -0.62965,0.12305 z m -36.12739,-0.16729 c -0.0558,-0.36246 -0.14406,-0.87827 -0.24164,-1.4359 l -0.079,-0.45539 0.63198,-0.1093 0.079,0.4554 c 0.0976,0.56228 0.18587,1.08041 0.24396,1.44751 l -0.6343,0.0976 z m -66.80629,-1.00838 c -0.0905,-0.66915 -0.17416,-1.32669 -0.24861,-1.9122 l 0.63663,-0.079 c 0.0719,0.58319 0.15799,1.24072 0.24629,1.90756 l -0.63431,0.0836 z m 37.20083,-0.27881 -0.63895,-0.0418 c 0.0418,-0.65986 0.0905,-1.30345 0.13699,-1.92149 l 0.63895,0.0489 c -0.0489,0.61572 -0.0929,1.25467 -0.13699,1.91453 m 65.23098,-2.39781 c -0.0743,-0.80391 -0.12305,-1.50095 -0.15093,-1.92846 l 0.63895,-0.0441 c 0.0279,0.4252 0.0768,1.11759 0.1487,1.91685 l -0.63663,0.0558 z m -36.2575,-0.11152 c -0.0837,-0.55066 -0.12082,-0.88989 -0.12082,-1.06879 0,-0.0534 -0.0112,-0.24396 -0.10465,-0.84342 l 0.63198,-0.0976 c 0.11152,0.71098 0.11152,0.88524 0.11152,0.941 0,0.0976 0.021,0.34387 0.11395,0.97353 l -0.63198,0.0952 z m -66.639,-1.05485 c -0.007,-0.0952 -0.009,-0.16729 -0.009,-0.21608 0,-0.23002 -0.0167,-0.88988 -0.0372,-1.72865 l 0.63895,-0.0167 c 0.0232,0.84574 0.0396,1.51257 0.0396,1.74491 0,0.0372 0.002,0.0929 0.007,0.16729 l -0.63895,0.0489 z m 37.95363,-0.26487 -0.64127,-0.0511 c 0.0558,-0.69007 0.10464,-1.33134 0.14182,-1.90988 l 0.63895,0.0396 c -0.0372,0.58087 -0.0861,1.22679 -0.13941,1.9215 m 64.70356,-2.42801 -0.079,-1.91917 0.63895,-0.0255 0.0814,1.91917 -0.64128,0.0255 z m -36.57814,-0.0465 c -0.12082,-0.60875 -0.25326,-1.25699 -0.39034,-1.87735 l 0.62733,-0.13718 c 0.13699,0.62501 0.27184,1.2779 0.39034,1.89129 z m -66.17895,-1.1292 -0.0535,-1.92614 0.64128,-0.0167 0.0533,1.92382 -0.64127,0.0186 z m 37.61672,-0.2579 c -0.002,-0.47631 -0.013,-1.15708 -0.0303,-1.9215 l 0.64128,-0.013 c 0.013,0.76906 0.0255,1.45216 0.0301,1.93079 l -0.64127,0.006 z m 27.72346,-2.34437 -0.0372,-0.13941 c -0.17193,-0.61106 -0.3671,-1.13616 -0.59712,-1.6055 l 0.57389,-0.28114 c 0.24861,0.50419 0.45772,1.06414 0.63895,1.71239 l 0.0418,0.14628 -0.62036,0.16729 z m 37.25659,-0.0626 -0.079,-1.91917 0.64128,-0.0255 0.079,1.91918 -0.64127,0.0256 z M 190.82542,673.1639 c -0.004,-0.11841 -0.0489,-0.51116 -0.31831,-1.84483 l 0.62733,-0.12546 c 0.31831,1.58459 0.32761,1.86108 0.32993,1.9517 l -0.63895,0.0186 z m 37.63996,-0.25094 -0.0465,-1.92382 0.63895,-0.0167 0.0489,1.92382 -0.64128,0.0167 z m 26.12957,-1.74491 -0.19052,-0.20679 c -0.27649,-0.29508 -0.4949,-0.84109 -0.66684,-1.66592 l 0.62966,-0.13011 c 0.1882,0.91544 0.39731,1.24305 0.50419,1.35922 l 0.19749,0.21144 z m 38.76451,-0.65522 -0.079,-1.91917 0.64128,-0.0279 0.079,1.9215 -0.64128,0.0255 z m -103.25026,-1.072 c -0.18123,-0.84573 -0.34852,-1.57762 -0.4159,-1.86573 l 0.62036,-0.16264 0.007,0.0279 c 0.065,0.27881 0.23002,1.01302 0.41589,1.86341 l -0.62733,0.13718 z m 38.258,-0.37872 -0.013,-0.4949 c -0.002,-0.0441 -0.0604,-0.60874 -0.079,-1.43124 l 0.63895,-0.0149 c 0.0186,0.79462 0.0768,1.35457 0.0768,1.35922 l 0.0167,0.56227 -0.63895,0.0186 z m 24.85166,-1.49398 -0.92008,-1.68683 0.56227,-0.3067 0.92009,1.68683 z m 39.98201,-0.89686 -0.0812,-1.91917 0.64127,-0.0255 0.0814,1.91917 -0.64128,0.0257 z M 189.4656,665.60481 c -0.0535,-0.57389 -0.11153,-1.23376 -0.16971,-1.9215 l 0.63895,-0.0533 c 0.058,0.68542 0.11618,1.34295 0.16971,1.91452 l -0.63895,0.0604 z m 39.49408,-0.36943 -0.63895,-0.0511 c 0.009,-0.11617 0.021,-0.23234 0.0325,-0.34851 0.0418,-0.39964 0.19284,-0.92242 0.46469,-1.59854 l 0.59248,0.23699 c -0.24397,0.61339 -0.3857,1.09203 -0.42055,1.42893 -0.0111,0.10929 -0.021,0.22072 -0.0303,0.33225 m 22.58166,-1.17102 -0.72724,-1.78209 0.59248,-0.24164 0.72956,1.78209 z m 41.49922,-1.23143 -0.058,-1.39407 0.0743,-0.58087 0.63431,0.0837 -0.0719,0.52974 0.0626,1.33367 -0.64127,0.0279 z m -103.90721,-1.06647 c -0.058,-0.6738 -0.11394,-1.32901 -0.16729,-1.91917 l 0.63895,-0.0558 c 0.0511,0.59015 0.10688,1.24537 0.16506,1.92149 l -0.63662,0.0534 z m 41.06474,-0.0208 -0.57622,-0.28346 c 0.28811,-0.58318 0.5948,-1.16869 0.88523,-1.71935 l 0.56693,0.29972 c -0.28811,0.54369 -0.59248,1.12455 -0.87594,1.70309 m 19.89109,-1.25001 c -0.25093,-0.62037 -0.4949,-1.23143 -0.71563,-1.78906 l 0.59481,-0.23467 c 0.22073,0.5553 0.46469,1.16405 0.71562,1.78441 z m 43.84358,-1.46843 -0.6343,-0.0766 c 0.0697,-0.5948 0.14405,-1.25234 0.20679,-1.90755 l 0.63895,0.0651 c -0.0651,0.65754 -0.13941,1.3174 -0.21144,1.91918 m -61.95491,-0.68775 -0.56924,-0.29508 c 0.12546,-0.24396 0.30204,-0.59015 0.37407,-0.783 0.0837,-0.22073 0.19285,-0.55763 0.31599,-0.95029 l 0.61107,0.19052 c -0.1277,0.40661 -0.24164,0.75512 -0.32761,0.98515 -0.0626,0.17193 -0.1882,0.4368 -0.40428,0.8527 m -43.19534,-0.39963 c -0.0167,-0.13011 -0.0303,-0.23467 -0.0418,-0.31367 -0.0535,-0.35549 -0.12547,-0.92938 -0.20214,-1.59621 l 0.63663,-0.0743 c 0.0768,0.65754 0.14647,1.22214 0.19981,1.57298 0.0112,0.0836 0.0279,0.19749 0.0442,0.3369 l -0.63663,0.0743 z m 59.89401,-1.03858 c -0.16971,-0.4554 -0.20911,-0.60178 -0.22538,-0.66916 -0.0489,-0.20446 -0.1184,-0.62036 -0.21608,-1.27093 l 0.6343,-0.0929 c 0.0929,0.62501 0.16265,1.03394 0.20447,1.21749 0.0232,0.0952 0.0952,0.30205 0.20214,0.59481 l -0.59945,0.22073 z m 45.63032,-1.72168 -0.63895,-0.0396 c 0.0279,-0.44145 0.044,-0.84341 0.044,-1.18263 0,-0.29044 -0.013,-0.51581 -0.0372,-0.67148 l 0.6343,-0.0976 c 0.0279,0.19053 0.0418,0.44146 0.0418,0.76907 0,0.35084 -0.0167,0.76674 -0.0441,1.22213 m -61.05109,-0.53207 -0.61571,-0.17658 c 0.2579,-0.89453 0.46004,-1.63804 0.46236,-1.63804 l 0.0167,-0.17416 0.63663,0.0766 -0.0279,0.22073 c -0.009,0.0465 -0.21376,0.79229 -0.47166,1.69147 M 188.3226,654.1155 c -0.079,-0.69007 -0.15576,-1.36387 -0.22305,-1.90756 l 0.63663,-0.079 c 0.0673,0.54833 0.14405,1.22213 0.22305,1.91452 l -0.63663,0.0721 z m 59.64308,-1.06414 c -0.0883,-0.64825 -0.17417,-1.31275 -0.25326,-1.90988 l 0.6343,-0.0836 c 0.079,0.59481 0.16729,1.25932 0.25326,1.90756 l -0.6343,0.0859 z m 45.17957,-1.58692 c -0.0976,-0.54137 -0.1975,-1.19658 -0.29741,-1.91453 l 0.63431,-0.0883 c 0.1,0.70865 0.19749,1.35458 0.29275,1.89129 l -0.62965,0.11153 z m -59.15748,-0.6343 -0.6343,-0.0766 0.23235,-1.90987 0.6343,0.079 -0.23235,1.90756 z m -46.12986,-0.54137 c -0.0535,-0.5251 -0.1184,-1.18961 -0.18588,-1.9215 l 0.63663,-0.0604 c 0.0675,0.72957 0.13253,1.39175 0.1882,1.91685 l -0.63895,0.0651 z m 59.58964,-1.00373 c -0.11859,-0.39964 -0.39732,-0.92474 -0.85504,-1.60318 l 0.53208,-0.35782 c 0.49489,0.73421 0.80159,1.3174 0.93635,1.78209 l -0.61339,0.179 z m 45.14936,-1.65198 c -0.079,-0.63662 -0.15576,-1.28487 -0.2277,-1.91452 l 0.63663,-0.0744 c 0.0719,0.62965 0.1487,1.27557 0.2277,1.90988 l -0.63663,0.079 z m -58.01433,-0.57389 -0.62966,-0.12324 c 0.1277,-0.66683 0.21376,-1.29184 0.25094,-1.86573 l 0.63895,0.0442 c -0.0396,0.59713 -0.12789,1.25002 -0.26023,1.94473 m -47.08945,-0.60875 -0.16971,-1.91917 0.63663,-0.0558 0.17194,1.91685 -0.63895,0.058 z m 57.97716,-0.31366 c -0.49955,-0.66451 -0.73422,-0.99676 -0.80392,-1.22446 l -0.16729,-0.54137 0.61339,-0.1882 0.16506,0.53904 c 0.0489,0.16042 0.46005,0.70401 0.70633,1.03162 l -0.51348,0.38337 z m 46.68749,-2.33507 c -0.0814,-0.74583 -0.1487,-1.40802 -0.20214,-1.91918 l 0.63662,-0.0651 c 0.0535,0.51116 0.12082,1.17102 0.20214,1.91452 l -0.63662,0.0697 z m -57.28942,-0.63198 h -0.64127 v -1.92382 h 0.64127 z m -47.71446,-0.55996 -0.14647,-1.94008 0.64128,-0.0303 0.0232,0.51581 0.12082,1.40104 -0.63895,0.0534 z m 56.80382,-0.0952 c -0.16729,-0.6041 -0.3369,-1.25699 -0.48096,-1.87736 l 0.62501,-0.14405 c 0.14164,0.61339 0.30902,1.25467 0.47399,1.85179 l -0.61804,0.16952 z m 48.52767,-2.59066 h -0.64128 v -1.92149 h 0.64128 z m -57.61703,-0.60409 h -0.64127 v -0.98515 c 0,-0.15576 0.0232,-0.51348 0.058,-0.96656 l 0.63895,0.0511 c -0.0325,0.42984 -0.0558,0.76906 -0.0558,0.91544 v 0.98515 z m -47.94912,-0.57854 -0.0905,-1.92615 0.63895,-0.0303 0.0905,1.92615 z m 56.21133,-0.0349 c -0.0558,-0.50651 -0.16041,-1.11526 -0.31599,-1.86341 l 0.62501,-0.13011 c 0.16264,0.76674 0.26952,1.39639 0.3276,1.92382 z m 48.66707,-2.53721 -0.48328,-1.85876 0.62037,-0.16265 0.48327,1.86109 -0.62036,0.16041 z m -56.7039,-0.66219 -0.63895,-0.0604 0.14405,-1.50792 -0.009,-0.021 0.1,-0.42752 0.62269,0.14647 -0.0697,0.29741 c -0.002,0.0279 -0.004,0.058 -0.009,0.0976 l -0.13941,1.47539 z m 7.291,-0.52742 -0.0511,-0.21376 c -0.14628,-0.5948 -0.26719,-1.10364 -0.32993,-1.43589 -0.0111,-0.0673 -0.0303,-0.14406 -0.0489,-0.2277 l 0.62268,-0.14647 c 0.0232,0.0953 0.0418,0.18123 0.0558,0.25558 0.0604,0.32528 0.18122,0.82018 0.32296,1.40336 l 0.0511,0.21376 -0.62268,0.15093 z m -55.64441,-0.0883 -0.0883,-1.92382 0.63895,-0.0303 0.0883,1.92382 z m 104.12328,-2.49074 -0.23234,-1.90756 0.6343,-0.0766 0.23467,1.90523 -0.63663,0.079 z m -55.11466,-0.63431 -0.62268,-0.14647 0.26952,-1.15708 0.71562,-0.61339 0.41822,0.48793 -0.55763,0.47398 -0.22305,0.95494 z m 5.68782,-0.49722 c -0.21144,-0.69006 -0.43216,-1.37781 -0.57854,-1.83088 l 0.60874,-0.19749 c 0.14871,0.45539 0.36943,1.14778 0.58087,1.84017 z m -54.87302,-0.22537 -0.0859,-1.92615 0.63895,-0.0279 0.0859,1.92382 -0.63895,0.0303 z m 51.35996,-1.79371 -0.179,-0.61571 1.92149,-0.55996 0.0905,0.0279 -0.0883,0.32063 0.0859,0.29508 -1.83088,0.53207 z m 52.47521,-0.66451 -0.0673,-0.54368 -0.0768,-1.39175 0.63895,-0.0372 0.0768,1.37316 0.0626,0.52278 -0.63431,0.0766 z m -104.00943,-1.39407 -0.0837,-1.92614 0.64128,-0.0279 0.0836,1.92614 -0.64127,0.0279 z m 103.7585,-2.46054 -0.10446,-1.91917 0.63895,-0.0348 0.10446,1.91917 z M 185.7761,623.86176 c -0.27882,-0.179 -0.58319,-0.32064 -0.72957,-0.38569 -0.1277,-0.0149 -0.29275,-0.179 -0.87594,-0.75977 l 0.45307,-0.45308 c 0.28346,0.28114 0.53672,0.51813 0.62966,0.6041 0.13941,0.0604 0.51813,0.2277 0.87129,0.45772 z m -2.86947,-2.65803 c -0.32993,-0.45075 -0.80624,-0.97353 -1.22678,-1.4266 l 0.46933,-0.43681 c 0.43217,0.46701 0.92474,1.00605 1.27558,1.48469 z m 107.02528,-0.30437 -0.13941,-1.91685 0.63895,-0.0465 0.14183,1.91452 -0.64128,0.0489 z m -109.63684,-2.3769 c -0.28579,-0.2184 -0.50187,-0.37407 -0.51813,-0.38569 -0.179,-0.12082 -0.6134,-0.42287 -1.03626,-0.76442 l 0.40195,-0.49722 c 0.40428,0.32529 0.82483,0.61804 0.98747,0.72724 l 0.009,0.021 0.007,-0.007 c 0,0 0.23002,0.16265 0.53904,0.39964 l -0.39034,0.50651 z m 109.35338,-1.45448 -0.14183,-1.91685 0.64128,-0.0489 0.14182,1.91685 z M 177.3954,615.95272 c -0.51813,-0.53207 -1.26396,-1.14081 -1.40802,-1.25699 l 0.40196,-0.49722 c 0.1487,0.12082 0.92009,0.74816 1.4661,1.30811 z m 111.96959,-2.71844 -0.14183,-1.91685 0.63895,-0.0465 0.14183,1.91453 -0.63895,0.0489 z m -114.23961,-0.4159 -0.4066,-0.95958 c -0.0167,-0.0743 -0.10224,-0.44843 -0.20447,-0.92706 l 0.62734,-0.13012 c 0.0929,0.44378 0.17416,0.79695 0.19749,0.89686 l 0.37408,0.86432 z m 113.95614,-3.4178 -0.14182,-1.91453 0.63895,-0.0489 0.14182,1.91685 -0.63895,0.0465 z m -114.90643,-0.39266 c -0.0186,-0.17659 -0.0301,-0.32761 -0.0301,-0.45075 v -1.50792 h 0.63895 v 1.50792 c 0,0.10223 0.0111,0.23002 0.0279,0.37872 l -0.63663,0.0719 z m 114.62297,-3.43872 -0.14182,-1.91685 0.63895,-0.0465 0.14182,1.91685 z m -114.01423,-0.44378 h -0.64127 v -1.92382 h 0.64127 z m 113.73077,-3.38992 -0.14182,-1.91684 0.63895,-0.0465 0.14182,1.91685 -0.63895,0.0465 z m -113.73077,-0.45772 h -0.64127 v -1.92382 h 0.64127 z m 113.44731,-3.37597 -0.14182,-1.91453 0.63895,-0.0465 0.14182,1.91453 z m -113.42872,-0.46005 -0.63895,-0.0167 c 0.0208,-0.84109 0.0604,-1.47771 0.12305,-1.9517 l 0.6343,0.0814 c -0.058,0.45308 -0.0976,1.06879 -0.1184,1.88665 m 113.14294,-3.37133 -0.079,-1.08506 0.0208,-0.86432 0.64127,0.0167 -0.0232,0.83179 0.0814,1.05485 -0.64127,0.0465 z m -113.62622,-0.43217 c -0.0372,-0.30669 -0.0883,-0.63662 -0.1394,-0.98514 -0.0442,-0.29043 -0.0883,-0.5948 -0.13012,-0.91079 l 0.6343,-0.0861 c 0.0418,0.31366 0.0859,0.61571 0.13012,0.9015 0.0535,0.35548 0.10223,0.69238 0.14182,1.00605 l -0.63662,0.0743 z m 114.25819,-3.42244 -0.64127,-0.0167 0.0511,-1.9215 0.64127,0.0167 z M 173.7499,589.89018 c -0.20447,-0.73886 -0.49025,-1.33598 -0.69472,-1.70774 l 0.55996,-0.30902 c 0.22072,0.40196 0.53207,1.04788 0.7528,1.84715 l -0.61804,0.16971 z m -1.59389,-3.4178 -0.5344,-1.04788 0.035,-0.044 c -0.035,-0.17658 -0.0907,-0.46701 -0.1487,-0.80159 l 0.63198,-0.1093 c 0.0719,0.42055 0.14163,0.77139 0.16728,0.88989 l 0.41823,0.82018 -0.56925,0.29275 z m 116.52123,-0.0976 -0.64127,-0.0167 0.0186,-0.69704 -0.13235,-1.18031 0.63663,-0.0697 0.13476,1.22214 -0.0167,0.74118 z m -117.39253,-3.71056 c -0.0535,-0.34387 -0.22537,-0.95029 -0.51116,-1.79835 l 0.60875,-0.20447 c 0.29972,0.89453 0.47398,1.51722 0.53439,1.90291 l -0.63198,0.0998 z m 116.43527,-0.10223 c -0.0697,-0.70169 -0.13718,-1.3964 -0.18123,-1.9215 l 0.63663,-0.0534 c 0.0442,0.52278 0.11152,1.21052 0.18364,1.90988 l -0.63895,0.0651 z m -117.5877,-3.50145 c -0.158,-0.43216 -0.30437,-0.82018 -0.41358,-1.11061 l -0.10223,-0.27184 c -0.0511,-0.13235 -0.1,-0.28114 -0.15112,-0.44378 l 0.6134,-0.18588 c 0.0465,0.14647 0.0905,0.28346 0.13699,0.40428 l 0.10223,0.27185 c 0.10929,0.29275 0.2579,0.68077 0.4159,1.11525 l -0.60178,0.22073 z m 117.9943,-0.37407 h -0.64127 v -1.92382 h 0.64127 z m -119.10956,-3.35972 c -0.11394,-0.62036 -0.17881,-1.13152 -0.17881,-1.40569 0,-0.0626 -0.0232,-0.17658 -0.13235,-0.36013 l 0.54834,-0.32994 c 0.15112,0.25094 0.22537,0.47631 0.22537,0.69007 0,0.23002 0.0626,0.72492 0.16971,1.28952 l -0.63198,0.11617 z m 119.10956,-0.49025 h -0.63895 v -0.10446 c 0,-0.14405 -0.004,-0.28114 -0.009,-0.42055 -0.004,-0.1394 -0.007,-0.28113 -0.007,-0.42286 0,-0.26255 0.0111,-0.62037 0.10223,-1.03394 l 0.62501,0.13699 c -0.0766,0.35316 -0.0883,0.66683 -0.0883,0.89685 0,0.13718 0.004,0.26952 0.009,0.40661 0.006,0.14163 0.007,0.28811 0.007,0.43681 v 0.10446 z m -120.65466,-2.65571 -0.065,-0.0673 c -0.30205,-0.32296 -0.70866,-0.69936 -1.30579,-1.24073 l 0.42984,-0.47631 c 0.61107,0.55299 1.02697,0.941 1.34296,1.28023 l -0.40196,0.50419 z m 121.44232,-0.85503 -0.55299,-0.32296 c 0.44146,-0.75977 0.71098,-1.2384 0.91544,-1.60086 l 0.0325,-0.0604 0.55996,0.31367 -0.0348,0.0604 c -0.20447,0.36478 -0.47399,0.84574 -0.92009,1.61015 m -124.23975,-1.74491 -0.0929,-0.0837 c -0.68077,-0.62501 -0.67845,-0.62501 -0.70401,-0.65056 -0.021,-0.0232 -0.0604,-0.0628 -0.60177,-0.56925 l 0.43913,-0.46701 c 0.56692,0.52974 0.60874,0.57621 0.62966,0.59945 0.0232,0.0232 0.0232,0.0232 0.66683,0.61107 l 0.0883,0.0812 -0.42519,0.47864 z m 126.06134,-1.70077 -0.60642,-0.20679 c 0.17416,-0.51813 0.37639,-1.18728 0.56227,-1.82623 l 0.61572,0.179 c -0.1882,0.64824 -0.39267,1.32669 -0.57157,1.85411 m -128.7612,-1.15243 c -0.19284,-0.39964 -0.27649,-0.80624 -0.27649,-1.35922 0,-0.21144 0.0111,-0.43681 0.0303,-0.69007 l 0.63895,0.0489 c -0.0167,0.23467 -0.0279,0.4461 -0.0279,0.64127 0,0.45075 0.0626,0.77371 0.21143,1.07808 l -0.57621,0.28114 z m 129.85554,-2.56277 -0.61803,-0.16729 0.0673,-0.24861 c 0.004,-0.13476 0.0325,-0.54601 0.19517,-1.24537 l 0.0861,-0.37872 0.62501,0.13717 -0.0859,0.38802 c -0.14406,0.60874 -0.17417,0.97817 -0.179,1.09899 0,0.0149 -0.002,0.0279 -0.002,0.0418 v 0.002 c -0.007,0.0743 -0.0372,0.18123 -0.0883,0.37176 m -129.31883,-1.36852 -0.64127,-0.0186 c 0.004,-0.16505 0.007,-0.32993 0.007,-0.49024 0,-0.43449 -0.0167,-0.89221 -0.0487,-1.39872 l 0.63895,-0.0418 c 0.0325,0.52046 0.0511,0.99212 0.0511,1.44055 0,0.16728 -0.002,0.3369 -0.007,0.50883 m 130.06697,-2.42336 -0.62733,-0.12788 c 0.13718,-0.67613 0.27417,-1.36619 0.37408,-1.88432 l 0.62965,0.12081 c -0.10223,0.52046 -0.23931,1.21052 -0.3764,1.8913 m -130.91271,-1.3964 c -0.0186,-0.24861 -0.0303,-0.46701 -0.0303,-0.65289 0,-0.32993 -0.0208,-0.74815 -0.0558,-1.27093 l 0.63895,-0.0418 c 0.0396,0.5948 0.058,0.99908 0.058,1.31275 0,0.17194 0.009,0.37408 0.0279,0.6041 l -0.63895,0.0489 z m 131.31699,-2.4466 -0.64127,-0.0257 c 0.0232,-0.51116 0.23467,-1.06414 0.69007,-1.7937 l 0.0743,-0.11859 0.54601,0.33225 -0.0768,0.1277 c -0.50883,0.81321 -0.58318,1.23375 -0.59248,1.47771 M 161.4405,555.14002 c -0.0418,-0.56925 -0.0883,-1.2082 -0.13476,-1.91917 l 0.63895,-0.0418 c 0.0465,0.70866 0.0929,1.34528 0.13476,1.91221 l -0.63895,0.0489 z m 133.21758,-1.83088 -0.52975,-0.35782 c 0.32297,-0.48327 0.66684,-0.91079 1.22447,-1.53115 l 0.4763,0.42751 c -0.53671,0.59713 -0.86432,1.00606 -1.17102,1.46146 m -133.46851,-2.01212 c -0.0325,-0.68541 -0.0558,-1.32204 -0.0675,-1.93079 l 0.64127,-0.0111 c 0.0111,0.60178 0.0325,1.23143 0.0675,1.90988 l -0.64127,0.0325 z m 135.94531,-0.81088 -0.43448,-0.47166 c 0.22305,-0.20447 0.34852,-0.29043 0.46237,-0.36943 0.17193,-0.12082 0.32063,-0.22538 0.91311,-0.89685 l 0.48096,0.42286 c -0.6436,0.72957 -0.8225,0.85504 -1.02697,0.99909 -0.0976,0.0673 -0.20446,0.14164 -0.39499,0.31599 m 2.49772,-3.02049 -0.59713,-0.23002 c 0.17881,-0.46469 0.3764,-1.07344 0.58783,-1.80765 l 0.61572,0.17658 c -0.2184,0.7528 -0.42055,1.38013 -0.60642,1.86109 m -137.86681,-0.0186 -0.63895,-0.0149 c 0.0149,-0.6436 0.0442,-1.2779 0.0883,-1.93311 l 0.63895,0.0418 c -0.0418,0.64824 -0.0719,1.27325 -0.0883,1.90523 m 138.97277,-3.7152 -0.62268,-0.15577 c 0.1487,-0.58783 0.2974,-1.21284 0.44842,-1.86805 l 0.62269,0.14405 c -0.15093,0.65986 -0.30205,1.28952 -0.44843,1.87968 m -138.76599,-0.11859 -0.63895,-0.021 c 0.004,-0.18346 0.007,-0.35084 0.007,-0.50651 0,-0.46237 -0.0208,-0.81786 -0.0418,-1.17102 l -0.0112,-0.21376 0.63895,-0.0348 0.0112,0.21144 c 0.021,0.36478 0.0418,0.72956 0.0418,1.20819 0,0.16041 -0.002,0.33458 -0.007,0.52743 m 139.63496,-3.6455 -0.625,-0.13476 c 0.13011,-0.6134 0.26255,-1.24305 0.39731,-1.882 l 0.62501,0.13011 c -0.13253,0.64127 -0.26488,1.27093 -0.39732,1.88665 M 161.8959,539.76219 h -0.64127 v -1.92382 h 0.64127 z m 140.49232,-3.57347 -0.62966,-0.12547 c 0.12547,-0.62501 0.24629,-1.25699 0.3671,-1.88664 l 0.62966,0.1184 c -0.12082,0.63198 -0.24396,1.26396 -0.3671,1.89362 M 161.8959,535.91446 h -0.64127 v -1.92614 h 0.64127 z m 141.21259,-3.51306 -0.62966,-0.11859 c 0.1184,-0.63895 0.23467,-1.27093 0.34387,-1.8913 l 0.63198,0.11153 c -0.11152,0.62269 -0.22537,1.25699 -0.34619,1.89826 M 161.8959,532.06208 h -0.63895 l 0.0111,-1.94473 0.64128,0.0325 c -0.007,0.0952 -0.009,0.16487 -0.013,0.2184 v 0 1.6938 z m 141.89336,-3.4573 -0.63198,-0.11153 c 0.11394,-0.65521 0.22073,-1.28951 0.32296,-1.89594 l 0.62965,0.10465 c -0.0998,0.60875 -0.20678,1.24305 -0.32063,1.90291 m -141.7888,-0.38105 -0.63895,-0.0279 c 0.0303,-0.68077 0.0604,-1.39175 0.0744,-1.91917 l 0.63895,0.0186 c -0.013,0.52975 -0.0418,1.24537 -0.0744,1.92846 m 142.42078,-3.42709 -0.63198,-0.0998 c 0.11152,-0.704 0.20911,-1.34295 0.29275,-1.90058 l 0.63431,0.0929 c -0.0836,0.55995 -0.18346,1.20122 -0.29508,1.90755 M 161.36435,524.3925 c -0.0604,-0.65754 -0.13941,-1.37781 -0.20214,-1.90755 l 0.63662,-0.0744 c 0.0626,0.5344 0.14164,1.26164 0.20215,1.9215 l -0.63663,0.0604 z m 143.60807,-3.43174 -0.63663,-0.0651 c 0.0167,-0.17416 0.0257,-0.29972 0.0257,-0.37407 l -0.11394,-0.36479 c -0.0883,-0.27184 -0.20214,-0.62268 -0.31599,-0.98979 l 0.61339,-0.19052 c 0.11153,0.36478 0.22538,0.7133 0.31134,0.98282 l 0.12547,0.39034 c 0.0149,0.0465 0.021,0.0952 0.021,0.17194 0,0.0883 -0.009,0.23699 -0.0301,0.43913 m -143.26419,-0.43681 h -0.64128 v -1.92614 h 0.64128 z m 141.72142,-3.26678 c -0.0149,-0.0998 -0.021,-0.18587 -0.021,-0.25558 0,-0.13011 -0.0301,-0.37407 -0.065,-0.70168 -0.0301,-0.27649 -0.0675,-0.60642 -0.1,-0.97353 l 0.63895,-0.058 c 0.0325,0.36246 0.0675,0.69007 0.0976,0.96191 0.0394,0.36013 0.0673,0.62966 0.0673,0.77139 0,0.044 0.007,0.0998 0.0167,0.16505 l -0.63431,0.0905 z M 161.70847,516.6693 h -0.64128 v -1.89826 l 0.64128,-0.0303 v 1.92847 z m 142.08852,-3.28769 -0.64127,-0.007 c 0.007,-0.73654 0.0673,-1.39872 0.18123,-1.97029 l 0.62966,0.12546 c -0.10688,0.53207 -0.16506,1.15476 -0.16971,1.8518 m -142.08853,-0.56693 h -0.64127 v -1.92614 h 0.64127 z m 141.69354,-3.24354 c -0.0349,-0.52975 -0.0883,-1.17334 -0.16041,-1.9122 l 0.63895,-0.0628 c 0.0721,0.74815 0.12789,1.39872 0.16264,1.93312 l -0.64127,0.0418 z m -141.69354,-0.60642 h -0.64127 v -0.6738 c 0,-0.22538 -0.044,-0.62733 -0.13699,-1.19426 l 0.6343,-0.1 c 0.0976,0.60875 0.14406,1.03161 0.14406,1.29417 v 0.6738 z m 141.33341,-3.22031 c -0.0673,-0.60177 -0.14182,-1.24072 -0.22073,-1.9122 l 0.63663,-0.0766 c 0.079,0.6738 0.15335,1.31507 0.22073,1.91917 l -0.63663,0.0697 z m -142.44867,-0.53207 -0.36478,-1.89129 0.62733,-0.11859 0.36479,1.88897 -0.62734,0.12082 z m 141.9956,-3.29233 c -0.0768,-0.61804 -0.15577,-1.25699 -0.23932,-1.91221 l 0.6343,-0.0814 c 0.0836,0.65754 0.16506,1.29416 0.24164,1.91453 l -0.63662,0.079 z m -142.6601,-0.55763 c -0.002,-0.3369 -0.0325,-0.99444 -0.0883,-1.90756 l 0.63895,-0.0396 c 0.0396,0.6436 0.0883,1.50327 0.0907,1.94008 l -0.64127,0.007 z m 142.17217,-3.26213 -0.25093,-1.90988 0.6343,-0.0837 0.25326,1.90988 -0.63663,0.0836 z m -141.70284,-0.57622 -0.64127,-0.0232 0.0719,-1.91918 0.63895,0.0232 -0.0697,1.91917 z m 141.19633,-3.24122 -0.26023,-1.90988 0.6343,-0.0859 0.26023,1.90988 z m -141.05459,-0.59945 -0.64128,-0.0232 0.0721,-1.91918 0.63895,0.0232 -0.0697,1.91917 z m 140.53181,-3.21566 -0.2672,-1.90988 0.63431,-0.0907 0.26719,1.91453 -0.6343,0.0859 z m -140.39008,-0.62269 -0.64128,-0.0256 0.0719,-1.91917 0.63895,0.0232 -0.0697,1.9215 z m 139.85569,-3.19475 -0.26953,-1.90755 0.63431,-0.0883 0.26952,1.90523 -0.6343,0.0907 z m -139.71396,-0.64592 -0.64128,-0.0256 0.0719,-1.91917 0.64127,0.0232 -0.0719,1.9215 z m 139.17259,-3.16686 -0.27417,-1.90756 0.63431,-0.0907 0.27416,1.90756 z m -138.97045,-0.61572 -0.62734,-0.12547 0.3764,-1.88432 0.62734,0.12547 z m 138.41979,-3.19707 -0.27649,-1.90756 0.6343,-0.0929 0.27649,1.90756 z m -137.59497,-0.53672 -0.61804,-0.16041 0.48328,-1.86109 0.62037,0.16264 -0.48561,1.85877 z m 137.03967,-3.2784 -0.28114,-1.90755 0.6343,-0.0929 0.28114,1.90756 -0.6343,0.0929 z m -136.11261,-0.46701 -0.62501,-0.14182 c 0.13012,-0.56693 0.28346,-1.2384 0.42984,-1.87968 l 0.62501,0.14406 c -0.1487,0.64127 -0.30205,1.31042 -0.42984,1.87735 m 135.55033,-3.35042 -0.28578,-1.90988 0.63197,-0.0929 0.28579,1.90988 z m -134.67671,-0.39731 -0.62269,-0.15094 c 0.0626,-0.25325 0.11153,-0.43681 0.13941,-0.52742 0.0837,-0.26952 0.17658,-0.70168 0.28811,-1.32669 l 0.62966,0.11152 c -0.11618,0.65986 -0.21376,1.10829 -0.3067,1.40569 -0.0279,0.0836 -0.0697,0.25558 -0.1277,0.48793 m 133.91462,-3.3086 -0.65057,-1.80765 0.6041,-0.21608 0.65057,1.80765 z m -133.17111,-0.48793 -0.6343,-0.10223 c 0.12769,-0.79694 0.24396,-1.41963 0.35084,-1.90755 l 0.62501,0.13717 c -0.10465,0.47631 -0.21841,1.08738 -0.34155,1.87271 m 131.86998,-3.12737 -0.65057,-1.80765 0.6041,-0.2184 0.65056,1.80997 z m -131.89095,-0.7044 c -0.002,-0.73421 -0.0511,-1.5753 -0.0744,-1.90291 l 0.64127,-0.0418 c 0.0208,0.33458 0.0719,1.18961 0.0744,1.94241 l -0.64127,0.002 z m 130.67804,-3.02746 -0.0861,-1.91917 0.63895,-0.0303 0.0883,1.9215 -0.64127,0.0279 z m -130.03909,-0.80159 -0.63895,-0.0303 0.0883,-1.91917 0.64127,0.0303 -0.0907,1.91918 z m 129.86716,-3.03676 -0.0883,-1.92149 0.64127,-0.0279 0.0861,1.91918 -0.63895,0.0303 z m -129.69523,-0.80391 -0.63895,-0.0279 0.0814,-1.91918 0.64127,0.0279 -0.0836,1.91918 z m 129.52097,-3.03676 -0.0883,-1.91917 0.64127,-0.0279 0.0861,1.91917 -0.63895,0.0279 z m -129.34671,-0.79927 -0.64127,-0.0325 0.1,-1.91918 0.64127,0.0325 -0.1,1.91917 z m 129.17245,-3.03907 -0.0279,-0.63431 -0.36014,-1.15243 0.61107,-0.19052 0.38569,1.27325 0.0325,0.6738 -0.64127,0.0303 z m -128.89596,-0.76907 -0.63662,-0.079 0.23234,-1.90756 0.63663,0.079 -0.23235,1.90755 z m 127.93405,-2.85552 -0.38105,-1.22446 c -0.0465,-0.14647 -0.10929,-0.36246 -0.18123,-0.62966 l 0.61804,-0.16952 c 0.0697,0.25791 0.13011,0.46702 0.17417,0.60875 l 0.38104,1.22446 -0.61106,0.19052 z m -127.40198,-0.81554 -0.56692,-0.30204 0.90615,-1.6938 0.5646,0.30205 z m 126.34248,-2.90431 c -0.15576,-0.60642 -0.32063,-1.25234 -0.47863,-1.86806 l 0.62036,-0.158 c 0.158,0.6134 0.32296,1.25932 0.47864,1.86342 z m -124.78344,-0.68542 -0.63198,-0.10223 c 0.0814,-0.50652 0.19053,-1.178 0.31135,-1.90291 l 0.63198,0.10446 c -0.12082,0.72492 -0.2277,1.39407 -0.31135,1.90058 m 123.83315,-3.05069 -0.26023,-1.03394 -0.30902,-0.7528 0.59248,-0.24628 0.21841,0.52974 0.0396,-0.004 0.33923,1.35225 -0.62037,0.15576 z m -123.20349,-0.75048 -0.63198,-0.10688 c 0.1184,-0.70633 0.23467,-1.37316 0.32993,-1.90058 l 0.62966,0.11376 c -0.0954,0.5251 -0.20912,1.19193 -0.32761,1.89361 m 121.89539,-2.80906 -0.73654,-1.77511 0.59016,-0.24629 0.73886,1.77512 z m -121.09845,-0.89685 -0.60409,-0.21376 c 0.16041,-0.45075 0.31134,-0.8527 0.31134,-0.8527 l 0.002,0.002 c 0.0766,-0.2579 0.30669,-0.83644 0.35781,-0.96888 l 0.5948,0.237 c -0.20911,0.52742 -0.34387,0.92473 -0.35316,0.94332 -0.002,0.0149 -0.15112,0.40893 -0.30902,0.85271 m 119.62072,-2.64874 -0.74815,-1.77047 0.59016,-0.24861 0.74815,1.76815 z m -118.16392,-0.85039 -0.55762,-0.31599 c 0.12082,-0.21143 0.24396,-0.4066 0.3671,-0.57157 0.16729,-0.22305 0.32529,-0.42751 0.47863,-0.62268 l 0.30438,-0.39731 0.50883,0.38801 -0.30902,0.40196 c -0.1487,0.19285 -0.30437,0.39499 -0.47166,0.61572 -0.10688,0.14405 -0.21608,0.31599 -0.32064,0.50186 m 116.66762,-2.69056 -0.74815,-1.76814 0.59015,-0.25094 0.74816,1.77047 z m -114.47427,-0.45772 -0.55763,-0.31831 c 0.0766,-0.13011 0.15334,-0.26952 0.23234,-0.41822 0.33923,-0.63198 0.48096,-0.96888 0.59481,-1.2384 l 0.30669,0.0998 0.28346,0.1487 c -0.11394,0.2672 -0.26719,0.63431 -0.62036,1.29184 -0.0814,0.15335 -0.16264,0.29741 -0.23931,0.43449 m 112.91988,-3.04605 c -0.25326,-0.52045 -0.55066,-1.13152 -0.85039,-1.72168 l 0.57157,-0.28811 c 0.29973,0.59248 0.60178,1.2082 0.85503,1.7333 z m -111.14244,-0.39499 -0.59481,-0.23699 0.0372,-0.0929 c 0.179,-0.45539 0.38105,-0.9712 1.07344,-1.61712 l 0.4368,0.46934 c -0.58551,0.54601 -0.74582,0.95261 -0.91544,1.38245 l -0.0372,0.0952 z m 109.39985,-3.01352 c -0.23699,-0.41125 -0.34387,-0.55065 -0.3857,-0.5948 -0.12323,-0.13011 -0.42054,-0.41125 -0.81321,-0.77139 l 0.43449,-0.47166 c 0.44843,0.41125 0.72492,0.67613 0.84574,0.80392 0.0697,0.0766 0.19749,0.23234 0.47398,0.71562 z m -107.22975,-0.0859 -0.58318,-0.26255 0.058,-0.13011 c 0.14647,-0.32761 0.31134,-0.70169 0.63663,-1.13617 0.12305,-0.16506 0.23699,-0.30902 0.34387,-0.43681 l 0.49489,0.4066 c -0.1,0.12082 -0.20911,0.2579 -0.32528,0.41358 -0.28346,0.3764 -0.42054,0.68774 -0.5646,1.01302 l -0.0604,0.13235 z m 104.60424,-2.56974 c -0.49489,-0.4461 -0.99908,-0.89453 -1.43357,-1.28255 l 0.42519,-0.47863 c 0.43449,0.38802 0.941,0.83877 1.43822,1.28487 z m -102.41089,-0.47166 -0.51813,-0.38105 c 0.19052,-0.2579 0.64592,-0.74118 1.35457,-1.43822 l 0.44843,0.4554 c -0.85039,0.83877 -1.1687,1.20355 -1.28487,1.36387 m 99.53678,-2.07485 -1.48469,-1.21981 0.40661,-0.4949 1.48469,1.22214 z m -96.86714,-0.61804 -0.43913,-0.46469 0.46469,-0.43681 1.14314,-0.71794 0.33923,0.54136 -1.09435,0.6831 z m 93.89777,-1.82158 -1.48469,-1.21982 0.4066,-0.49489 1.48469,1.21981 z m -90.76575,-0.14647 -0.22305,-0.59946 c 0.42752,-0.15799 1.08505,-0.4066 1.78906,-0.69239 l 0.23932,0.59481 c -0.71098,0.28811 -1.37317,0.53672 -1.80533,0.69704 m 3.58974,-1.4661 -0.27185,-0.58087 c 1.20588,-0.56692 1.44752,-0.8225 1.49166,-0.88523 l 0.5251,0.36478 -0.25325,-0.19517 0.25558,0.19284 c -0.1277,0.18346 -0.44378,0.49025 -1.74724,1.10365 m 84.20663,-0.82715 -1.20355,-0.9898 -0.25325,-0.11375 0.26022,-0.58319 0.36478,0.17417 1.23841,1.01767 z m -80.96541,-1.23376 -0.29508,-0.56692 c 0.52742,-0.27649 1.13152,-0.56925 1.74027,-0.85503 l 0.27184,0.58086 c -0.59945,0.28114 -1.19658,0.56925 -1.71703,0.84109 m 77.7544,-0.65057 -0.2277,-0.10223 c 0,0 -0.6343,-0.28114 -1.5358,-0.69006 l 0.26487,-0.58319 c 0.89918,0.4066 1.53116,0.68774 1.53116,0.69007 l 0.22769,0.1 -0.26022,0.58551 z m -74.29246,-0.99443 -0.26487,-0.58319 c 0.69007,-0.31367 1.2384,-0.56692 1.52651,-0.72027 l 0.18123,-0.1 0.31831,0.5553 c -0.0697,0.0396 -0.13717,0.0766 -0.19749,0.1093 -0.30437,0.16264 -0.862,0.42054 -1.56369,0.73886 m 70.77475,-0.60178 c -0.58319,-0.26952 -1.18496,-0.55066 -1.74724,-0.82018 l 0.27649,-0.57622 c 0.55995,0.2672 1.1594,0.54602 1.74027,0.81554 z m -67.36856,-1.28952 -0.35549,-0.53207 c 0.58783,-0.39498 1.1687,-0.79694 1.58227,-1.08505 l 0.36711,0.5251 c -0.4159,0.28811 -1.00141,0.69471 -1.59389,1.09202 m 63.8857,-0.38801 c -0.60642,-0.31832 -0.7923,-0.44611 -0.87827,-0.51581 -0.26487,-0.21376 -0.42519,-0.42287 -0.58086,-0.62501 l -0.11153,-0.14405 0.50187,-0.39964 0.11617,0.15335 c 0.14629,0.1882 0.26952,0.35084 0.47399,0.51348 0.058,0.0489 0.23467,0.16729 0.77371,0.45075 z m -60.76995,-1.93079 -0.41822,-0.48328 1.44983,-1.26164 0.42055,0.48328 z m 57.77966,-0.37176 c -0.1394,-0.0626 -0.29043,-0.12546 -0.45772,-0.19052 -0.43216,-0.16729 -0.87362,-0.34619 -1.31507,-0.52742 l 0.24396,-0.59248 c 0.43681,0.18122 0.87362,0.35548 1.30346,0.52277 0.17658,0.0697 0.33922,0.13718 0.48792,0.20447 z m -3.54791,-1.48004 c -0.61572,-0.27416 -1.2082,-0.55066 -1.75189,-0.81553 l 0.28114,-0.57622 c 0.53672,0.26255 1.12223,0.5344 1.7333,0.80857 z m -51.27632,-0.53904 -0.35781,-0.53439 c 0.48328,-0.32296 1.08506,-0.72957 1.58227,-1.08273 l 0.36943,0.5251 c -0.50186,0.35316 -1.10828,0.76441 -1.59389,1.09202 m 47.8074,-1.17334 c -0.57389,-0.31599 -1.15476,-0.64592 -1.67986,-0.94565 l 0.31832,-0.5553 c 0.52045,0.2974 1.09899,0.625 1.67056,0.94099 z m -44.71952,-1.25699 -0.49955,-0.40196 c 0.31599,-0.38802 0.69472,-0.90382 1.1292,-1.53116 l 0.5251,0.36479 c -0.44145,0.64127 -0.83179,1.16869 -1.15475,1.56833 m 41.37375,-0.62733 c -0.18346,-0.0954 -0.29276,-0.14183 -0.37873,-0.17659 -0.29275,-0.12082 -0.39498,-0.17881 -1.24537,-0.95494 l 0.43217,-0.47166 c 0.79926,0.72724 0.8527,0.75048 1.05717,0.83412 0.0976,0.0418 0.22537,0.0929 0.43448,0.20447 z m -39.08051,-2.42801 -0.46701,-0.43681 1.31275,-1.40337 0.46934,0.43681 z m 36.09487,-0.12547 c -0.54601,-0.68774 -0.62966,-0.93171 -0.57622,-1.06647 l 0.0279,-0.90847 0.64128,0.021 -0.0301,0.92009 c 0.0558,0.0998 0.1882,0.32063 0.43914,0.6343 l -0.50187,0.39963 z m -33.88526,-3.08787 -0.61107,-0.19052 0.57389,-1.83553 0.61107,0.19052 z m 34.04325,-0.78533 -0.64127,-0.0208 0.0651,-1.92149 0.63895,0.0208 -0.0626,1.9215 z m -33.02325,-2.95311 -0.62734,-0.1277 c 0.13941,-0.68309 0.25094,-1.15243 0.32529,-1.39639 0.0489,-0.15558 0.14647,-0.33458 0.29972,-0.54601 l 0.52046,0.37407 c -0.14647,0.20214 -0.19285,0.31599 -0.20911,0.36478 -0.0673,0.21841 -0.17417,0.67845 -0.30902,1.33134 m 32.40754,-0.88291 c -0.035,-0.62036 -0.079,-1.38013 -0.10223,-1.92847 l 0.63895,-0.0279 c 0.0255,0.54601 0.0673,1.30114 0.10223,1.91918 l -0.63895,0.0372 z m -30.56737,-2.43266 h -0.64127 v -1.92382 h 0.64127 z m 31.0855,-1.43357 h -0.64128 v -1.13384 c 0,-0.23467 -0.058,-0.43217 -0.12081,-0.6436 l 0.2974,-0.12788 0.30669,-0.0905 c 0.079,0.27184 0.158,0.53671 0.158,0.862 v 1.13384 z m -31.0855,-2.41174 h -0.64127 v -0.74816 c 0,-0.22769 -0.0279,-0.62036 -0.0837,-1.13849 l 0.63663,-0.0697 c 0.058,0.54833 0.0883,0.95494 0.0883,1.20819 v 0.74816 z m 31.24117,-1.17102 -0.57854,-0.27417 c 0.0651,-0.13941 0.0861,-0.21144 0.10465,-0.27882 0.0604,-0.22305 0.12769,-0.40195 0.67845,-1.22678 0.0511,-0.0766 0.10223,-0.1487 0.15334,-0.22073 l 0.51813,0.37872 c -0.0465,0.0626 -0.0929,0.1277 -0.1394,0.1975 -0.52046,0.78068 -0.55763,0.90847 -0.59481,1.04323 -0.0232,0.0907 -0.0511,0.19052 -0.14182,0.38105 m -32.3239,-2.5558 -0.45075,-1.882 0.62733,-0.13253 0.14164,0.67148 0.30205,1.18496 -0.62036,0.15799 z m 34.49401,-0.3067 -0.3462,-0.53904 c 0.20911,-0.13235 0.37872,-0.21841 0.49025,-0.26952 l 0.46701,-1.06414 0.58552,0.25558 -0.57157,1.3081 -0.13012,0.0465 c -0.007,0.002 -0.20446,0.0768 -0.49489,0.26255 m 1.97029,-3.37598 -0.58784,-0.2579 0.77139,-1.75886 0.58783,0.25558 z m -37.31468,-0.0768 -0.39964,-1.87967 0.62501,-0.13476 0.40196,1.87967 z m 38.86674,-3.46427 -0.34387,-0.13476 -0.26487,-0.0442 0.30902,-1.87502 0.63198,0.10465 -0.33226,1.94937 z m -39.67763,-0.0489 -0.0372,-0.021 -0.013,0.009 -0.0167,-0.0256 -1.00141,-0.53207 h -0.44146 v -0.64128 h 0.53672 l 0.13718,0.0372 1.20587,0.64359 0.10465,0.15094 -0.43449,0.30437 -0.0396,0.0743 z m -3.16454,-1.53348 -0.52046,-0.55531 -0.67612,-1.00605 0.53207,-0.35549 0.6436,0.96423 0.48792,0.51581 z m 43.54618,-2.15384 -0.57854,-0.26952 0.81321,-1.7426 0.58086,0.27185 z m -45.71861,-1.16173 -0.31367,-1.0107 c -0.004,0 -0.16041,-0.33923 -0.32064,-0.78998 l 0.6041,-0.21376 c 0.1487,0.42287 0.29741,0.74119 0.31135,0.77139 l 0.009,0.0442 0.007,-0.002 0.31367,1.0107 -0.61107,0.19053 z m 46.95933,-2.53024 -0.63198,-0.10223 c 0.0511,-0.32297 0.10688,-0.65987 0.16265,-0.96192 0.058,-0.30901 0.11617,-0.56459 0.16952,-0.79694 l 0.0325,-0.14647 0.62734,0.13941 -0.0349,0.15093 c -0.0511,0.22305 -0.10929,0.47166 -0.16506,0.77139 -0.0558,0.29507 -0.10911,0.625 -0.16022,0.94564 m -47.29856,-1.24769 -0.64128,-0.0167 c 0.0149,-0.54137 0.0836,-0.98747 0.0861,-1.00606 l -0.002,-0.90615 h 0.63895 v 0.95494 c -0.004,0.0533 -0.0697,0.47631 -0.0814,0.97353 m 47.84922,-2.58833 -0.63895,-0.0167 c 0.0112,-0.51116 0.0442,-1.23607 0.0766,-1.93079 l 0.63895,0.0303 c -0.0325,0.69007 -0.0626,1.41034 -0.0766,1.91685 m -47.7679,-1.26396 h -0.63895 v -1.37548 c 0,-0.20679 0.0301,-0.41822 0.0929,-0.62734 l 0.61572,0.18123 c -0.0465,0.15094 -0.0673,0.30205 -0.0697,0.44843 v 1.37316 z m 47.94216,-2.57439 -0.64127,-0.0349 0.079,-1.91685 0.63895,0.0256 -0.0766,1.92614 z m -46.89196,-0.75512 -0.51348,-0.38337 0.1487,-0.19981 v -1.45913 h 0.64128 v 1.67288 z m 47.04299,-3.09252 -0.63895,-0.0232 0.0766,-1.34296 c 0,0 0.079,-0.17416 0.21608,-0.62036 l 0.61339,0.1882 c -0.10688,0.34852 -0.18346,0.54601 -0.22073,0.63895 l -0.0465,1.1594 z m -46.76649,-0.87129 h -0.64128 v -1.9215 h 0.64128 z m 47.51696,-2.81138 -0.62501,-0.13941 c 0.0743,-0.32993 0.15335,-0.70168 0.23699,-1.11758 0.0558,-0.27417 0.10688,-0.5251 0.15577,-0.75745 l 0.62501,0.13012 -0.15335,0.7528 c -0.0836,0.42054 -0.16506,0.79694 -0.23932,1.13152 m -47.47746,-0.96888 -0.62966,-0.11617 0.35317,-1.88897 0.62965,0.11617 z m 48.27906,-2.78582 -0.62501,-0.13941 c 0.1394,-0.61804 0.18587,-0.85968 0.18587,-1.14779 0,-0.12769 -0.007,-0.36943 -0.0208,-0.67148 l 0.64128,-0.0279 c 0.013,0.31599 0.0208,0.56693 0.0208,0.69936 0,0.36943 -0.0651,0.67845 -0.20214,1.2872 m -47.67264,-1.03859 -0.63895,-0.0511 0.1277,-1.51722 0.15111,-0.45075 0.60643,0.20214 -0.137,0.4159 -0.10929,1.40104 z m 47.11733,-2.83926 -0.0697,-1.18728 -0.237,-0.58319 0.59249,-0.24164 0.28346,0.73421 0.0697,1.24305 -0.63895,0.0349 z m -46.2623,-0.79927 -0.60642,-0.20446 0.61571,-1.82159 0.60643,0.20679 z m 45.22604,-2.74864 -0.33922,-0.82948 -0.4554,-0.88988 0.57157,-0.29043 0.46469,0.91312 0.35084,0.8527 z m -43.91561,-0.82715 -0.58087,-0.2672 c 0.24861,-0.54834 0.56925,-1.25699 0.76907,-1.74956 l 0.5948,0.24164 c -0.20678,0.49954 -0.52975,1.21981 -0.783,1.77512 m 42.21716,-2.5256 -1.12687,-1.55671 0.51813,-0.3764 1.12687,1.55904 z m -40.79753,-1.08505 -0.60642,-0.20911 0.34387,-0.95029 0.58783,-0.81554 0.52046,0.37408 -0.55996,0.77836 z m 38.54378,-2.02838 -0.70865,-0.98282 -0.46004,-0.4856 0.46701,-0.43913 0.4856,0.51813 0.73654,1.01302 z m -36.57582,-1.13152 -0.52045,-0.3764 0.18588,-0.25558 1.20355,-1.15011 0.44145,0.46237 -1.16405,1.10829 -0.14647,0.21143 z m 34.09437,-1.74027 -1.31275,-1.40336 0.46702,-0.43914 1.31275,1.40337 z m -31.34572,-0.81088 -0.40196,-0.49954 1.49863,-1.20123 0.40196,0.49954 z m 28.70163,-1.97029 -1.34295,-1.37549 0.45772,-0.4461 1.34295,1.37549 z m -25.65558,-0.31134 -0.34155,-0.54137 c 0.46702,-0.2974 1.05253,-0.66915 1.6241,-1.03161 l 0.34387,0.53904 c -0.57157,0.36478 -1.15708,0.73653 -1.62642,1.03394 m 3.25051,-2.07717 -0.35084,-0.53672 c 0.24396,-0.16041 0.42984,-0.28346 0.52045,-0.34852 0.23932,-0.1697 0.65754,-0.34155 1.28255,-0.52742 l 0.18346,0.61339 c -0.72027,0.21376 -0.99444,0.36478 -1.09435,0.43681 -0.0929,0.0651 -0.28578,0.19517 -0.54136,0.36246 m 19.71916,-0.36014 -0.76442,-0.78533 -0.62501,-0.15799 0.15558,-0.62036 0.80159,0.20214 0.89221,0.91312 -0.46005,0.44842 z m -16.24327,-0.87594 -0.12082,-0.62733 1.88664,-0.36711 0.12082,0.62733 z m 12.99043,-0.54136 -1.40569,-0.35782 -0.41125,-0.0232 0.0418,-0.63895 0.46934,0.0325 1.46378,0.3671 -0.158,0.62037 z m -9.21714,-0.19053 -0.12082,-0.62965 1.88432,-0.36711 0.12305,0.62966 -1.88665,0.3671 z m 5.48103,-0.31831 -0.6436,-0.0418 h -1.25467 v -0.64128 h 1.27558 l 0.66683,0.0442 -0.0442,0.63895 z"
         style="fill:#007a6d;fill-opacity:1;fill-rule:nonzero;stroke:none"
         id="path16290" />
      <g
         transform="matrix(2.3234544,0,0,-2.3234544,232.47032,427.2075)"
         id="g16292">
        <path
           id="path16294"
           style="fill:#007a6d;fill-opacity:1;fill-rule:nonzero;stroke:none"
           d="m 0,0 c 0,-0.252 0.191,-0.456 0.426,-0.456 0.236,0 0.427,0.204 0.427,0.456 0,0.252 -0.191,0.456 -0.427,0.456 C 0.191,0.456 0,0.252 0,0"
           inkscape:connector-curvature="0" />
      </g>
      <g
         transform="matrix(2.3234544,0,0,-2.3234544,232.47032,452.69583)"
         id="g16296">
        <path
           id="path16298"
           style="fill:#007a6d;fill-opacity:1;fill-rule:nonzero;stroke:none"
           d="m 0,0 c 0,-0.252 0.191,-0.456 0.426,-0.456 0.236,0 0.427,0.204 0.427,0.456 0,0.252 -0.191,0.456 -0.427,0.456 C 0.191,0.456 0,0.252 0,0"
           inkscape:connector-curvature="0" />
      </g>
      <g
         transform="matrix(2.3234544,0,0,-2.3234544,233.46104,478.18386)"
         id="g16300">
        <path
           id="path16302"
           style="fill:#007a6d;fill-opacity:1;fill-rule:nonzero;stroke:none"
           d="m 0,0 c 0,-0.252 0.191,-0.456 0.427,-0.456 0.235,0 0.426,0.204 0.426,0.456 0,0.252 -0.191,0.456 -0.426,0.456 C 0.191,0.456 0,0.252 0,0"
           inkscape:connector-curvature="0" />
      </g>
      <g
         transform="matrix(2.3234544,0,0,-2.3234544,234.4527,503.67192)"
         id="g16304">
        <path
           id="path16306"
           style="fill:#007a6d;fill-opacity:1;fill-rule:nonzero;stroke:none"
           d="m 0,0 c 0,-0.252 0.191,-0.456 0.426,-0.456 0.236,0 0.427,0.204 0.427,0.456 0,0.252 -0.191,0.456 -0.427,0.456 C 0.191,0.456 0,0.252 0,0"
           inkscape:connector-curvature="0" />
      </g>
      <g
         transform="matrix(2.3234544,0,0,-2.3234544,234.94737,529.15999)"
         id="g16308">
        <path
           id="path16310"
           style="fill:#007a6d;fill-opacity:1;fill-rule:nonzero;stroke:none"
           d="m 0,0 c 0,-0.252 0.191,-0.456 0.427,-0.456 0.235,0 0.426,0.204 0.426,0.456 0,0.252 -0.191,0.456 -0.426,0.456 C 0.191,0.456 0,0.252 0,0"
           inkscape:connector-curvature="0" />
      </g>
      <g
         transform="matrix(2.3234544,0,0,-2.3234544,236.43369,554.64784)"
         id="g16312">
        <path
           id="path16314"
           style="fill:#007a6d;fill-opacity:1;fill-rule:nonzero;stroke:none"
           d="m 0,0 c 0,-0.252 0.191,-0.456 0.426,-0.456 0.236,0 0.427,0.204 0.427,0.456 0,0.252 -0.191,0.456 -0.427,0.456 C 0.191,0.456 0,0.252 0,0"
           inkscape:connector-curvature="0" />
      </g>
      <g
         transform="matrix(2.3234544,0,0,-2.3234544,213.11573,388.67721)"
         id="g16316">
        <path
           id="path16318"
           style="fill:#007a6d;fill-opacity:1;fill-rule:nonzero;stroke:none"
           d="m 0,0 -1.919,-3.19 c 0,0 -1.386,-1.709 -1.812,-1.937 -0.427,-0.228 -2.026,-1.026 -2.026,-1.026 l 3.412,-4.671 5.65,2.621 5.757,-4.786 4.052,6.495 5.117,-3.988 1.386,4.671 -0.746,0.57 c 0,0 -3.092,1.937 -3.518,2.051 -0.427,0.114 -1.067,0.228 -1.067,0.228 l -5.117,-9.115 z"
           inkscape:connector-curvature="0" />
      </g>
      <g
         transform="matrix(2.3234544,0,0,-2.3234544,213.11573,388.67721)"
         id="g16320">
        <path
           id="path16322"
           style="fill:none;stroke:#007a6d;stroke-width:0.27599999;stroke-linecap:butt;stroke-linejoin:miter;stroke-miterlimit:4;stroke-dasharray:none;stroke-opacity:1"
           d="m 0,0 -1.919,-3.19 c 0,0 -1.386,-1.709 -1.812,-1.937 -0.427,-0.228 -2.026,-1.026 -2.026,-1.026 l 3.412,-4.671 5.65,2.621 5.757,-4.786 4.052,6.495 5.117,-3.988 1.386,4.671 -0.746,0.57 c 0,0 -3.092,1.937 -3.518,2.051 -0.427,0.114 -1.067,0.228 -1.067,0.228 l -5.117,-9.115 z"
           inkscape:connector-curvature="0" />
      </g>
      <g
         transform="matrix(2.3234544,0,0,-2.3234544,243.33736,562.07566)"
         id="g16324">
        <path
           id="path16326"
           style="fill:none;stroke:#007a6d;stroke-width:0.207;stroke-linecap:butt;stroke-linejoin:miter;stroke-miterlimit:4;stroke-dasharray:none;stroke-opacity:1"
           d="m 0,0 -0.533,11.622 -0.107,2.279 -0.64,21.306 c 0,0 -0.959,20.965 -1.172,23.016 -0.213,2.05 -1.493,3.418 -1.493,3.418"
           inkscape:connector-curvature="0" />
      </g>
      <g
         transform="matrix(2.3234544,0,0,-2.3234544,283.72155,560.53339)"
         id="g16328">
        <path
           id="path16330"
           style="fill:#007a6d;fill-opacity:1;fill-rule:nonzero;stroke:none"
           d="m 0,0 c 0,0 -11.354,-2.518 -17.977,-2.189 -6.623,0.328 -15.612,0.766 -18.608,1.423 -2.996,0.657 -6.465,1.313 -8.516,1.97 -2.05,0.657 -1.576,-3.941 0.474,-4.597 2.049,-0.657 5.518,-1.314 8.515,-1.971 2.996,-0.656 11.985,-1.095 18.608,-1.423 6.623,-0.328 17.977,2.19 17.977,2.19 z"
           inkscape:connector-curvature="0" />
      </g>
      <g
         transform="matrix(2.3234544,0,0,-2.3234544,283.72155,560.53339)"
         id="g16332">
        <path
           id="path16334"
           style="fill:none;stroke:#007a6d;stroke-width:0.27599999;stroke-linecap:butt;stroke-linejoin:miter;stroke-miterlimit:4;stroke-dasharray:none;stroke-opacity:1"
           d="m 0,0 c 0,0 -11.354,-2.518 -17.977,-2.189 -6.623,0.328 -15.612,0.766 -18.608,1.423 -2.996,0.657 -6.465,1.313 -8.516,1.97 -2.05,0.657 -1.576,-3.941 0.474,-4.597 2.049,-0.657 5.518,-1.314 8.515,-1.971 2.996,-0.656 11.985,-1.095 18.608,-1.423 6.623,-0.328 17.977,2.19 17.977,2.19 z"
           inkscape:connector-curvature="0" />
      </g>
      <g
         transform="matrix(2.3234544,0,0,-2.3234544,245.92755,577.78664)"
         id="g16336">
        <path
           id="path16338"
           style="fill:#ffffff;fill-opacity:1;fill-rule:nonzero;stroke:none"
           d="M 0,0 H -3.576 V 6.745 H -0.07 Z"
           inkscape:connector-curvature="0" />
      </g>
      <g
         transform="matrix(2.3234544,0,0,-2.3234544,245.92755,577.78664)"
         id="g16340">
        <path
           id="path16342"
           style="fill:none;stroke:#007a6d;stroke-width:0.27599999;stroke-linecap:butt;stroke-linejoin:miter;stroke-miterlimit:4;stroke-dasharray:none;stroke-opacity:1"
           d="M 0,0 H -3.576 V 6.745 H -0.07 Z"
           inkscape:connector-curvature="0" />
      </g>
      <g
         transform="matrix(2.3234544,0,0,-2.3234544,190.73064,560.39932)"
         id="g16352">
        <path
           id="path16354"
           style="fill:none;stroke:#ffffff;stroke-width:0.551;stroke-linecap:butt;stroke-linejoin:miter;stroke-miterlimit:4;stroke-dasharray:none;stroke-opacity:1"
           d="M 0,0 0.473,-5.013"
           inkscape:connector-curvature="0" />
      </g>
      <g
         transform="matrix(2.3234544,0,0,-2.3234544,215.25447,564.10567)"
         id="g16356">
        <path
           id="path16358"
           style="fill:none;stroke:#ffffff;stroke-width:0.551;stroke-linecap:butt;stroke-linejoin:miter;stroke-miterlimit:4;stroke-dasharray:none;stroke-opacity:1"
           d="M 0,0 0.473,-5.013"
           inkscape:connector-curvature="0" />
      </g>
      <g
         transform="matrix(2.3234544,0,0,-2.3234544,265.29146,563.57641)"
         id="g16360">
        <path
           id="path16362"
           style="fill:none;stroke:#ffffff;stroke-width:0.551;stroke-linecap:butt;stroke-linejoin:miter;stroke-miterlimit:4;stroke-dasharray:none;stroke-opacity:1"
           d="M 0,0 0.474,-5.013"
           inkscape:connector-curvature="0" />
      </g>
    </g>
  </g>
</svg>
